{
.appVersion = "3516";
.formatVersion = 3;
DisplayStrings = (
"/_part.stroke"
);
axes = (
{
name = Weight;
tag = wght;
}
);
classes = (
{
code = "A Aacute Abreve Abreveacute Abrevedotbelow Abrevegrave Abrevehookabove Abrevetilde Acaron Acircumflex Acircumflexacute Acircumflexdotbelow Acircumflexgrave Acircumflexhookabove Acircumflextilde Adblgrave Adieresis Adieresismacron Adotbelow Agrave Ahookabove Ainvertedbreve Amacron Aogonek Aring Aringacute Atilde AE AEacute";
name = Adiacritics;
},
{
code = "Y Yacute Ycircumflex Ydieresis Ydotaccent Ydotbelow Ygrave Yhookabove Ymacron Ytilde ";
name = Ydiacritics;
},
{
automatic = 1;

glyphs = (
{
glyphname = A;
kernLeft = KO_A;
kernRight = KO_A;
lastChange = "2025-01-20 07:45:44 +0000";
layers = (
{
anchors = (
{
name = bottom;
pos = (243,0);
},
{
name = ogonek;
pos = (477,0);
},
{
name = top;
pos = (317,675);
}
);
layerId = "3FAB31A8-66C0-4840-B78B-D12B5ED553F3";
shapes = (
{
closed = 1;
nodes = (
(24,0,l),
(325,663,ls),
(330,674,o),
(340,672,o),
(341,661,cs),
(344,621,l),
(450,0,l),
(473,0,l),
(354,700,l),
(316,700,l),
(-2,0,l)
);
},
{
closed = 1;
nodes = (
(424,214,l),
(421,236,l),
(118,236,l),
(108,214,l)
);
},
{
closed = 1;
nodes = (
(319,678,l),
(328,700,l),
(194,700,l),
(191,678,l)
);
}
);
width = 542;
},
{
anchors = (
{
name = bottom;
pos = (267,0);
},
{
name = ogonek;
pos = (538,0);
},
{
name = top;
pos = (365,687);
}
);
layerId = "DF61F520-A841-4152-8991-D5A31692CC39";
shapes = (
{
closed = 1;
nodes = (
(112,0,l),
(346,597,ls),
(349,607,o),
(361,605,o),
(361,595,cs),
(362,479,l),
(426,0,l),
(538,0,l),
(439,700,l),
(279,700,l),
(-5,0,l)
);
},
{
closed = 1;
nodes = (
(427,175,l),
(416,273,l),
(194,273,l),
(155,175,l)
);
},
{
closed = 1;
nodes = (
(306,604,l),
(326,700,l),
(169,700,l),
(156,604,l)
);
}
);
width = 593;
},
{
anchors = (
{
name = bottom;
pos = (291,0);
},
{
name = ogonek;
pos = (580,0);
},
{
name = top;
pos = (388,700);
}
);
layerId = "0E062E17-1137-409C-98D3-1192050A59FC";
shapes = (
{
closed = 1;
nodes = (
(206,0,l),
(363,524,ls),
(368,541,o),
(385,539,o),
(384,521,cs),
(380,453,l),
(376,0,l),
(580,0,l),
(543,700,l),
(241,700,l),
(-9,0,l)
);
},
{
closed = 1;
nodes = (
(394,153,l),
(392,313,l),
(278,313,l),
(231,153,l)
);
},
{
closed = 1;
nodes = (
(201,532,l),
(262,700,l),
(142,700,l),
(118,532,l)
);
}
);
width = 636;
}
);
metricRight = V;
unicode = 65;
userData = {
KernOnName = A;
com.schriftgestaltung.Glyphs.ColorIndex = 3;
com.schriftgestaltung.Glyphs.layer.rightMetricsKey = "==V";
com.schriftgestaltung.Glyphs.rightMetricsKey = V;
};
},
{
color = 9;
glyphname = A.ss01;
kernRight = KO_A;
lastChange = "2025-01-19 15:33:47 +0000";
layers = (
{
anchors = (
{
name = bottom;
pos = (243,0);
},
{
name = ogonek;
pos = (477,0);
},
{
name = top;
pos = (317,675);
}
);
layerId = "3FAB31A8-66C0-4840-B78B-D12B5ED553F3";
shapes = (
{
closed = 1;
nodes = (
(24,0,l),
(325,663,ls),
(330,674,o),
(340,672,o),
(341,661,cs),
(344,621,l),
(450,0,l),
(473,0,l),
(354,700,l),
(316,700,l),
(-2,0,l)
);
},
{
closed = 1;
nodes = (
(424,214,l),
(421,236,l),
(118,236,l),
(108,214,l)
);
}
);
width = 542;
},
{
anchors = (
{
name = bottom;
pos = (267,0);
},
{
name = ogonek;
pos = (538,0);
},
{
name = top;
pos = (365,687);
}
);
layerId = "DF61F520-A841-4152-8991-D5A31692CC39";
shapes = (
{
closed = 1;
nodes = (
(112,0,l),
(346,597,ls),
(349,607,o),
(361,605,o),
(361,595,cs),
(362,479,l),
(426,0,l),
(538,0,l),
(439,700,l),
(279,700,l),
(-5,0,l)
);
},
{
closed = 1;
nodes = (
(427,175,l),
(416,273,l),
(194,273,l),
(155,175,l)
);
}
);
width = 593;
},
{
anchors = (
{
name = bottom;
pos = (291,0);
},
{
name = ogonek;
pos = (580,0);
},
{
name = top;
pos = (408,700);
}
);
layerId = "0E062E17-1137-409C-98D3-1192050A59FC";
shapes = (
{
closed = 1;
nodes = (
(206,0,l),
(363,524,ls),
(368,541,o),
(385,539,o),
(384,521,cs),
(380,453,l),
(376,0,l),
(580,0,l),
(543,700,l),
(241,700,l),
(-9,0,l)
);
},
{
closed = 1;
nodes = (
(394,153,l),
(392,313,l),
(278,313,l),
(231,153,l)
);
}
);
width = 636;
}
);
},
{
glyphname = Abrevedotbelow;
kernLeft = KO_A;
kernRight = KO_A;
lastChange = "2026-02-06 13:18:16 +0000";
layers = (
{
anchors = (
{
name = bottom;
pos = (219,-167);
},
{
name = ogonek;
pos = (477,0);
},
{
name = top;
pos = (340,838);
}
);
layerId = "3FAB31A8-66C0-4840-B78B-D12B5ED553F3";
shapes = (
{
closed = 1;
nodes = (
(230,-173,l),
(243,-85,l),
(219,-85,l),
(206,-173,l)
);
},
{
closed = 1;
nodes = (
(392,785,o),
(441,820,o),
(466,889,c),
(448,896,l),
(424,842,o),
(393,806,o),
(336,806,cs),
(282,806,o),
(256,840,o),
(245,896,c),
(226,889,l),
(236,818,o),
(287,785,o),
(334,785,cs)
);
},
{
ref = A;
}
);
width = 542;
},
{
anchors = (
{
name = bottom;
pos = (240,-194);
},
{
name = ogonek;
pos = (538,0);
},
{
name = top;
pos = (393,883);
}
);
layerId = "DF61F520-A841-4152-8991-D5A31692CC39";
shapes = (
{
closed = 1;
nodes = (
(294,-193,l),
(309,-85,l),
(201,-85,l),
(186,-193,l)
);
},
{
closed = 1;
nodes = (
(461,765,o),
(521,807,o),
(551,884,c),
(473,904,l),
(455,862,o),
(426,838,o),
(385,838,cs),
(345,838,o),
(324,862,o),
(317,904,c),
(241,884,l),
(250,815,o),
(309,765,o),
(383,765,cs)
);
},
{
ref = A;
}
);
width = 593;
},
{
anchors = (
{
name = bottom;
pos = (263,-200);
},
{
name = ogonek;
pos = (580,0);
},
{
name = top;
pos = (415,893);
}
);
layerId = "0E062E17-1137-409C-98D3-1192050A59FC";
shapes = (
{
closed = 1;
nodes = (
(361,-196,l),
(380,-63,l),
(184,-63,l),
(165,-196,l)
);
},
{
closed = 1;
nodes = (
(511,740,o),
(592,796,o),
(611,876,c),
(479,896,l),
(463,870,o),
(434,859,o),
(404,859,cs),
(371,859,o),
(347,870,o),
(337,896,c),
(213,876,l),
(235,800,o),
(299,740,o),
(415,740,cs)
);
},
{
ref = A;
}
);
width = 636;
}
);
unicode = 7862;
},
{
glyphname = Acircumflexdotbelow;
kernLeft = KO_A;
kernRight = KO_A;
lastChange = "2026-02-06 13:18:45 +0000";
layers = (
{
anchors = (
{
name = bottom;
pos = (219,-167);
},
{
name = ogonek;
pos = (477,0);
},
{
name = top;
pos = (342,848);
}
);
layerId = "3FAB31A8-66C0-4840-B78B-D12B5ED553F3";
shapes = (
{
closed = 1;
nodes = (
(230,-173,l),
(243,-85,l),
(219,-85,l),
(206,-173,l)
);
},
{
closed = 1;
nodes = (
(256,795,l),
(330,888,l),
(346,911,ls),
(351,918,o),
(357,918,o),
(360,911,cs),
(368,888,l),
(414,795,l),
(439,795,l),
(367,933,l),
(341,933,l),
(229,795,l)
);
},
{
ref = A;
}
);
width = 542;
},
{
anchors = (
{
name = bottom;
pos = (240,-194);
},
{
name = ogonek;
pos = (538,0);
},
{
name = top;
pos = (394,893);
}
);
layerId = "DF61F520-A841-4152-8991-D5A31692CC39";
shapes = (
{
closed = 1;
nodes = (
(294,-193,l),
(309,-85,l),
(201,-85,l),
(186,-193,l)
);
},
{
closed = 1;
nodes = (
(327,775,l),
(369,837,l),
(384,871,ls),
(388,880,o),
(394,880,o),
(396,871,cs),
(403,837,l),
(429,775,l),
(518,775,l),
(448,933,l),
(340,933,l),
(227,775,l)
);
},
{
ref = A;
}
);
width = 593;
},
{
anchors = (
{
name = bottom;
pos = (263,-200);
},
{
name = ogonek;
pos = (580,0);
},
{
name = top;
pos = (421,933);
}
);
layerId = "0E062E17-1137-409C-98D3-1192050A59FC";
shapes = (
{
closed = 1;
nodes = (
(361,-196,l),
(380,-63,l),
(184,-63,l),
(165,-196,l)
);
},
{
closed = 1;
nodes = (
(358,750,l),
(387,795,l),
(402,829,ls),
(406,838,o),
(413,837,o),
(414,829,cs),
(419,795,l),
(437,750,l),
(581,750,l),
(519,933,l),
(323,933,l),
(208,750,l)
);
},
{
ref = A;
}
);
width = 636;
}
);
unicode = 7852;
},
{
glyphname = AE;
kernLeft = KO_A;
kernRight = KO_E;
lastChange = "2025-01-19 17:48:57 +0000";
layers = (
{
anchors = (
{
name = bottom;
pos = (386,0);
},
{
name = top;
pos = (483,675);
}
);
layerId = "3FAB31A8-66C0-4840-B78B-D12B5ED553F3";
shapes = (
{
closed = 1;
nodes = (
(24,0,l),
(120,216,l),
(382,216,l),
(352,0,l),
(733,0,l),
(736,22,l),
(379,22,l),
(423,346,l),
(766,346,l),
(769,368,l),
(426,368,l),
(469,678,l),
(827,678,l),
(830,700,l),
(193,700,l),
(190,678,l),
(299,678,l),
(-2,0,l)
);
},
{
closed = 1;
nodes = (
(325,678,l),
(445,678,l),
(384,236,l),
(129,236,l)
);
}
);
width = 837;
},
{
anchors = (
{
name = bottom;
pos = (395,0);
},
{
name = top;
pos = (491,687);
}
);
layerId = "DF61F520-A841-4152-8991-D5A31692CC39";
shapes = (
{
closed = 1;
nodes = (
(111,0,l),
(180,177,l),
(378,177,l),
(353,0,l),
(767,0,l),
(782,103,l),
(473,103,l),
(500,301,l),
(792,301,l),
(806,399,l),
(514,399,l),
(542,599,l),
(851,599,l),
(865,700,l),
(170,700,l),
(156,599,l),
(239,599,l),
(-5,0,l)
);
},
{
closed = 1;
nodes = (
(346,599,l),
(437,599,l),
(392,273,l),
(217,273,l)
);
}
);
width = 859;
},
{
anchors = (
{
name = bottom;
pos = (404,0);
},
{
name = top;
pos = (504,700);
}
);
background = {
shapes = (
{
pos = (316,0);
ref = E;
}
);
};
layerId = "0E062E17-1137-409C-98D3-1192050A59FC";
shapes = (
{
closed = 1;
nodes = (
(202,0,l),
(245,145,l),
(376,145,l),
(355,0,l),
(805,0,l),
(830,180,l),
(571,180,l),
(584,270,l),
(826,270,l),
(848,430,l),
(606,430,l),
(620,520,l),
(878,520,l),
(903,700,l),
(145,700,l),
(121,520,l),
(178,520,l),
(-9,0,l)
);
},
{
closed = 1;
nodes = (
(361,520,l),
(430,520,l),
(399,313,l),
(301,313,l)
);
}
);
width = 885;
}
);
metricLeft = A;
metricRight = E;
unicode = 198;
userData = {
com.schriftgestaltung.Glyphs.leftMetricsKey = A;
com.schriftgestaltung.Glyphs.rightMetricsKey = E;
};
},
{
color = 9;
glyphname = AE.ss01;
kernRight = KO_E;
lastChange = "2025-01-19 15:33:47 +0000";
layers = (
{
anchors = (
{
name = bottom;
pos = (384,0);
},
{
name = ogonek;
pos = (733,0);
},
{
name = top;
pos = (483,700);
},
{
name = topleft;
pos = (363,700);
}
);
layerId = "3FAB31A8-66C0-4840-B78B-D12B5ED553F3";
shapes = (
{
closed = 1;
nodes = (
(24,0,l),
(121,211,l),
(380,211,l),
(350,0,l),
(731,0,l),
(735,22,l),
(378,22,l),
(422,339,l),
(762,339,l),
(765,361,l),
(425,361,l),
(470,678,l),
(827,678,l),
(830,700,l),
(321,700,l),
(-2,0,l)
);
},
{
closed = 1;
nodes = (
(337,678,l),
(446,678,l),
(383,233,l),
(132,233,l)
);
}
);
width = 835;
},
{
anchors = (
{
name = bottom;
pos = (404,0);
},
{
name = ogonek;
pos = (772,0);
},
{
name = top;
pos = (502,700);
},
{
name = topleft;
pos = (395,700);
}
);
layerId = "DF61F520-A841-4152-8991-D5A31692CC39";
shapes = (
{
closed = 1;
nodes = (
(111,0,l),
(180,177,l),
(384,177,l),
(359,0,l),
(772,0,l),
(787,103,l),
(478,103,l),
(506,301,l),
(798,301,l),
(812,399,l),
(520,399,l),
(547,597,l),
(856,597,l),
(871,700,l),
(280,700,l),
(-5,0,l)
);
},
{
closed = 1;
nodes = (
(346,599,l),
(443,599,l),
(397,273,l),
(218,273,l)
);
}
);
width = 864;
},
{
anchors = (
{
name = bottom;
pos = (419,0);
},
{
name = ogonek;
pos = (837,0);
},
{
name = top;
pos = (517,700);
},
{
name = topleft;
pos = (450,700);
}
);
layerId = "0E062E17-1137-409C-98D3-1192050A59FC";
shapes = (
{
closed = 1;
nodes = (
(202,0,l),
(246,145,l),
(387,145,l),
(367,0,l),
(836,0,l),
(861,180,l),
(602,180,l),
(615,270,l),
(857,270,l),
(879,430,l),
(637,430,l),
(650,520,l),
(909,520,l),
(934,700,l),
(238,700,l),
(-9,0,l)
);
},
{
closed = 1;
nodes = (
(361,527,l),
(441,527,l),
(411,313,l),
(296,313,l)
);
}
);
width = 916;
}
);
},
{
glyphname = B;
kernLeft = KO_H;
kernRight = KO_B;
lastChange = "2025-01-20 07:45:44 +0000";
layers = (
{
anchors = (
{
name = bottom;
pos = (247,0);
},
{
name = center;
pos = (111,191);
},
{
name = top;
pos = (338,675);
}
);
background = {
shapes = (
{
closed = 1;
nodes = (
(275,0,l),
(393,0,o),
(469,71,o),
(469,191,cs),
(469,269,o),
(424,340,o),
(329,356,c),
(285,341,l),
(377,341,o),
(445,284,o),
(445,191,cs),
(445,86,o),
(380,22,o),
(275,22,c)
);
},
{
closed = 1;
nodes = (
(327,678,l),
(425,678,o),
(477,621,o),
(477,527,cs),
(477,433,o),
(411,363,o),
(287,363,c),
(308,348,l),
(434,350,o),
(501,434,o),
(501,527,cs),
(501,635,o),
(439,700,o),
(327,700,c)
);
},
{
closed = 1;
nodes = (
(275,22,l),
(99,22,l),
(143,341,l),
(319,341,l),
(352,363,l),
(146,363,l),
(190,678,l),
(327,678,l),
(327,700,l),
(169,700,l),
(71,0,l),
(275,0,l)
);
}
);
};
layerId = "3FAB31A8-66C0-4840-B78B-D12B5ED553F3";
shapes = (
{
closed = 1;
nodes = (
(295,0,ls),
(413,0,o),
(489,71,o),
(489,191,cs),
(489,263,o),
(450,330,o),
(369,352,c),
(468,369,o),
(521,446,o),
(521,530,cs),
(521,636,o),
(463,700,o),
(357,700,cs),
(169,700,l),
(71,0,l)
);
},
{
closed = 1;
nodes = (
(143,341,l),
(305,341,ls),
(397,341,o),
(465,284,o),
(465,191,cs),
(465,86,o),
(400,22,o),
(295,22,cs),
(99,22,l)
);
},
{
closed = 1;
nodes = (
(190,678,l),
(357,678,ls),
(448,678,o),
(497,622,o),
(497,530,cs),
(497,434,o),
(431,363,o),
(307,363,cs),
(146,363,l)
);
}
);
width = 570;
},
{
anchors = (
{
name = bottom;
pos = (254,0);
},
{
name = center;
pos = (141,196);
},
{
name = top;
pos = (351,687);
}
);
layerId = "DF61F520-A841-4152-8991-D5A31692CC39";
shapes = (
{
closed = 1;
nodes = (
(300,0,ls),
(443,0,o),
(530,68,o),
(530,203,cs),
(530,268,o),
(493,328,o),
(439,352,c),
(514,381,o),
(556,444,o),
(556,528,cs),
(556,634,o),
(484,700,o),
(366,700,cs),
(152,700,l),
(54,0,l)
);
},
{
closed = 1;
nodes = (
(201,304,l),
(325,304,ls),
(385,304,o),
(424,272,o),
(424,210,cs),
(424,134,o),
(383,94,o),
(299,94,cs),
(172,94,l)
);
},
{
closed = 1;
nodes = (
(244,606,l),
(361,606,ls),
(420,606,o),
(452,569,o),
(452,514,cs),
(452,450,o),
(416,398,o),
(346,398,cs),
(214,398,l)
);
}
);
width = 587;
},
{
anchors = (
{
name = bottom;
pos = (258,0);
},
{
name = center;
pos = (163,220);
},
{
name = top;
pos = (356,700);
}
);
background = {
anchors = (
{
name = bottom;
pos = (258,0);
},
{
name = top;
pos = (359,720);
}
);
shapes = (
{
closed = 1;
nodes = (
(313,0,ls),
(479,0,o),
(593,41,o),
(593,198,cs),
(593,253,o),
(573,328,o),
(487,369,c),
(575,402,o),
(612,471,o),
(612,532,cs),
(612,638,o),
(524,700,o),
(412,700,cs),
(131,700,l),
(33,0,l)
);
},
{
closed = 1;
nodes = (
(260,264,l),
(369,264,ls),
(391,264,o),
(401,242,o),
(401,227,cs),
(401,191,o),
(379,170,o),
(337,170,cs),
(246,170,l)
);
},
{
closed = 1;
nodes = (
(297,530,l),
(382,530,ls),
(403,530,o),
(423,516,o),
(423,495,cs),
(423,467,o),
(393,434,o),
(337,434,cs),
(283,434,l)
);
}
);
};
layerId = "0E062E17-1137-409C-98D3-1192050A59FC";
shapes = (
{
closed = 1;
nodes = (
(353,0,ls),
(514,0,o),
(582,114,o),
(582,221,cs),
(582,287,o),
(552,347,o),
(487,369,c),
(565,388,o),
(609,460,o),
(609,531,cs),
(609,615,o),
(548,700,o),
(412,700,cs),
(130,700,l),
(32,0,l)
);
},
{
closed = 1;
nodes = (
(270,271,l),
(344,271,ls),
(381,271,o),
(399,250,o),
(395,221,cs),
(391,192,o),
(367,171,o),
(330,171,cs),
(256,170,l)
);
},
{
closed = 1;
nodes = (
(306,530,l),
(370,530,ls),
(407,530,o),
(425,509,o),
(421,480,cs),
(417,451,o),
(393,430,o),
(356,430,cs),
(292,430,l)
);
}
);
width = 625;
}
);
metricLeft = H;
unicode = 66;
userData = {
KernOnName = B;
com.schriftgestaltung.Glyphs.ColorIndex = 3;
com.schriftgestaltung.Glyphs.layer.leftMetricsKey = "==H";
com.schriftgestaltung.Glyphs.leftMetricsKey = H;
};
},
{
glyphname = Bstroke;
lastChange = "2026-03-11 15:47:28 +0000";
layers = (
{
layerId = "3FAB31A8-66C0-4840-B78B-D12B5ED553F3";
shapes = (
{
pos = (30,0);
ref = B;
},
{
closed = 1;
nodes = (
(264,180,l),
(268,202,l),
(17,202,l),
(13,180,l)
);
}
);
width = 600;
},
{
layerId = "DF61F520-A841-4152-8991-D5A31692CC39";
shapes = (
{
pos = (15,0);
ref = B;
},
{
closed = 1;
nodes = (
(305,151,l),
(318,241,l),
(7,241,l),
(-6,151,l)
);
}
);
width = 602;
},
{
layerId = "0E062E17-1137-409C-98D3-1192050A59FC";
shapes = (
{
pos = (44,0);
ref = B;
},
{
closed = 1;
nodes = (
(348,187,l),
(356,251,l),
(13,251,l),
(5,187,l)
);
}
);
width = 669;
}
);
metricLeft = t;
metricRight = B;
unicode = 579;
},
{
glyphname = C;
kernLeft = KO_O;
kernRight = KO_C;
lastChange = "2026-03-11 15:47:34 +0000";
layers = (
{
anchors = (
{
name = bottom;
pos = (285,-12);
},
{
name = top;
pos = (343,675);
}
);
background = {
anchors = (
{
name = bottom;
pos = (305,0);
},
{
name = top;
pos = (345,670);
}
);
};
layerId = "3FAB31A8-66C0-4840-B78B-D12B5ED553F3";
shapes = (
{
closed = 1;
nodes = (
(351,-12,o),
(414,7,o),
(456,39,c),
(449,59,l),
(398,23,o),
(350,10,o),
(285,10,cs),
(173,10,o),
(105,74,o),
(105,214,cs),
(105,315,o),
(125,428,o),
(158,534,cs),
(195,654,o),
(277,690,o),
(363,690,cs),
(432,690,o),
(486,660,o),
(515,622,c),
(528,641,l),
(495,681,o),
(439,712,o),
(363,712,cs),
(235,712,o),
(164,639,o),
(133,534,cs),
(101,439,o),
(81,308,o),
(81,214,cs),
(81,72,o),
(153,-12,o),
(285,-12,cs)
);
}
);
width = 511;
},
{
anchors = (
{
name = bottom;
pos = (288,0);
},
{
name = top;
pos = (344,687);
}
);
layerId = "DF61F520-A841-4152-8991-D5A31692CC39";
shapes = (
{
closed = 1;
nodes = (
(359,-12,o),
(410,7,o),
(453,41,c),
(422,138,l),
(389,111,o),
(347,90,o),
(295,90,cs),
(214,90,o),
(168,137,o),
(168,218,cs),
(168,293,o),
(191,438,o),
(212,504,cs),
(237,582,o),
(292,610,o),
(353,610,cs),
(412,610,o),
(452,592,o),
(483,560,c),
(520,649,l),
(483,687,o),
(429,712,o),
(358,712,cs),
(219,712,o),
(140,637,o),
(108,530,cs),
(77,434,o),
(58,312,o),
(58,214,cs),
(58,101,o),
(134,-12,o),
(287,-12,cs)
);
}
);
width = 508;
},
{
anchors = (
{
name = bottom;
pos = (272,0);
},
{
name = top;
pos = (344,700);
}
);
layerId = "0E062E17-1137-409C-98D3-1192050A59FC";
shapes = (
{
closed = 1;
nodes = (
(399,-12,o),
(442,8,o),
(500,50,c),
(435,206,l),
(402,180,o),
(378,172,o),
(340,172,cs),
(282,172,o),
(248,209,o),
(248,265,cs),
(248,323,o),
(261,398,o),
(277,451,cs),
(291,496,o),
(329,529,o),
(379,529,cs),
(421,529,o),
(444,520,o),
(470,503,c),
(530,664,l),
(485,696,o),
(426,712,o),
(355,712,cs),
(210,712,o),
(117,631,o),
(82,507,cs),
(57,421,o),
(39,331,o),
(39,224,cs),
(39,119,o),
(133,-12,o),
(308,-12,cs)
);
}
);
width = 554;
}
);
metricLeft = O;
metricRight = "=I/2";
unicode = 67;
userData = {
KernOnName = C;
com.schriftgestaltung.Glyphs.ColorIndex = 3;
com.schriftgestaltung.Glyphs.layer.leftMetricsKey = "==O";
com.schriftgestaltung.Glyphs.leftMetricsKey = O;
};
},
{
glyphname = D;
kernLeft = KO_H;
kernRight = KO_O;
lastChange = "2026-03-11 16:01:56 +0000";
layers = (
{
anchors = (
{
name = bottom;
pos = (260,0);
},
{
name = center;
pos = (133,350);
},
{
name = top;
pos = (350,675);
}
);
layerId = "3FAB31A8-66C0-4840-B78B-D12B5ED553F3";
shapes = (
{
closed = 1;
nodes = (
(227,0,ls),
(366,0,o),
(442,49,o),
(478,176,cs),
(506,275,o),
(524,404,o),
(524,497,cs),
(524,622,o),
(449,700,o),
(323,700,cs),
(169,700,l),
(72,0,l)
);
},
{
closed = 1;
nodes = (
(190,678,l),
(323,678,ls),
(434,678,o),
(503,612,o),
(501,497,cs),
(500,416,o),
(485,281,o),
(456,184,cs),
(420,62,o),
(359,22,o),
(234,22,cs),
(99,22,l)
);
}
);
width = 575;
},
{
anchors = (
{
name = bottom;
pos = (270,0);
},
{
name = center;
pos = (157,350);
},
{
name = top;
pos = (367,687);
}
);
layerId = "DF61F520-A841-4152-8991-D5A31692CC39";
shapes = (
{
closed = 1;
nodes = (
(251,0,ls),
(410,0,o),
(511,64,o),
(544,218,cs),
(560,295,o),
(575,386,o),
(578,464,cs),
(583,605,o),
(514,700,o),
(344,700,cs),
(152,700,l),
(54,0,l)
);
},
{
closed = 1;
nodes = (
(250,604,l),
(336,604,ls),
(440,604,o),
(474,549,o),
(471,464,cs),
(469,404,o),
(454,299,o),
(441,245,cs),
(415,141,o),
(361,95,o),
(259,95,cs),
(179,95,l)
);
}
);
width = 607;
},
{
anchors = (
{
name = bottom;
pos = (278,0);
},
{
name = center;
pos = (189,350);
},
{
name = top;
pos = (377,700);
}
);
background = {
shapes = (
{
closed = 1;
nodes = (
(270,0,ls),
(447,0,o),
(561,89,o),
(592,230,cs),
(600,266,o),
(608,311,o),
(614,350,cs),
(619,389,o),
(624,434,o),
(626,470,cs),
(634,611,o),
(544,700,o),
(368,700,cs),
(130,700,l),
(32,0,l)
);
},
{
closed = 1;
nodes = (
(316,532,l),
(354,532,ls),
(403,532,o),
(425,490,o),
(423,441,cs),
(421,403,o),
(418,382,o),
(414,350,cs),
(409,318,o),
(406,296,o),
(397,259,cs),
(384,210,o),
(354,169,o),
(303,169,cs),
(265,169,l)
);
}
);
};
layerId = "0E062E17-1137-409C-98D3-1192050A59FC";
shapes = (
{
closed = 1;
nodes = (
(270,0,ls),
(442,0,o),
(548,76,o),
(583,183,cs),
(610,273,o),
(627,385,o),
(627,484,cs),
(627,587,o),
(543,700,o),
(368,700,cs),
(130,700,l),
(32,0,l)
);
},
{
closed = 1;
nodes = (
(316,532,l),
(354,532,ls),
(401,532,o),
(418,503,o),
(418,468,cs),
(418,437,o),
(407,319,o),
(385,232,cs),
(376,195,o),
(346,169,o),
(303,169,cs),
(265,169,l)
);
}
);
width = 640;
}
);
metricLeft = H;
metricRight = O;
unicode = 68;
userData = {
com.schriftgestaltung.Glyphs.ColorIndex = 3;
com.schriftgestaltung.Glyphs.layer.leftMetricsKey = "==H";
com.schriftgestaltung.Glyphs.layer.rightMetricsKey = "==O";
com.schriftgestaltung.Glyphs.leftMetricsKey = H;
com.schriftgestaltung.Glyphs.rightMetricsKey = O;
};
},
{
glyphname = DZcaron;
lastChange = "2026-02-06 13:19:05 +0000";
layers = (
{
anchors = (
{
name = bottom;
pos = (773,0);
},
{
name = center;
pos = (123,350);
},
{
name = top;
pos = (886,838);
}
);
layerId = "3FAB31A8-66C0-4840-B78B-D12B5ED553F3";
shapes = (
{
closed = 1;
nodes = (
(227,0,ls),
(366,0,o),
(442,49,o),
(478,176,cs),
(506,275,o),
(524,404,o),
(524,497,cs),
(524,622,o),
(449,700,o),
(323,700,cs),
(169,700,l),
(72,0,l)
);
},
{
closed = 1;
nodes = (
(190,678,l),
(323,678,ls),
(434,678,o),
(503,612,o),
(501,497,cs),
(500,416,o),
(485,281,o),
(456,184,cs),
(420,62,o),
(359,22,o),
(234,22,cs),
(99,22,l)
);
},
{
closed = 1;
nodes = (
(958,0,l),
(961,22,l),
(618,22,ls),
(615,22,o),
(613,28,o),
(617,33,cs),
(655,86,l),
(1053,682,l),
(1055,700,l),
(696,700,l),
(681,581,l),
(705,581,l),
(718,678,l),
(1018,678,ls),
(1025,678,o),
(1024,671,o),
(1022,668,cs),
(996,639,l),
(581,18,l),
(581,0,l)
);
},
{
closed = 1;
nodes = (
(979,933,l),
(905,840,l),
(889,817,ls),
(884,810,o),
(878,810,o),
(875,817,cs),
(867,840,l),
(821,933,l),
(796,933,l),
(868,795,l),
(894,795,l),
(1006,933,l)
);
}
);
width = 1044;
},
{
anchors = (
{
name = bottom;
pos = (830,0);
},
{
name = center;
pos = (157,350);
},
{
name = top;
pos = (958,903);
}
);
layerId = "DF61F520-A841-4152-8991-D5A31692CC39";
shapes = (
{
closed = 1;
nodes = (
(251,0,ls),
(410,0,o),
(511,64,o),
(544,218,cs),
(560,295,o),
(575,386,o),
(578,464,cs),
(583,605,o),
(514,700,o),
(344,700,cs),
(152,700,l),
(54,0,l)
);
},
{
closed = 1;
nodes = (
(250,604,l),
(336,604,ls),
(440,604,o),
(474,549,o),
(471,464,cs),
(469,404,o),
(454,299,o),
(441,245,cs),
(415,141,o),
(361,95,o),
(259,95,cs),
(179,95,l)
);
},
{
closed = 1;
nodes = (
(1050,0,l),
(1064,103,l),
(770,103,ls),
(762,103,o),
(760,111,o),
(767,118,cs),
(816,172,l),
(1138,632,l),
(1147,700,l),
(718,700,l),
(694,530,l),
(796,530,l),
(806,606,l),
(995,606,ls),
(1004,606,o),
(1005,597,o),
(999,592,cs),
(953,543,l),
(622,68,l),
(613,0,l)
);
},
{
closed = 1;
nodes = (
(1011,933,l),
(969,871,l),
(954,837,ls),
(950,828,o),
(944,828,o),
(942,837,cs),
(935,871,l),
(909,933,l),
(820,933,l),
(890,775,l),
(998,775,l),
(1111,933,l)
);
}
);
width = 1126;
},
{
anchors = (
{
name = bottom;
pos = (893,0);
},
{
name = center;
pos = (189,350);
},
{
name = top;
pos = (1024,933);
}
);
layerId = "0E062E17-1137-409C-98D3-1192050A59FC";
shapes = (
{
closed = 1;
nodes = (
(270,0,ls),
(442,0,o),
(548,76,o),
(583,183,cs),
(610,273,o),
(627,385,o),
(627,484,cs),
(627,587,o),
(543,700,o),
(368,700,cs),
(130,700,l),
(32,0,l)
);
},
{
closed = 1;
nodes = (
(316,532,l),
(354,532,ls),
(401,532,o),
(418,503,o),
(418,468,cs),
(418,437,o),
(407,319,o),
(385,232,cs),
(376,195,o),
(346,169,o),
(303,169,cs),
(265,169,l)
);
},
{
closed = 1;
nodes = (
(1151,0,l),
(1176,180,l),
(917,180,ls),
(895,180,o),
(897,197,o),
(916,205,cs),
(973,230,l),
(1226,539,l),
(1249,700,l),
(742,700,l),
(709,465,l),
(880,465,l),
(888,520,l),
(981,520,ls),
(1000,520,o),
(1001,506,o),
(983,494,cs),
(923,455,l),
(672,161,l),
(650,0,l)
);
},
{
closed = 1;
nodes = (
(1065,933,l),
(1036,888,l),
(1021,854,ls),
(1017,845,o),
(1010,846,o),
(1009,854,cs),
(1004,888,l),
(986,933,l),
(842,933,l),
(904,750,l),
(1100,750,l),
(1215,933,l)
);
}
);
width = 1211;
}
);
unicode = 452;
},
{
glyphname = Dzcaron;
lastChange = "2026-02-06 13:00:08 +0000";
layers = (
{
anchors = (
{
name = bottom;
pos = (725,0);
},
{
name = center;
pos = (123,350);
},
{
name = top;
pos = (816,655);
}
);
layerId = "3FAB31A8-66C0-4840-B78B-D12B5ED553F3";
shapes = (
{
closed = 1;
nodes = (
(227,0,ls),
(366,0,o),
(442,49,o),
(478,176,cs),
(506,275,o),
(524,404,o),
(524,497,cs),
(524,622,o),
(449,700,o),
(323,700,cs),
(169,700,l),
(72,0,l)
);
},
{
closed = 1;
nodes = (
(190,678,l),
(323,678,ls),
(434,678,o),
(503,612,o),
(501,497,cs),
(500,416,o),
(485,281,o),
(456,184,cs),
(420,62,o),
(359,22,o),
(234,22,cs),
(99,22,l)
);
},
{
closed = 1;
nodes = (
(879,0,l),
(883,23,l),
(612,23,ls),
(607,23,o),
(603,27,o),
(608,32,cs),
(637,65,l),
(947,476,l),
(948,492,l),
(638,492,l),
(635,470,l),
(909,470,ls),
(915,470,o),
(918,467,o),
(912,461,cs),
(877,423,l),
(569,15,l),
(570,0,l)
);
},
{
closed = 1;
nodes = (
(909,750,l),
(835,657,l),
(819,634,ls),
(814,627,o),
(808,627,o),
(805,634,cs),
(797,657,l),
(751,750,l),
(726,750,l),
(798,612,l),
(824,612,l),
(936,750,l)
);
}
);
width = 987;
},
{
anchors = (
{
name = bottom;
pos = (793,0);
},
{
name = center;
pos = (157,350);
},
{
name = top;
pos = (895,720);
}
);
layerId = "DF61F520-A841-4152-8991-D5A31692CC39";
shapes = (
{
closed = 1;
nodes = (
(251,0,ls),
(410,0,o),
(511,64,o),
(544,218,cs),
(560,295,o),
(575,386,o),
(578,464,cs),
(583,605,o),
(514,700,o),
(344,700,cs),
(152,700,l),
(54,0,l)
);
},
{
closed = 1;
nodes = (
(250,604,l),
(336,604,ls),
(440,604,o),
(474,549,o),
(471,464,cs),
(469,404,o),
(454,299,o),
(441,245,cs),
(415,141,o),
(361,95,o),
(259,95,cs),
(179,95,l)
);
},
{
closed = 1;
nodes = (
(974,0,l),
(987,90,l),
(758,90,ls),
(752,90,o),
(749,97,o),
(754,102,cs),
(800,143,l),
(1036,430,l),
(1045,504,l),
(682,504,l),
(669,414,l),
(898,414,ls),
(905,414,o),
(907,408,o),
(901,402,cs),
(858,364,l),
(620,74,l),
(611,0,l)
);
},
{
closed = 1;
nodes = (
(948,750,l),
(906,688,l),
(891,654,ls),
(887,645,o),
(881,645,o),
(879,654,cs),
(872,688,l),
(846,750,l),
(757,750,l),
(827,592,l),
(935,592,l),
(1048,750,l)
);
}
);
width = 1064;
},
{
anchors = (
{
name = bottom;
pos = (864,0);
},
{
name = center;
pos = (189,350);
},
{
name = top;
pos = (971,750);
}
);
layerId = "0E062E17-1137-409C-98D3-1192050A59FC";
shapes = (
{
closed = 1;
nodes = (
(270,0,ls),
(442,0,o),
(548,76,o),
(583,183,cs),
(610,273,o),
(627,385,o),
(627,484,cs),
(627,587,o),
(543,700,o),
(368,700,cs),
(130,700,l),
(32,0,l)
);
},
{
closed = 1;
nodes = (
(316,532,l),
(354,532,ls),
(401,532,o),
(418,503,o),
(418,468,cs),
(418,437,o),
(407,319,o),
(385,232,cs),
(376,195,o),
(346,169,o),
(303,169,cs),
(265,169,l)
);
},
{
closed = 1;
nodes = (
(1073,0,l),
(1095,153,l),
(901,153,ls),
(893,153,o),
(891,164,o),
(897,168,cs),
(947,201,l),
(1129,360,l),
(1146,517,l),
(728,517,l),
(706,363,l),
(898,363,ls),
(907,363,o),
(907,353,o),
(901,349,cs),
(851,317,l),
(674,158,l),
(655,0,l)
);
},
{
closed = 1;
nodes = (
(1012,750,l),
(983,705,l),
(968,671,ls),
(964,662,o),
(957,663,o),
(956,671,cs),
(951,705,l),
(933,750,l),
(789,750,l),
(851,567,l),
(1047,567,l),
(1162,750,l)
);
}
);
width = 1144;
}
);
unicode = 453;
},
{
glyphname = E;
kernLeft = KO_H;
kernRight = KO_E;
lastChange = "2025-01-20 07:45:44 +0000";
layers = (
{
anchors = (
{
name = bottom;
pos = (264,0);
},
{
name = ogonek;
pos = (453,0);
},
{
name = top;
pos = (359,675);
},
{
name = topleft;
pos = (83,700);
}
);
layerId = "3FAB31A8-66C0-4840-B78B-D12B5ED553F3";
shapes = (
{
closed = 1;
nodes = (
(451,0,l),
(455,22,l),
(98,22,l),
(142,339,l),
(482,339,l),
(485,361,l),
(145,361,l),
(190,678,l),
(547,678,l),
(550,700,l),
(169,700,l),
(70,0,l)
);
}
);
width = 555.4;
},
{
anchors = (
{
name = bottom;
pos = (268,0);
},
{
name = ogonek;
pos = (467,0);
},
{
name = top;
pos = (354,687);
},
{
name = topleft;
pos = (90,700);
}
);
layerId = "DF61F520-A841-4152-8991-D5A31692CC39";
shapes = (
{
closed = 1;
nodes = (
(467,0,l),
(482,103,l),
(173,103,l),
(201,301,l),
(493,301,l),
(507,399,l),
(215,399,l),
(242,597,l),
(551,597,l),
(566,700,l),
(152,700,l),
(54,0,l)
);
}
);
width = 559;
},
{
anchors = (
{
name = bottom;
pos = (261,0);
},
{
name = ogonek;
pos = (502,0);
},
{
name = top;
pos = (362,700);
},
{
name = topleft;
pos = (115,700);
}
);
layerId = "0E062E17-1137-409C-98D3-1192050A59FC";
shapes = (
{
closed = 1;
nodes = (
(501,0,l),
(526,180,l),
(267,180,l),
(280,270,l),
(522,270,l),
(544,430,l),
(302,430,l),
(315,520,l),
(574,520,l),
(599,700,l),
(130,700,l),
(32,0,l)
);
}
);
width = 581;
}
);
metricLeft = H;
unicode = 69;
userData = {
KernOnName = E;
com.schriftgestaltung.Glyphs.ColorIndex = 3;
com.schriftgestaltung.Glyphs.layer.leftMetricsKey = "==H";
com.schriftgestaltung.Glyphs.leftMetricsKey = H;
};
},
{
glyphname = Ecircumflexdotbelow;
kernLeft = KO_H;
kernRight = KO_E;
lastChange = "2026-02-06 13:19:39 +0000";
layers = (
{
anchors = (
{
name = bottom;
pos = (240,-167);
},
{
name = ogonek;
pos = (453,0);
},
{
name = top;
pos = (384,848);
},
{
name = topleft;
pos = (83,700);
}
);
layerId = "3FAB31A8-66C0-4840-B78B-D12B5ED553F3";
shapes = (
{
closed = 1;
nodes = (
(251,-173,l),
(264,-85,l),
(240,-85,l),
(227,-173,l)
);
},
{
closed = 1;
nodes = (
(298,795,l),
(372,888,l),
(388,911,ls),
(393,918,o),
(399,918,o),
(402,911,cs),
(410,888,l),
(456,795,l),
(481,795,l),
(409,933,l),
(383,933,l),
(271,795,l)
);
},
{
ref = E;
}
);
width = 555;
},
{
anchors = (
{
name = bottom;
pos = (241,-194);
},
{
name = ogonek;
pos = (467,0);
},
{
name = top;
pos = (383,893);
},
{
name = topleft;
pos = (90,700);
}
);
layerId = "DF61F520-A841-4152-8991-D5A31692CC39";
shapes = (
{
closed = 1;
nodes = (
(295,-193,l),
(310,-85,l),
(202,-85,l),
(187,-193,l)
);
},
{
closed = 1;
nodes = (
(316,775,l),
(358,837,l),
(373,871,ls),
(377,880,o),
(383,880,o),
(385,871,cs),
(392,837,l),
(418,775,l),
(507,775,l),
(437,933,l),
(329,933,l),
(216,775,l)
);
},
{
ref = E;
}
);
width = 559;
},
{
anchors = (
{
name = bottom;
pos = (233,-200);
},
{
name = ogonek;
pos = (502,0);
},
{
name = top;
pos = (395,933);
},
{
name = topleft;
pos = (115,700);
}
);
layerId = "0E062E17-1137-409C-98D3-1192050A59FC";
shapes = (
{
closed = 1;
nodes = (
(331,-196,l),
(350,-63,l),
(154,-63,l),
(135,-196,l)
);
},
{
closed = 1;
nodes = (
(332,750,l),
(361,795,l),
(376,829,ls),
(380,838,o),
(387,837,o),
(388,829,cs),
(393,795,l),
(411,750,l),
(555,750,l),
(493,933,l),
(297,933,l),
(182,750,l)
);
},
{
ref = E;
}
);
width = 581;
}
);
unicode = 7878;
},
{
glyphname = Schwa;
kernRight = KO_O;
lastChange = "2025-01-19 17:48:57 +0000";
layers = (
{
anchors = (
{
name = bottom;
pos = (284,0);
},
{
name = top;
pos = (383,675);
}
);
layerId = "3FAB31A8-66C0-4840-B78B-D12B5ED553F3";
shapes = (
{
closed = 1;
nodes = (
(496,-12,o),
(547,148,o),
(576,350,cs),
(607,564,o),
(580,712,o),
(373,712,cs),
(279,712,o),
(219,675,o),
(167,645,c),
(172,626,l),
(217,654,o),
(272,691,o),
(371,691,cs),
(583,691,o),
(578,529,o),
(549,327,c),
(88,327,l),
(83,292,l),
(65,158,o),
(72,-12,o),
(279,-12,cs)
);
},
{
closed = 1;
nodes = (
(90,9,o),
(86,170,o),
(107,305,c),
(546,305,l),
(527,167,o),
(473,9,o),
(282,9,cs)
);
}
);
width = 638;
},
{
anchors = (
{
name = bottom;
pos = (271,0);
},
{
name = top;
pos = (367,687);
}
);
layerId = "DF61F520-A841-4152-8991-D5A31692CC39";
shapes = (
{
closed = 1;
nodes = (
(444,-12,o),
(534,93,o),
(571,350,cs),
(600,558,o),
(543,712,o),
(341,712,cs),
(255,712,o),
(184,684,o),
(127,639,c),
(152,548,l),
(193,580,o),
(265,609,o),
(330,609,cs),
(443,609,o),
(482,525,o),
(461,378,c),
(72,378,l),
(61,305,l),
(31,87,o),
(145,-12,o),
(282,-12,cs)
);
},
{
closed = 1;
nodes = (
(175,91,o),
(160,168,o),
(172,276,c),
(444,276,l),
(429,156,o),
(377,91,o),
(282,91,cs)
);
}
);
width = 611;
},
{
anchors = (
{
name = bottom;
pos = (281,0);
},
{
name = top;
pos = (379,700);
}
);
layerId = "0E062E17-1137-409C-98D3-1192050A59FC";
shapes = (
{
closed = 1;
nodes = (
(398,-12,o),
(565,20,o),
(612,350,cs),
(656,661,o),
(459,712,o),
(337,712,cs),
(205,712,o),
(132,665,o),
(88,639,c),
(135,478,l),
(157,496,o),
(219,529,o),
(301,529,cs),
(347,529,o),
(419,531,o),
(404,412,c),
(61,412,l),
(47,315,l),
(9,44,o),
(178,-12,o),
(310,-12,cs)
);
},
{
closed = 1;
nodes = (
(284,171,o),
(237,180,o),
(247,248,c),
(383,248,l),
(373,180,o),
(322,171,o),
(301,171,cs)
);
}
);
width = 634;
}
);
metricLeft = O;
metricRight = O;
unicode = 399;
},
{
glyphname = Ezh;
lastChange = "2025-01-19 17:48:57 +0000";
layers = (
{
anchors = (
{
name = bottom;
pos = (214,0);
},
{
name = top;
pos = (313,675);
}
);
layerId = "3FAB31A8-66C0-4840-B78B-D12B5ED553F3";
shapes = (
{
closed = 1;
nodes = (
(354,-8,o),
(446,104,o),
(446,209,cs),
(446,305,o),
(381,395,o),
(192,389,c),
(201,380,l),
(505,692,l),
(506,700,l),
(149,700,l),
(146,678,l),
(458,678,ls),
(464,678,o),
(465,673,o),
(458,667,cs),
(417,633,l),
(171,380,l),
(169,367,l),
(197,367,ls),
(370,367,o),
(422,300,o),
(422,209,cs),
(422,114,o),
(340,14,o),
(202,14,cs),
(136,14,o),
(69,43,o),
(30,89,c),
(14,72,l),
(60,22,o),
(134,-8,o),
(201,-8,cs)
);
}
);
width = 524;
},
{
anchors = (
{
name = bottom;
pos = (229,0);
},
{
name = top;
pos = (325,687);
}
);
layerId = "DF61F520-A841-4152-8991-D5A31692CC39";
shapes = (
{
closed = 1;
nodes = (
(352,-8,o),
(473,81,o),
(474,220,cs),
(475,355,o),
(382,418,o),
(226,413,c),
(256,380,l),
(500,632,l),
(509,700,l),
(109,700,l),
(95,606,l),
(351,606,ls),
(360,606,o),
(363,598,o),
(355,592,cs),
(300,553,l),
(147,385,l),
(140,321,l),
(222,321,ls),
(324,321,o),
(365,285,o),
(365,218,cs),
(366,146,o),
(306,93,o),
(208,93,cs),
(140,93,o),
(87,113,o),
(44,156,c),
(-2,68,l),
(56,16,o),
(121,-8,o),
(210,-8,cs)
);
}
);
width = 528;
},
{
anchors = (
{
name = bottom;
pos = (244,0);
},
{
name = top;
pos = (342,700);
}
);
layerId = "0E062E17-1137-409C-98D3-1192050A59FC";
shapes = (
{
closed = 1;
nodes = (
(348,-13,o),
(518,73,o),
(518,234,cs),
(522,372,o),
(421,440,o),
(303,434,c),
(282,365,l),
(533,569,l),
(551,700,l),
(95,700,l),
(70,530,l),
(268,530,ls),
(282,530,o),
(284,521,o),
(273,513,cs),
(244,491,l),
(150,400,l),
(135,281,l),
(258,281,ls),
(314,281,o),
(324,258,o),
(325,232,cs),
(325,189,o),
(282,164,o),
(230,164,cs),
(149,164,o),
(126,168,o),
(66,224,c),
(-10,66,l),
(61,3,o),
(135,-13,o),
(240,-13,cs)
);
}
);
width = 559;
}
);
metricRight = B;
unicode = 439;
},
{
glyphname = F;
kernLeft = KO_H;
kernRight = KO_F;
lastChange = "2025-01-20 07:45:44 +0000";
layers = (
{
anchors = (
{
name = bottom;
pos = (136,0);
},
{
name = center;
pos = (138,179);
},
{
name = top;
pos = (305,675);
}
);
layerId = "3FAB31A8-66C0-4840-B78B-D12B5ED553F3";
shapes = (
{
closed = 1;
nodes = (
(95,0,l),
(143,339,l),
(450,339,l),
(453,361,l),
(146,361,l),
(191,678,l),
(531,678,l),
(534,700,l),
(169,700,l),
(70,0,l)
);
}
);
width = 515.6;
},
{
anchors = (
{
name = bottom;
pos = (234,0);
},
{
name = center;
pos = (134,158);
},
{
name = top;
pos = (331,687);
}
);
layerId = "DF61F520-A841-4152-8991-D5A31692CC39";
shapes = (
{
closed = 1;
nodes = (
(167,0,l),
(210,299,l),
(481,299,l),
(495,401,l),
(224,401,l),
(251,597,l),
(545,597,l),
(559,700,l),
(152,700,l),
(54,0,l)
);
}
);
width = 532;
},
{
anchors = (
{
name = bottom;
pos = (252,0);
},
{
name = center;
pos = (165,124);
},
{
name = top;
pos = (351,700);
}
);
layerId = "0E062E17-1137-409C-98D3-1192050A59FC";
shapes = (
{
closed = 1;
nodes = (
(242,0,l),
(275,238,l),
(517,238,l),
(540,404,l),
(299,404,l),
(315,520,l),
(574,520,l),
(599,700,l),
(130,700,l),
(32,0,l)
);
}
);
width = 546;
}
);
metricLeft = H;
unicode = 70;
userData = {
KernOnName = F;
com.schriftgestaltung.Glyphs.ColorIndex = 3;
com.schriftgestaltung.Glyphs.layer.leftMetricsKey = "==H";
com.schriftgestaltung.Glyphs.leftMetricsKey = H;
};
},
{
glyphname = G;
kernLeft = KO_O;
kernRight = KO_G;
lastChange = "2025-01-20 07:45:44 +0000";
layers = (
{
anchors = (
{
name = bottom;
pos = (273,0);
},
{
name = top;
pos = (383,675);
}
);
background = {
shapes = (
{
closed = 1;
nodes = (
(343,-12,o),
(399,6,o),
(436,36,c),
(478,339,l),
(569,339,l),
(573,361,l),
(352,361,l),
(349,339,l),
(454,339,l),
(413,47,l),
(374,20,o),
(335,10,o),
(285,10,cs),
(173,10,o),
(105,74,o),
(105,214,cs),
(105,315,o),
(125,428,o),
(158,534,cs),
(195,655,o),
(283,690,o),
(373,690,cs),
(437,690,o),
(488,660,o),
(515,622,c),
(528,641,l),
(497,681,o),
(444,712,o),
(373,712,cs),
(239,712,o),
(164,639,o),
(133,534,cs),
(101,439,o),
(81,308,o),
(81,214,cs),
(81,72,o),
(153,-12,o),
(285,-12,cs)
);
}
);
};
layerId = "3FAB31A8-66C0-4840-B78B-D12B5ED553F3";
shapes = (
{
closed = 1;
nodes = (
(343,-12,o),
(399,6,o),
(436,36,c),
(478,339,l),
(569,339,l),
(573,361,l),
(352,361,l),
(349,339,l),
(454,339,l),
(413,47,l),
(374,20,o),
(335,10,o),
(285,10,cs),
(173,10,o),
(105,74,o),
(105,214,cs),
(105,315,o),
(125,428,o),
(158,534,cs),
(195,655,o),
(278,690,o),
(364,690,cs),
(437,690,o),
(494,660,o),
(525,622,c),
(538,641,l),
(503,681,o),
(444,712,o),
(364,712,cs),
(235,712,o),
(164,639,o),
(133,534,cs),
(101,439,o),
(81,308,o),
(81,214,cs),
(81,72,o),
(153,-12,o),
(285,-12,cs)
);
}
);
width = 605;
},
{
anchors = (
{
name = bottom;
pos = (285,0);
},
{
name = top;
pos = (382,687);
}
);
layerId = "DF61F520-A841-4152-8991-D5A31692CC39";
shapes = (
{
closed = 1;
nodes = (
(368,-12,o),
(427,8,o),
(478,41,c),
(512,299,l),
(581,299,l),
(595,401,l),
(349,401,l),
(334,299,l),
(410,299,l),
(383,108,l),
(362,97,o),
(324,91,o),
(288,91,cs),
(208,91,o),
(165,136,o),
(163,201,cs),
(162,271,o),
(181,383,o),
(199,463,cs),
(225,582,o),
(289,609,o),
(379,609,cs),
(436,609,o),
(478,593,o),
(517,560,c),
(561,649,l),
(518,688,o),
(457,712,o),
(382,712,cs),
(244,712,o),
(139,670,o),
(96,498,cs),
(74,411,o),
(55,277,o),
(55,201,cs),
(55,78,o),
(141,-12,o),
(284,-12,cs)
);
}
);
width = 599.2;
},
{
anchors = (
{
name = bottom;
pos = (302,0);
},
{
name = top;
pos = (380,700);
}
);
background = {
shapes = (
{
closed = 1;
nodes = (
(401,-12,o),
(478,14,o),
(516,41,c),
(544,259,l),
(598,259,l),
(622,441,l),
(347,441,l),
(323,259,l),
(382,259,l),
(364,175,l),
(333,173,o),
(315,171,o),
(288,171,cs),
(262,171,o),
(239,197,o),
(241,224,cs),
(243,284,o),
(252,377,o),
(273,439,cs),
(295,501,o),
(314,531,o),
(392,531,cs),
(436,531,o),
(492,512,o),
(526,494,c),
(607,647,l),
(550,688,o),
(481,712,o),
(399,712,cs),
(246,712,o),
(122,662,o),
(75,492,cs),
(50,403,o),
(41,286,o),
(41,224,cs),
(41,87,o),
(136,-12,o),
(298,-12,cs)
);
}
);
};
layerId = "0E062E17-1137-409C-98D3-1192050A59FC";
shapes = (
{
closed = 1;
nodes = (
(407,-12,o),
(453,5,o),
(516,41,c),
(547,281,l),
(601,281,l),
(622,441,l),
(347,441,l),
(326,281,l),
(378,281,l),
(364,173,l),
(357,172,o),
(349,172,o),
(340,172,cs),
(282,172,o),
(248,209,o),
(248,265,cs),
(248,323,o),
(261,398,o),
(277,451,cs),
(291,497,o),
(337,529,o),
(395,529,cs),
(461,529,o),
(496,516,o),
(537,492,c),
(597,653,l),
(540,692,o),
(465,712,o),
(375,712,cs),
(219,712,o),
(117,632,o),
(82,507,cs),
(57,421,o),
(39,331,o),
(39,224,cs),
(39,119,o),
(133,-12,o),
(308,-12,cs)
);
}
);
width = 596.66667;
}
);
metricLeft = O;
unicode = 71;
userData = {
KernOnName = G;
com.schriftgestaltung.Glyphs.ColorIndex = 3;
com.schriftgestaltung.Glyphs.layer.leftMetricsKey = "==O";
com.schriftgestaltung.Glyphs.leftMetricsKey = O;
};
},
{
color = 9;
glyphname = G.ss01;
lastChange = "2025-01-19 15:33:47 +0000";
layers = (
{
anchors = (
{
name = bottom;
pos = (280,0);
},
{
name = top;
pos = (361,675);
}
);
layerId = "3FAB31A8-66C0-4840-B78B-D12B5ED553F3";
shapes = (
{
closed = 1;
nodes = (
(343,-12,o),
(399,6,o),
(436,36,c),
(481,361,l),
(292,361,l),
(289,339,l),
(454,339,l),
(413,47,l),
(374,20,o),
(335,10,o),
(285,10,cs),
(173,10,o),
(105,74,o),
(105,214,cs),
(105,315,o),
(125,428,o),
(158,534,cs),
(195,655,o),
(278,690,o),
(364,690,cs),
(437,690,o),
(494,660,o),
(525,622,c),
(538,641,l),
(503,681,o),
(444,712,o),
(364,712,cs),
(235,712,o),
(164,639,o),
(133,534,cs),
(101,439,o),
(81,308,o),
(81,214,cs),
(81,72,o),
(153,-12,o),
(285,-12,cs)
);
}
);
width = 533;
},
{
anchors = (
{
name = bottom;
pos = (295,0);
},
{
name = top;
pos = (373,687);
}
);
layerId = "DF61F520-A841-4152-8991-D5A31692CC39";
shapes = (
{
closed = 1;
nodes = (
(368,-12,o),
(427,8,o),
(478,41,c),
(525,401,l),
(309,401,l),
(294,299,l),
(410,299,l),
(383,108,l),
(362,97,o),
(324,91,o),
(288,91,cs),
(208,91,o),
(165,136,o),
(163,201,cs),
(162,271,o),
(181,383,o),
(199,463,cs),
(225,582,o),
(289,609,o),
(379,609,cs),
(436,609,o),
(478,593,o),
(517,560,c),
(561,649,l),
(518,688,o),
(457,712,o),
(382,712,cs),
(244,712,o),
(139,670,o),
(96,498,cs),
(74,411,o),
(55,277,o),
(55,201,cs),
(55,78,o),
(141,-12,o),
(284,-12,cs)
);
}
);
width = 558;
},
{
anchors = (
{
name = bottom;
pos = (317,0);
},
{
name = top;
pos = (385,700);
}
);
layerId = "0E062E17-1137-409C-98D3-1192050A59FC";
shapes = (
{
closed = 1;
nodes = (
(407,-12,o),
(453,5,o),
(516,41,c),
(568,441,l),
(327,441,l),
(306,281,l),
(378,281,l),
(364,173,l),
(357,172,o),
(349,172,o),
(340,172,cs),
(282,172,o),
(248,209,o),
(248,265,cs),
(248,323,o),
(261,398,o),
(277,451,cs),
(291,497,o),
(337,529,o),
(395,529,cs),
(461,529,o),
(496,516,o),
(537,492,c),
(597,653,l),
(540,692,o),
(465,712,o),
(375,712,cs),
(219,712,o),
(117,632,o),
(82,507,cs),
(57,421,o),
(39,331,o),
(39,224,cs),
(39,119,o),
(133,-12,o),
(308,-12,cs)
);
}
);
width = 596;
}
);
},
{
glyphname = Gstroke;
lastChange = "2025-01-19 17:48:57 +0000";
layers = (
{
anchors = (
{
name = bottom;
pos = (305,0);
},
{
name = top;
pos = (409,675);
}
);
background = {
anchors = (
{
name = bottom;
pos = (305,0);
},
{
name = top;
pos = (409,646);
}
);
shapes = (
{
closed = 1;
nodes = (
(337,-13,o),
(379,2,o),
(442,41,c),
(483,364,l),
(437,364,l),
(396,42,l),
(382,25,o),
(325,16,o),
(281,16,cs),
(154,16,o),
(96,79,o),
(90,180,cs),
(85,259,o),
(114,389,o),
(130,486,cs),
(159,659,o),
(265,684,o),
(367,684,cs),
(436,684,o),
(465,670,o),
(508,623,c),
(518,650,l),
(488,688,o),
(434,712,o),
(367,712,cs),
(243,712,o),
(156,677,o),
(117,504,cs),
(97,418,o),
(68,268,o),
(68,180,cs),
(68,69,o),
(146,-10,o),
(271,-12,cs)
);
},
{
closed = 1;
nodes = (
(543,190,l),
(548,219,l),
(327,219,l),
(323,190,l)
);
}
);
};
layerId = "3FAB31A8-66C0-4840-B78B-D12B5ED553F3";
shapes = (
{
closed = 1;
nodes = (
(340,-12,o),
(396,6,o),
(433,36,c),
(478,361,l),
(454,361,l),
(410,47,l),
(371,20,o),
(332,10,o),
(282,10,cs),
(170,10,o),
(102,74,o),
(102,214,cs),
(102,315,o),
(122,428,o),
(155,534,cs),
(192,655,o),
(275,690,o),
(361,690,cs),
(434,690,o),
(491,660,o),
(522,622,c),
(535,641,l),
(500,681,o),
(441,712,o),
(361,712,cs),
(232,712,o),
(161,639,o),
(130,534,cs),
(98,439,o),
(78,308,o),
(78,214,cs),
(78,72,o),
(150,-12,o),
(282,-12,cs)
);
},
{
closed = 1;
nodes = (
(544,194,l),
(548,216,l),
(327,216,l),
(324,194,l)
);
}
);
width = 601.6;
},
{
anchors = (
{
name = bottom;
pos = (298,0);
},
{
name = top;
pos = (333,687);
}
);
layerId = "DF61F520-A841-4152-8991-D5A31692CC39";
shapes = (
{
closed = 1;
nodes = (
(368,-12,o),
(427,8,o),
(478,41,c),
(528,401,l),
(426,401,l),
(381,107,l),
(358,97,o),
(320,91,o),
(284,91,cs),
(207,91,o),
(165,136,o),
(163,201,cs),
(162,271,o),
(181,383,o),
(199,463,cs),
(225,582,o),
(289,609,o),
(379,609,cs),
(436,609,o),
(478,593,o),
(517,560,c),
(561,649,l),
(518,688,o),
(457,712,o),
(382,712,cs),
(244,712,o),
(139,670,o),
(96,498,cs),
(74,411,o),
(55,277,o),
(55,201,cs),
(55,78,o),
(141,-13,o),
(284,-12,cs)
);
},
{
closed = 1;
nodes = (
(567,199,l),
(581,302,l),
(334,302,l),
(320,199,l)
);
}
);
width = 599.2;
},
{
anchors = (
{
name = bottom;
pos = (290,0);
},
{
name = top;
pos = (248,700);
}
);
background = {
anchors = (
{
name = bottom;
pos = (290,0);
},
{
name = top;
pos = (251,720);
}
);
shapes = (
{
closed = 1;
nodes = (
(401,-10,o),
(478,14,o),
(516,41,c),
(575,441,l),
(415,441,l),
(364,175,l),
(333,173,o),
(315,171,o),
(288,171,cs),
(262,171,o),
(239,197,o),
(241,224,cs),
(243,284,o),
(252,377,o),
(273,439,cs),
(295,501,o),
(314,531,o),
(392,531,cs),
(436,531,o),
(492,512,o),
(526,494,c),
(607,647,l),
(550,688,o),
(481,712,o),
(399,712,cs),
(246,712,o),
(122,662,o),
(75,492,cs),
(50,403,o),
(41,286,o),
(41,224,cs),
(41,87,o),
(136,-15,o),
(298,-12,cs)
);
},
{
closed = 1;
nodes = (
(592,208,l),
(617,389,l),
(342,389,l),
(318,208,l)
);
}
);
};
layerId = "0E062E17-1137-409C-98D3-1192050A59FC";
shapes = (
{
closed = 1;
nodes = (
(407,-12,o),
(453,5,o),
(516,41,c),
(574,442,l),
(405,442,l),
(364,173,l),
(357,172,o),
(349,172,o),
(340,172,cs),
(282,172,o),
(248,209,o),
(248,265,cs),
(248,323,o),
(261,398,o),
(277,451,cs),
(291,497,o),
(337,529,o),
(395,529,cs),
(461,529,o),
(496,516,o),
(537,492,c),
(597,653,l),
(540,692,o),
(465,712,o),
(375,712,cs),
(219,712,o),
(117,632,o),
(82,507,cs),
(57,421,o),
(39,331,o),
(39,224,cs),
(39,119,o),
(133,-12,o),
(308,-12,cs)
);
},
{
closed = 1;
nodes = (
(591,221,l),
(612,381,l),
(337,381,l),
(316,221,l)
);
}
);
width = 596.66667;
}
);
unicode = 484;
},
{
glyphname = H;
kernLeft = KO_H;
kernRight = KO_H;
lastChange = "2025-01-20 07:45:44 +0000";
layers = (
{
anchors = (
{
name = bottom;
pos = (270,0);
},
{
name = bottomright;
pos = (464,0);
},
{
name = center;
pos = (341,514);
},
{
name = top;
pos = (353,675);
},
{
name = topleft;
pos = (196,700);
}
);
layerId = "3FAB31A8-66C0-4840-B78B-D12B5ED553F3";
shapes = (
{
closed = 1;
nodes = (
(96,0,l),
(143,339,l),
(487,339,l),
(440,0,l),
(464,0,l),
(561,700,l),
(537,700,l),
(490,361,l),
(146,361,l),
(193,700,l),
(169,700,l),
(72,0,l)
);
}
);
width = 604;
},
{
anchors = (
{
name = bottom;
pos = (265,0);
},
{
name = bottomright;
pos = (518,0);
},
{
name = center;
pos = (361,538);
},
{
name = top;
pos = (381,687);
},
{
name = topleft;
pos = (128,700);
}
);
layerId = "DF61F520-A841-4152-8991-D5A31692CC39";
shapes = (
{
closed = 1;
nodes = (
(168,0,l),
(210,299,l),
(446,299,l),
(404,0,l),
(518,0,l),
(616,700,l),
(502,700,l),
(460,401,l),
(224,401,l),
(266,700,l),
(152,700,l),
(54,0,l)
);
}
);
width = 642;
},
{
anchors = (
{
name = bottom;
pos = (303,0);
},
{
name = bottomright;
pos = (572,0);
},
{
name = center;
pos = (380,563);
},
{
name = top;
pos = (402,700);
},
{
name = topleft;
pos = (53,700);
}
);
layerId = "0E062E17-1137-409C-98D3-1192050A59FC";
shapes = (
{
closed = 1;
nodes = (
(242,0,l),
(281,270,l),
(400,270,l),
(362,0,l),
(572,0,l),
(672,700,l),
(462,700,l),
(423,430,l),
(303,430,l),
(342,700,l),
(132,700,l),
(32,0,l)
);
}
);
width = 678;
}
);
unicode = 72;
userData = {
KernOnName = H;
com.schriftgestaltung.Glyphs.ColorIndex = 3;
};
},
{
glyphname = Hbar;
lastChange = "2026-03-11 15:47:28 +0000";
layers = (
{
anchors = (
{
name = _center;
pos = (361,514);
},
{
name = bottom;
pos = (290,0);
},
{
name = bottomright;
pos = (484,0);
},
{
name = center;
pos = (361,514);
},
{
name = top;
pos = (373,675);
},
{
name = topleft;
pos = (216,700);
}
);
layerId = "3FAB31A8-66C0-4840-B78B-D12B5ED553F3";
shapes = (
{
closed = 1;
nodes = (
(116,0,l),
(163,339,l),
(507,339,l),
(460,0,l),
(484,0,l),
(581,700,l),
(557,700,l),
(510,361,l),
(166,361,l),
(213,700,l),
(189,700,l),
(92,0,l)
);
},
{
closed = 1;
nodes = (
(662,508,l),
(665,530,l),
(62,530,l),
(59,508,l)
);
}
);
width = 647;
},
{
anchors = (
{
name = _center;
pos = (386,538);
},
{
name = bottom;
pos = (287,0);
},
{
name = bottomright;
pos = (540,0);
},
{
name = center;
pos = (383,538);
},
{
name = top;
pos = (403,687);
},
{
name = topleft;
pos = (150,700);
}
);
layerId = "DF61F520-A841-4152-8991-D5A31692CC39";
shapes = (
{
closed = 1;
nodes = (
(190,0,l),
(232,299,l),
(468,299,l),
(426,0,l),
(540,0,l),
(638,700,l),
(524,700,l),
(482,401,l),
(246,401,l),
(288,700,l),
(174,700,l),
(76,0,l)
);
},
{
closed = 1;
nodes = (
(717,494,l),
(730,581,l),
(55,581,l),
(42,494,l)
);
}
);
width = 692;
},
{
anchors = (
{
name = _center;
pos = (433,563);
},
{
name = bottom;
pos = (360,0);
},
{
name = bottomright;
pos = (629,0);
},
{
name = center;
pos = (437,563);
},
{
name = top;
pos = (459,700);
},
{
name = topleft;
pos = (110,700);
}
);
layerId = "0E062E17-1137-409C-98D3-1192050A59FC";
shapes = (
{
closed = 1;
nodes = (
(299,0,l),
(338,270,l),
(457,270,l),
(419,0,l),
(629,0,l),
(729,700,l),
(519,700,l),
(480,430,l),
(360,430,l),
(399,700,l),
(189,700,l),
(89,0,l)
);
},
{
closed = 1;
nodes = (
(798,492,l),
(818,636,l),
(67,636,l),
(47,492,l)
);
}
);
width = 779;
}
);
metricLeft = t;
metricRight = "=|t";
unicode = 294;
},
{
color = 4;
glyphname = I;
kernLeft = KO_I;
kernRight = KO_I;
lastChange = "2025-01-20 07:45:44 +0000";
layers = (
{
anchors = (
{
name = bottom;
pos = (170,0);
},
{
name = ogonek;
pos = (323,0);
},
{
name = top;
pos = (260,675);
},
{
name = topleft;
pos = (83,700);
}
);
layerId = "3FAB31A8-66C0-4840-B78B-D12B5ED553F3";
shapes = (
{
closed = 1;
nodes = (
(321,0,l),
(325,22,l),
(184,22,l),
(276,678,l),
(417,678,l),
(420,700,l),
(114,700,l),
(111,678,l),
(252,678,l),
(160,22,l),
(19,22,l),
(15,0,l)
);
}
);
width = 407;
},
{
anchors = (
{
name = bottom;
pos = (181,0);
},
{
name = ogonek;
pos = (346,0);
},
{
name = top;
pos = (278,687);
},
{
name = topleft;
pos = (83,700);
}
);
layerId = "DF61F520-A841-4152-8991-D5A31692CC39";
shapes = (
{
closed = 1;
nodes = (
(346,0,l),
(359,98,l),
(251,98,l),
(322,602,l),
(430,602,l),
(444,700,l),
(113,700,l),
(99,602,l),
(208,602,l),
(137,98,l),
(28,98,l),
(15,0,l)
);
}
);
width = 431;
},
{
anchors = (
{
name = bottom;
pos = (192,0);
},
{
name = ogonek;
pos = (370,0);
},
{
name = top;
pos = (291,700);
},
{
name = topleft;
pos = (83,700);
}
);
layerId = "0E062E17-1137-409C-98D3-1192050A59FC";
shapes = (
{
closed = 1;
nodes = (
(370,0,l),
(392,166,l),
(319,166,l),
(371,534,l),
(444,534,l),
(469,700,l),
(113,700,l),
(88,534,l),
(161,534,l),
(109,166,l),
(36,166,l),
(13,0,l)
);
}
);
width = 456.33333;
}
);
unicode = 73;
userData = {
KernOnName = I;
com.schriftgestaltung.Glyphs.ColorIndex = 3;
};
},
{
color = 9;
glyphname = I.ss01;
kernLeft = KO_H;
kernRight = KO_H;
lastChange = "2025-01-19 15:33:47 +0000";
layers = (
{
anchors = (
{
name = bottom;
pos = (83,0);
},
{
name = ogonek;
pos = (93,0);
},
{
name = top;
pos = (173,675);
},
{
name = topleft;
pos = (209,700);
}
);
layerId = "3FAB31A8-66C0-4840-B78B-D12B5ED553F3";
shapes = (
{
closed = 1;
nodes = (
(93,0,l),
(190,700,l),
(169,700,l),
(72,0,l)
);
}
);
width = 233;
},
{
anchors = (
{
name = bottom;
pos = (111,0);
},
{
name = ogonek;
pos = (167,0);
},
{
name = top;
pos = (208,687);
},
{
name = topleft;
pos = (132,700);
}
);
layerId = "DF61F520-A841-4152-8991-D5A31692CC39";
shapes = (
{
closed = 1;
nodes = (
(167,0,l),
(266,700,l),
(152,700,l),
(54,0,l)
);
}
);
width = 292;
},
{
anchors = (
{
name = bottom;
pos = (137,0);
},
{
name = ogonek;
pos = (243,0);
},
{
name = top;
pos = (237,700);
},
{
name = topleft;
pos = (48,700);
}
);
layerId = "0E062E17-1137-409C-98D3-1192050A59FC";
shapes = (
{
closed = 1;
nodes = (
(243,0,l),
(343,700,l),
(132,700,l),
(32,0,l)
);
}
);
width = 349;
}
);
},
{
glyphname = IJ;
kernLeft = KO_I;
kernRight = KO_J;
lastChange = "2025-01-19 17:48:57 +0000";
layers = (
{
anchors = (
{
name = bottom;
pos = (170,0);
},
{
name = ogonek;
pos = (323,0);
},
{
name = top;
pos = (260,675);
},
{
name = topleft;
pos = (83,700);
}
);
layerId = "3FAB31A8-66C0-4840-B78B-D12B5ED553F3";
shapes = (
{
closed = 1;
nodes = (
(556,-12,o),
(620,33,o),
(637,152,cs),
(714,700,l),
(494,700,l),
(491,678,l),
(687,678,l),
(614,156,ls),
(599,48,o),
(547,10,o),
(468,10,cs),
(446,10,o),
(416,16,o),
(393,33,c),
(391,8,l),
(413,-7,o),
(440,-12,o),
(468,-12,cs)
);
},
{
closed = 1;
nodes = (
(321,0,l),
(325,22,l),
(184,22,l),
(276,678,l),
(417,678,l),
(420,700,l),
(114,700,l),
(111,678,l),
(252,678,l),
(160,22,l),
(19,22,l),
(15,0,l)
);
}
);
width = 748;
},
{
anchors = (
{
name = bottom;
pos = (181,0);
},
{
name = ogonek;
pos = (346,0);
},
{
name = top;
pos = (278,687);
},
{
name = topleft;
pos = (83,700);
}
);
layerId = "DF61F520-A841-4152-8991-D5A31692CC39";
shapes = (
{
closed = 1;
nodes = (
(608,-12,o),
(697,56,o),
(716,190,cs),
(788,700,l),
(502,700,l),
(488,602,l),
(661,602,l),
(605,201,ls),
(594,124,o),
(547,91,o),
(481,91,cs),
(455,91,o),
(433,95,o),
(412,106,c),
(398,0,l),
(417,-8,o),
(448,-12,o),
(483,-12,cs)
);
},
{
closed = 1;
nodes = (
(346,0,l),
(359,98,l),
(251,98,l),
(322,602,l),
(430,602,l),
(444,700,l),
(113,700,l),
(99,602,l),
(208,602,l),
(137,98,l),
(28,98,l),
(15,0,l)
);
}
);
width = 802;
},
{
anchors = (
{
name = bottom;
pos = (192,0);
},
{
name = ogonek;
pos = (370,0);
},
{
name = top;
pos = (291,700);
},
{
name = topleft;
pos = (83,700);
}
);
layerId = "0E062E17-1137-409C-98D3-1192050A59FC";
shapes = (
{
closed = 1;
nodes = (
(689,-12,o),
(808,80,o),
(831,245,cs),
(897,700,l),
(547,700,l),
(523,535,l),
(660,535,l),
(621,249,ls),
(614,200,o),
(571,171,o),
(511,171,cs),
(496,171,o),
(479,174,o),
(468,181,c),
(441,-5,l),
(469,-11,o),
(480,-12,o),
(518,-12,cs)
);
},
{
closed = 1;
nodes = (
(370,0,l),
(392,166,l),
(319,166,l),
(371,534,l),
(444,534,l),
(469,700,l),
(113,700,l),
(88,534,l),
(161,534,l),
(109,166,l),
(36,166,l),
(13,0,l)
);
}
);
width = 881;
}
);
unicode = 306;
},
{
color = 9;
glyphname = IJ.ss01;
kernLeft = KO_H;
lastChange = "2025-01-20 07:45:42 +0000";
layers = (
{
anchors = (
{
name = bottom;
pos = (83,0);
},
{
name = ogonek;
pos = (93,0);
},
{
name = top;
pos = (173,675);
},
{
name = topleft;
pos = (209,700);
}
);
layerId = "3FAB31A8-66C0-4840-B78B-D12B5ED553F3";
shapes = (
{
closed = 1;
nodes = (
(329,-12,o),
(393,33,o),
(410,152,cs),
(487,700,l),
(463,700,l),
(387,156,ls),
(372,48,o),
(320,10,o),
(241,10,cs),
(219,10,o),
(189,16,o),
(166,33,c),
(164,8,l),
(186,-7,o),
(213,-12,o),
(241,-12,cs)
);
},
{
closed = 1;
nodes = (
(93,0,l),
(190,700,l),
(169,700,l),
(72,0,l)
);
}
);
width = 521;
},
{
anchors = (
{
name = bottom;
pos = (111,0);
},
{
name = ogonek;
pos = (167,0);
},
{
name = top;
pos = (208,687);
},
{
name = topleft;
pos = (132,700);
}
);
layerId = "DF61F520-A841-4152-8991-D5A31692CC39";
shapes = (
{
closed = 1;
nodes = (
(470,-12,o),
(559,56,o),
(578,190,cs),
(650,700,l),
(537,700,l),
(467,201,ls),
(456,124,o),
(409,91,o),
(343,91,cs),
(313,91,o),
(287,96,o),
(263,111,c),
(249,5,l),
(271,-6,o),
(305,-12,o),
(345,-12,cs)
);
},
{
closed = 1;
nodes = (
(167,0,l),
(266,700,l),
(152,700,l),
(54,0,l)
);
}
);
width = 664;
},
{
anchors = (
{
name = bottom;
pos = (137,0);
},
{
name = ogonek;
pos = (243,0);
},
{
name = top;
pos = (237,700);
},
{
name = topleft;
pos = (48,700);
}
);
layerId = "0E062E17-1137-409C-98D3-1192050A59FC";
shapes = (
{
closed = 1;
nodes = (
(567,-12,o),
(685,80,o),
(709,245,cs),
(775,700,l),
(563,700,l),
(499,249,ls),
(492,200,o),
(458,171,o),
(410,171,cs),
(371,171,o),
(363,174,o),
(346,181,c),
(319,-5,l),
(347,-11,o),
(358,-12,o),
(396,-12,cs)
);
},
{
closed = 1;
nodes = (
(243,0,l),
(343,700,l),
(132,700,l),
(32,0,l)
);
}
);
width = 759;
}
);
},
{
glyphname = J;
kernLeft = KO_J;
kernRight = KO_J;
lastChange = "2025-01-20 07:45:44 +0000";
layers = (
{
anchors = (
{
name = bottom;
pos = (114,0);
},
{
name = top;
pos = (297,675);
}
);
background = {
shapes = (
{
closed = 1;
nodes = (
(151,-12,o),
(210,33,o),
(226,137,cs),
(304,700,l),
(109,700,l),
(104,664,l),
(280,664,l),
(209,156,ls),
(194,52,o),
(141,16,o),
(67,16,cs),
(31,16,o),
(-49,30,o),
(-85,87,c),
(-82,60,l),
(-53,12,o),
(33,-12,o),
(69,-12,cs)
);
}
);
};
layerId = "3FAB31A8-66C0-4840-B78B-D12B5ED553F3";
shapes = (
{
closed = 1;
nodes = (
(157,-12,o),
(217,25,o),
(230,118,cs),
(314,700,l),
(114,700,l),
(111,678,l),
(287,678,l),
(206,121,ls),
(195,42,o),
(147,10,o),
(83,10,cs),
(37,10,o),
(-5,31,o),
(-21,51,c),
(-29,30,l),
(-12,11,o),
(31,-12,o),
(80,-12,cs)
);
}
);
width = 355;
},
{
anchors = (
{
name = bottom;
pos = (152,0);
},
{
name = top;
pos = (349,687);
}
);
layerId = "DF61F520-A841-4152-8991-D5A31692CC39";
shapes = (
{
closed = 1;
nodes = (
(252,-12,o),
(326,50,o),
(342,160,cs),
(418,700,l),
(153,700,l),
(139,601,l),
(291,601,l),
(231,178,ls),
(224,121,o),
(189,91,o),
(139,91,cs),
(103,91,o),
(66,102,o),
(38,131,c),
(0,41,l),
(35,7,o),
(89,-12,o),
(142,-12,cs)
);
}
);
width = 444;
},
{
anchors = (
{
name = bottom;
pos = (115,0);
},
{
name = top;
pos = (361,700);
}
);
layerId = "0E062E17-1137-409C-98D3-1192050A59FC";
shapes = (
{
closed = 1;
nodes = (
(272,-12,o),
(367,63,o),
(385,191,cs),
(458,700,l),
(122,700,l),
(99,534,l),
(225,534,l),
(179,221,ls),
(174,190,o),
(153,171,o),
(126,171,cs),
(97,171,o),
(80,178,o),
(61,194,c),
(-24,33,l),
(17,4,o),
(60,-12,o),
(136,-12,cs)
);
}
);
width = 464;
}
);
metricRight = H;
unicode = 74;
userData = {
KernOnName = J;
com.schriftgestaltung.Glyphs.ColorIndex = 3;
com.schriftgestaltung.Glyphs.layer.rightMetricsKey = "==H";
com.schriftgestaltung.Glyphs.rightMetricsKey = H;
com.typemytype.robofont.layerData = {
background = {
anchors = (
);
components = (
);
contours = (
{
points = (
{
segmentType = line;
smooth = 0;
x = 455;
y = 700;
},
{
segmentType = line;
smooth = 0;
x = 313;
y = 700;
},
{
segmentType = line;
smooth = 0;
x = 313;
y = 190;
},
{
smooth = 0;
x = 313;
y = 157;
},
{
smooth = 0;
x = 305;
y = 116;
},
{
segmentType = curve;
smooth = 1;
x = 254;
y = 116;
},
{
smooth = 0;
x = 209;
y = 116;
},
{
smooth = 0;
x = 185;
y = 123;
},
{
segmentType = curve;
smooth = 0;
x = 153;
y = 139;
},
{
segmentType = line;
smooth = 0;
x = 127;
y = 19;
},
{
smooth = 0;
x = 162;
y = -1;
},
{
smooth = 0;
x = 210;
y = -12;
},
{
segmentType = curve;
smooth = 1;
x = 254;
y = -12;
},
{
smooth = 0;
x = 425;
y = -12;
},
{
smooth = 0;
x = 455;
y = 97;
},
{
segmentType = curve;
smooth = 0;
x = 455;
y = 190;
}
);
}
);
lib = {
};
name = J;
unicodes = (
);
width = 447;
};
};
};
},
{
color = 9;
glyphname = J.ss01;
lastChange = "2025-01-19 15:33:47 +0000";
layers = (
{
anchors = (
{
name = bottom;
pos = (93,0);
},
{
name = top;
pos = (301,675);
}
);
layerId = "3FAB31A8-66C0-4840-B78B-D12B5ED553F3";
shapes = (
{
closed = 1;
nodes = (
(157,-12,o),
(217,25,o),
(230,118,cs),
(314,700,l),
(290,700,l),
(206,121,ls),
(195,42,o),
(147,10,o),
(83,10,cs),
(37,10,o),
(-5,31,o),
(-21,51,c),
(-29,30,l),
(-12,11,o),
(31,-12,o),
(80,-12,cs)
);
}
);
width = 348;
},
{
anchors = (
{
name = bottom;
pos = (102,0);
},
{
name = top;
pos = (362,687);
}
);
layerId = "DF61F520-A841-4152-8991-D5A31692CC39";
shapes = (
{
closed = 1;
nodes = (
(252,-12,o),
(326,50,o),
(342,160,cs),
(418,700,l),
(305,700,l),
(231,178,ls),
(224,121,o),
(189,91,o),
(139,91,cs),
(103,91,o),
(66,102,o),
(38,131,c),
(0,41,l),
(35,7,o),
(89,-12,o),
(142,-12,cs)
);
}
);
width = 432;
},
{
anchors = (
{
name = bottom;
pos = (112,0);
},
{
name = top;
pos = (352,700);
}
);
layerId = "0E062E17-1137-409C-98D3-1192050A59FC";
shapes = (
{
closed = 1;
nodes = (
(272,-12,o),
(367,63,o),
(385,191,cs),
(458,700,l),
(248,700,l),
(179,221,ls),
(175,190,o),
(153,171,o),
(126,171,cs),
(97,171,o),
(80,178,o),
(61,194,c),
(-24,33,l),
(17,4,o),
(60,-12,o),
(136,-12,cs)
);
}
);
width = 442;
}
);
},
{
glyphname = K;
kernLeft = KO_H;
kernRight = KO_K;
lastChange = "2025-01-19 17:48:57 +0000";
layers = (
{
anchors = (
{
name = bottom;
pos = (213,0);
},
{
name = top;
pos = (303,675);
}
);
layerId = "3FAB31A8-66C0-4840-B78B-D12B5ED553F3";
shapes = (
{
closed = 1;
nodes = (
(96,0,l),
(143,340,l),
(274,340,l),
(424,0,l),
(450,0,l),
(296,350,l),
(542,700,l),
(513,700,l),
(275,362,l),
(146,362,l),
(193,700,l),
(169,700,l),
(72,0,l)
);
}
);
width = 520;
},
{
anchors = (
{
name = bottom;
pos = (251,0);
},
{
name = top;
pos = (348,687);
}
);
layerId = "DF61F520-A841-4152-8991-D5A31692CC39";
shapes = (
{
closed = 1;
nodes = (
(165,0,l),
(208,302,l),
(292,302,l),
(393,0,l),
(512,0,l),
(390,352,l),
(613,700,l),
(489,700,l),
(296,399,l),
(221,399,l),
(264,700,l),
(152,700,l),
(54,0,l)
);
}
);
width = 576;
},
{
anchors = (
{
name = bottom;
pos = (289,0);
},
{
name = top;
pos = (389,700);
}
);
layerId = "0E062E17-1137-409C-98D3-1192050A59FC";
shapes = (
{
closed = 1;
nodes = (
(237,0,l),
(275,266,l),
(303,266,l),
(364,0,l),
(576,0,l),
(482,335,l),
(682,700,l),
(461,700,l),
(328,433,l),
(300,433,l),
(337,700,l),
(132,700,l),
(32,0,l)
);
}
);
width = 630;
}
);
metricLeft = H;
unicode = 75;
userData = {
com.schriftgestaltung.Glyphs.ColorIndex = 3;
com.schriftgestaltung.Glyphs.layer.leftMetricsKey = "==H";
com.schriftgestaltung.Glyphs.leftMetricsKey = H;
};
},
{
glyphname = L;
kernLeft = KO_H;
kernRight = KO_L;
lastChange = "2026-03-11 15:47:28 +0000";
layers = (
{
anchors = (
{
name = bottom;
pos = (241,0);
},
{
name = center;
pos = (143,366);
},
{
name = top;
pos = (176,675);
},
{
name = topright;
pos = (406,700);
}
);
layerId = "3FAB31A8-66C0-4840-B78B-D12B5ED553F3";
shapes = (
{
closed = 1;
nodes = (
(387,0,l),
(391,22,l),
(98,22,l),
(193,700,l),
(169,700,l),
(70,0,l)
);
}
);
width = 444;
},
{
anchors = (
{
name = bottom;
pos = (221,0);
},
{
name = center;
pos = (165,371);
},
{
name = top;
pos = (205,687);
},
{
name = topright;
pos = (400,700);
}
);
layerId = "DF61F520-A841-4152-8991-D5A31692CC39";
shapes = (
{
closed = 1;
nodes = (
(394,0,l),
(409,103,l),
(182,103,l),
(266,700,l),
(152,700,l),
(54,0,l)
);
}
);
width = 456;
},
{
anchors = (
{
name = bottom;
pos = (215,0);
},
{
name = center;
pos = (187,376);
},
{
name = top;
pos = (237,700);
},
{
name = topright;
pos = (404,700);
}
);
layerId = "0E062E17-1137-409C-98D3-1192050A59FC";
shapes = (
{
closed = 1;
nodes = (
(401,0,l),
(427,180,l),
(268,180,l),
(342,700,l),
(132,700,l),
(32,0,l)
);
}
);
width = 451;
}
);
metricLeft = H;
metricRight = T;
unicode = 76;
userData = {
KernOnName = L;
com.schriftgestaltung.Glyphs.ColorIndex = 3;
com.schriftgestaltung.Glyphs.layer.leftMetricsKey = "==H";
com.schriftgestaltung.Glyphs.leftMetricsKey = H;
};
},
{
glyphname = Ldot;
lastChange = "2025-01-20 06:16:01 +0000";
layers = (
{
anchors = (
{
name = bottom;
pos = (241,0);
},
{
name = center;
pos = (143,366);
},
{
name = top;
pos = (176,675);
},
{
name = topright;
pos = (406,700);
}
);
layerId = "3FAB31A8-66C0-4840-B78B-D12B5ED553F3";
shapes = (
{
closed = 1;
nodes = (
(387,0,l),
(391,22,l),
(98,22,l),
(193,700,l),
(169,700,l),
(70,0,l)
);
},
{
closed = 1;
nodes = (
(359,251,l),
(373,351,l),
(350,351,l),
(336,251,l)
);
}
);
width = 458;
},
{
anchors = (
{
name = bottom;
pos = (214,0);
},
{
name = center;
pos = (158,371);
},
{
name = top;
pos = (198,687);
},
{
name = topright;
pos = (393,700);
}
);
layerId = "DF61F520-A841-4152-8991-D5A31692CC39";
shapes = (
{
closed = 1;
nodes = (
(387,0,l),
(402,103,l),
(175,103,l),
(259,700,l),
(145,700,l),
(47,0,l)
);
},
{
closed = 1;
nodes = (
(424,251,l),
(440,371,l),
(326,371,l),
(310,251,l)
);
}
);
width = 449;
},
{
anchors = (
{
name = bottom;
pos = (203,0);
},
{
name = center;
pos = (175,376);
},
{
name = top;
pos = (225,700);
},
{
name = topright;
pos = (392,700);
}
);
layerId = "0E062E17-1137-409C-98D3-1192050A59FC";
shapes = (
{
closed = 1;
nodes = (
(389,0,l),
(415,180,l),
(256,180,l),
(330,700,l),
(120,700,l),
(20,0,l)
);
},
{
closed = 1;
nodes = (
(481,251,l),
(505,421,l),
(360,421,l),
(336,251,l)
);
}
);
width = 439;
}
);
unicode = 319;
},
{
glyphname = Lj;
lastChange = "2026-02-06 13:05:09 +0000";
layers = (
{
anchors = (
{
name = bottom;
pos = (444,-250);
},
{
name = center;
pos = (143,366);
},
{
name = top;
pos = (585,655);
},
{
name = topright;
pos = (406,700);
}
);
layerId = "3FAB31A8-66C0-4840-B78B-D12B5ED553F3";
shapes = (
{
closed = 1;
nodes = (
(387,0,l),
(391,22,l),
(98,22,l),
(193,700,l),
(169,700,l),
(70,0,l)
);
},
{
closed = 1;
nodes = (
(438,-180,o),
(488,-121,o),
(503,-15,cs),
(575,492,l),
(495,492,l),
(492,470,l),
(548,470,l),
(480,-12,ls),
(467,-105,o),
(429,-162,o),
(335,-203,c),
(344,-220,l)
);
},
{
closed = 1;
nodes = (
(591,612,l),
(604,700,l),
(580,700,l),
(567,612,l)
);
}
);
width = 629;
},
{
anchors = (
{
name = bottom;
pos = (508,-250);
},
{
name = center;
pos = (165,371);
},
{
name = top;
pos = (657,700);
},
{
name = topright;
pos = (400,700);
}
);
layerId = "DF61F520-A841-4152-8991-D5A31692CC39";
shapes = (
{
closed = 1;
nodes = (
(394,0,l),
(409,103,l),
(182,103,l),
(266,700,l),
(152,700,l),
(54,0,l)
);
},
{
closed = 1;
nodes = (
(506,-200,o),
(595,-135,o),
(615,6,cs),
(686,504,l),
(499,504,l),
(487,413,l),
(565,413,l),
(508,9,ls),
(497,-69,o),
(446,-112,o),
(383,-128,c),
(406,-223,l)
);
},
{
closed = 1;
nodes = (
(696,592,l),
(711,700,l),
(603,700,l),
(588,592,l)
);
}
);
width = 729;
},
{
anchors = (
{
name = bottom;
pos = (551,-250);
},
{
name = center;
pos = (187,376);
},
{
name = top;
pos = (686,700);
},
{
name = topright;
pos = (404,700);
}
);
layerId = "0E062E17-1137-409C-98D3-1192050A59FC";
shapes = (
{
closed = 1;
nodes = (
(401,0,l),
(427,180,l),
(268,180,l),
(342,700,l),
(132,700,l),
(32,0,l)
);
},
{
closed = 1;
nodes = (
(525,-228,o),
(664,-167,o),
(686,-12,cs),
(761,517,l),
(496,517,l),
(474,357,l),
(547,357,l),
(498,15,ls),
(492,-27,o),
(453,-51,o),
(397,-48,c),
(420,-221,l)
);
},
{
closed = 1;
nodes = (
(765,567,l),
(784,700,l),
(588,700,l),
(569,567,l)
);
}
);
width = 781;
}
);
unicode = 456;
},
{
color = 9;
glyphname = Lj.ss01;
lastChange = "2026-02-13 11:26:56 +0000";
layers = (
{
anchors = (
{
name = bottom;
pos = (458,-250);
},
{
name = center;
pos = (143,366);
},
{
name = top;
pos = (590,655);
},
{
name = topright;
pos = (406,700);
}
);
layerId = "3FAB31A8-66C0-4840-B78B-D12B5ED553F3";
shapes = (
{
closed = 1;
nodes = (
(387,0,l),
(391,22,l),
(98,22,l),
(193,700,l),
(169,700,l),
(70,0,l)
);
},
{
closed = 1;
nodes = (
(443,-180,o),
(493,-121,o),
(508,-15,cs),
(580,492,l),
(556,492,l),
(485,-12,l),
(472,-105,o),
(434,-162,o),
(340,-203,c),
(349,-220,l)
);
},
{
closed = 1;
nodes = (
(596,612,l),
(609,700,l),
(585,700,l),
(572,612,l)
);
}
);
width = 634;
},
{
anchors = (
{
name = bottom;
pos = (499,-250);
},
{
name = center;
pos = (165,371);
},
{
name = top;
pos = (648,700);
},
{
name = topright;
pos = (400,700);
}
);
layerId = "DF61F520-A841-4152-8991-D5A31692CC39";
shapes = (
{
closed = 1;
nodes = (
(394,0,l),
(409,103,l),
(182,103,l),
(266,700,l),
(152,700,l),
(54,0,l)
);
},
{
closed = 1;
nodes = (
(491,-200,o),
(580,-135,o),
(600,6,cs),
(671,504,l),
(562,504,l),
(493,9,l),
(482,-69,o),
(431,-112,o),
(368,-128,c),
(391,-223,l)
);
},
{
closed = 1;
nodes = (
(687,592,l),
(702,700,l),
(594,700,l),
(579,592,l)
);
}
);
width = 714;
},
{
anchors = (
{
name = bottom;
pos = (536,-250);
},
{
name = center;
pos = (187,376);
},
{
name = top;
pos = (671,700);
},
{
name = topright;
pos = (404,700);
}
);
layerId = "0E062E17-1137-409C-98D3-1192050A59FC";
shapes = (
{
closed = 1;
nodes = (
(401,0,l),
(427,180,l),
(268,180,l),
(342,700,l),
(132,700,l),
(32,0,l)
);
},
{
closed = 1;
nodes = (
(516,-222,o),
(650,-164,o),
(677,28,cs),
(745,517,l),
(549,517,l),
(480,28,l),
(474,-16,o),
(446,-43,o),
(409,-49,c),
(427,-222,l)
);
},
{
closed = 1;
nodes = (
(750,567,l),
(769,700,l),
(573,700,l),
(554,567,l)
);
}
);
width = 765;
}
);
},
{
color = 4;
glyphname = Lslash;
lastChange = "2026-03-11 15:47:28 +0000";
layers = (
{
anchors = (
{
name = bottom;
pos = (247,0);
},
{
name = center;
pos = (149,366);
},
{
name = top;
pos = (182,675);
},
{
name = topright;
pos = (412,700);
}
);
layerId = "3FAB31A8-66C0-4840-B78B-D12B5ED553F3";
shapes = (
{
closed = 1;
nodes = (
(393,0,l),
(397,22,l),
(104,22,l),
(151,356,l),
(337,472,l),
(342,496,l),
(154,378,l),
(199,700,l),
(175,700,l),
(127,362,l),
(30,301,l),
(28,279,l),
(124,339,l),
(76,0,l)
);
}
);
width = 450;
},
{
anchors = (
{
name = bottom;
pos = (215,0);
},
{
name = center;
pos = (159,371);
},
{
name = top;
pos = (199,687);
},
{
name = topright;
pos = (394,700);
}
);
layerId = "DF61F520-A841-4152-8991-D5A31692CC39";
shapes = (
{
closed = 1;
nodes = (
(388,0,l),
(403,103,l),
(176,103,l),
(212,361,l),
(368,459,l),
(382,559,l),
(226,461,l),
(260,700,l),
(146,700,l),
(102,383,l),
(19,331,l),
(5,231,l),
(88,283,l),
(48,0,l)
);
}
);
width = 450;
},
{
anchors = (
{
name = bottom;
pos = (230,0);
},
{
name = center;
pos = (202,376);
},
{
name = top;
pos = (252,700);
},
{
name = topright;
pos = (419,700);
}
);
layerId = "0E062E17-1137-409C-98D3-1192050A59FC";
shapes = (
{
closed = 1;
nodes = (
(416,0,l),
(442,180,l),
(283,180,l),
(311,374,l),
(421,444,l),
(445,626,l),
(337,558,l),
(357,700,l),
(147,700,l),
(106,412,l),
(29,363,l),
(3,180,l),
(80,228,l),
(47,0,l)
);
}
);
width = 466;
}
);
metricLeft = t;
metricRight = L;
unicode = 321;
},
{
glyphname = M;
kernLeft = KO_H;
kernRight = KO_H;
lastChange = "2025-01-19 17:48:57 +0000";
layers = (
{
anchors = (
{
name = bottom;
pos = (300,0);
},
{
name = bottomright;
pos = (526,0);
},
{
name = top;
pos = (380,675);
}
);
background = {
shapes = (
{
closed = 1;
nodes = (
(94,0,l),
(178,589,l),
(178,641,ls),
(178,650,o),
(187,652,o),
(190,643,cs),
(328,294,l),
(352,294,l),
(589,643,ls),
(594,650,o),
(602,647,o),
(599,638,cs),
(585,589,l),
(502,0,l),
(526,0,l),
(625,700,l),
(601,700,l),
(349,326,ls),
(344,319,o),
(340,321,o),
(337,328,cs),
(191,700,l),
(169,700,l),
(70,0,l)
);
}
);
};
layerId = "3FAB31A8-66C0-4840-B78B-D12B5ED553F3";
shapes = (
{
closed = 1;
nodes = (
(94,0,l),
(178,589,l),
(178,641,ls),
(178,650,o),
(186,652,o),
(190,643,cs),
(329,294,l),
(353,294,l),
(588,639,ls),
(593,646,o),
(601,643,o),
(598,634,cs),
(584,585,l),
(502,0,l),
(526,0,l),
(625,700,l),
(601,700,l),
(350,330,ls),
(345,323,o),
(341,325,o),
(338,332,cs),
(193,700,l),
(169,700,l),
(70,0,l)
);
}
);
width = 666;
},
{
anchors = (
{
name = bottom;
pos = (311,0);
},
{
name = bottomright;
pos = (566,0);
},
{
name = top;
pos = (403,687);
}
);
layerId = "DF61F520-A841-4152-8991-D5A31692CC39";
shapes = (
{
closed = 1;
nodes = (
(162,0,l),
(213,367,l),
(215,463,ls),
(216,476,o),
(227,479,o),
(231,468,cs),
(319,251,l),
(369,251,l),
(521,466,ls),
(528,477,o),
(540,474,o),
(536,461,cs),
(508,360,l),
(458,0,l),
(566,0,l),
(664,700,l),
(569,700,l),
(377,416,ls),
(369,404,o),
(358,404,o),
(354,415,cs),
(245,700,l),
(152,700,l),
(54,0,l)
);
}
);
width = 690;
},
{
anchors = (
{
name = bottom;
pos = (348,0);
},
{
name = bottomright;
pos = (649,0);
},
{
name = top;
pos = (428,700);
}
);
background = {
shapes = (
{
closed = 1;
nodes = (
(242,0,l),
(270,199,l),
(254,360,ls),
(253,371,o),
(268,377,o),
(273,368,c),
(341,195,l),
(394,195,l),
(510,368,l),
(519,377,o),
(532,371,o),
(527,360,cs),
(467,199,l),
(439,0,l),
(649,0,l),
(747,700,l),
(547,700,l),
(420,495,ls),
(414,484,o),
(404,484,o),
(400,495,cs),
(330,700,l),
(130,700,l),
(32,0,l)
);
},
{
closed = 1;
nodes = (
(231,0,l),
(254,163,l),
(265,361,ls),
(266,371,o),
(282,375,o),
(285,362,cs),
(321,204,l),
(371,204,l),
(457,364,ls),
(464,377,o),
(479,370,o),
(476,357,cs),
(424,155,l),
(402,0,l),
(602,0,l),
(701,700,l),
(519,700,l),
(399,503,ls),
(393,493,o),
(384,490,o),
(380,501,cs),
(315,700,l),
(131,700,l),
(31,0,l)
);
}
);
};
layerId = "0E062E17-1137-409C-98D3-1192050A59FC";
shapes = (
{
closed = 1;
nodes = (
(232,0,l),
(260,199,l),
(254,362,ls),
(254,375,o),
(269,378,o),
(273,366,cs),
(338,195,l),
(391,195,l),
(509,368,ls),
(516,379,o),
(530,371,o),
(527,360,cs),
(477,199,l),
(449,0,l),
(649,0,l),
(747,700,l),
(536,700,l),
(409,495,ls),
(402,484,o),
(393,484,o),
(389,495,cs),
(319,700,l),
(130,700,l),
(32,0,l)
);
}
);
width = 753;
}
);
metricLeft = H;
metricRight = H;
unicode = 77;
userData = {
com.schriftgestaltung.Glyphs.ColorIndex = 3;
com.schriftgestaltung.Glyphs.layer.leftMetricsKey = "==H";
com.schriftgestaltung.Glyphs.layer.rightMetricsKey = "==H";
com.schriftgestaltung.Glyphs.leftMetricsKey = H;
com.schriftgestaltung.Glyphs.rightMetricsKey = H;
};
},
{
glyphname = N;
kernLeft = KO_H;
kernRight = KO_H;
lastChange = "2025-01-19 17:48:57 +0000";
layers = (
{
anchors = (
{
name = bottom;
pos = (271,0);
},
{
name = part.hook;
pos = (70,0);
},
{
name = top;
pos = (369,675);
}
);
layerId = "3FAB31A8-66C0-4840-B78B-D12B5ED553F3";
shapes = (
{
closed = 1;
nodes = (
(94,0,l),
(177,586,l),
(178,640,ls),
(178,648,o),
(189,650,o),
(192,643,cs),
(445,0,l),
(467,0,l),
(566,700,l),
(542,700,l),
(460,120,l),
(460,60,ls),
(460,51,o),
(450,49,o),
(447,56,cs),
(193,700,l),
(169,700,l),
(70,0,l)
);
}
);
width = 607;
},
{
anchors = (
{
name = bottom;
pos = (287,0);
},
{
name = part.hook;
pos = (54,0);
},
{
name = top;
pos = (383,687);
}
);
layerId = "DF61F520-A841-4152-8991-D5A31692CC39";
shapes = (
{
closed = 1;
nodes = (
(162,0,l),
(210,348,l),
(215,461,ls),
(215,476,o),
(227,480,o),
(232,467,cs),
(419,0,l),
(519,0,l),
(618,700,l),
(510,700,l),
(458,327,l),
(456,219,ls),
(456,203,o),
(444,202,o),
(440,212,cs),
(245,700,l),
(152,700,l),
(54,0,l)
);
}
);
width = 644;
},
{
anchors = (
{
name = bottom;
pos = (301,0);
},
{
name = part.hook;
pos = (32,0);
},
{
name = top;
pos = (400,700);
}
);
background = {
anchors = (
{
name = bottom;
pos = (311,0);
},
{
name = top;
pos = (409,700);
}
);
shapes = (
{
closed = 1;
nodes = (
(233,0,l),
(264,224,l),
(263,321,ls),
(263,334,o),
(278,341,o),
(282,329,cs),
(391,0,l),
(581,0,l),
(679,700,l),
(479,700,l),
(450,493,l),
(453,397,ls),
(454,381,o),
(438,375,o),
(433,391,cs),
(331,700,l),
(131,700,l),
(33,0,l)
);
}
);
};
layerId = "0E062E17-1137-409C-98D3-1192050A59FC";
shapes = (
{
closed = 1;
nodes = (
(241,0,l),
(267,176,l),
(263,337,ls),
(263,348,o),
(276,351,o),
(280,341,cs),
(411,0,l),
(570,0,l),
(670,700,l),
(473,700,l),
(449,525,l),
(448,377,ls),
(448,369,o),
(436,366,o),
(432,376,cs),
(298,700,l),
(132,700,l),
(32,0,l)
);
}
);
width = 676;
}
);
metricLeft = H;
metricRight = H;
unicode = 78;
userData = {
com.schriftgestaltung.Glyphs.ColorIndex = 3;
com.schriftgestaltung.Glyphs.layer.leftMetricsKey = "==H";
com.schriftgestaltung.Glyphs.layer.rightMetricsKey = "==H";
com.schriftgestaltung.Glyphs.leftMetricsKey = H;
com.schriftgestaltung.Glyphs.rightMetricsKey = H;
};
},
{
glyphname = Nj;
lastChange = "2026-02-06 13:05:17 +0000";
layers = (
{
anchors = (
{
name = bottom;
pos = (617,-250);
},
{
name = part.hook;
pos = (70,0);
},
{
name = top;
pos = (758,655);
}
);
layerId = "3FAB31A8-66C0-4840-B78B-D12B5ED553F3";
shapes = (
{
closed = 1;
nodes = (
(94,0,l),
(177,586,l),
(178,640,ls),
(178,648,o),
(189,650,o),
(192,643,cs),
(445,0,l),
(467,0,l),
(566,700,l),
(542,700,l),
(460,120,l),
(460,60,ls),
(460,51,o),
(450,49,o),
(447,56,cs),
(193,700,l),
(169,700,l),
(70,0,l)
);
},
{
closed = 1;
nodes = (
(611,-180,o),
(661,-121,o),
(676,-15,cs),
(748,492,l),
(668,492,l),
(665,470,l),
(721,470,l),
(653,-12,ls),
(640,-105,o),
(602,-162,o),
(508,-203,c),
(517,-220,l)
);
},
{
closed = 1;
nodes = (
(764,612,l),
(777,700,l),
(753,700,l),
(740,612,l)
);
}
);
width = 802;
},
{
anchors = (
{
name = bottom;
pos = (706,-250);
},
{
name = part.hook;
pos = (54,0);
},
{
name = top;
pos = (855,700);
}
);
layerId = "DF61F520-A841-4152-8991-D5A31692CC39";
shapes = (
{
closed = 1;
nodes = (
(162,0,l),
(210,348,l),
(215,461,ls),
(215,476,o),
(227,480,o),
(232,467,cs),
(419,0,l),
(519,0,l),
(618,700,l),
(510,700,l),
(458,327,l),
(456,219,ls),
(456,203,o),
(444,202,o),
(440,212,cs),
(245,700,l),
(152,700,l),
(54,0,l)
);
},
{
closed = 1;
nodes = (
(704,-200,o),
(793,-135,o),
(813,6,cs),
(884,504,l),
(697,504,l),
(685,413,l),
(763,413,l),
(706,9,ls),
(695,-69,o),
(644,-112,o),
(581,-128,c),
(604,-223,l)
);
},
{
closed = 1;
nodes = (
(894,592,l),
(909,700,l),
(801,700,l),
(786,592,l)
);
}
);
width = 927;
},
{
anchors = (
{
name = bottom;
pos = (778,-250);
},
{
name = part.hook;
pos = (32,0);
},
{
name = top;
pos = (913,700);
}
);
layerId = "0E062E17-1137-409C-98D3-1192050A59FC";
shapes = (
{
closed = 1;
nodes = (
(241,0,l),
(267,176,l),
(263,337,ls),
(263,348,o),
(276,351,o),
(280,341,cs),
(411,0,l),
(570,0,l),
(670,700,l),
(473,700,l),
(449,525,l),
(448,377,ls),
(448,369,o),
(436,366,o),
(432,376,cs),
(298,700,l),
(132,700,l),
(32,0,l)
);
},
{
closed = 1;
nodes = (
(752,-228,o),
(891,-167,o),
(913,-12,cs),
(988,517,l),
(723,517,l),
(701,357,l),
(774,357,l),
(725,15,ls),
(719,-27,o),
(680,-51,o),
(624,-48,c),
(647,-221,l)
);
},
{
closed = 1;
nodes = (
(992,567,l),
(1011,700,l),
(815,700,l),
(796,567,l)
);
}
);
width = 1008;
}
);
unicode = 459;
},
{
color = 9;
glyphname = Nj.ss01;
lastChange = "2026-02-13 11:48:46 +0000";
layers = (
{
anchors = (
{
name = bottom;
pos = (631,-250);
},
{
name = part.hook;
pos = (70,0);
},
{
name = top;
pos = (763,655);
}
);
layerId = "3FAB31A8-66C0-4840-B78B-D12B5ED553F3";
shapes = (
{
closed = 1;
nodes = (
(94,0,l),
(177,586,l),
(178,640,ls),
(178,648,o),
(189,650,o),
(192,643,cs),
(445,0,l),
(467,0,l),
(566,700,l),
(542,700,l),
(460,120,l),
(460,60,ls),
(460,51,o),
(450,49,o),
(447,56,cs),
(193,700,l),
(169,700,l),
(70,0,l)
);
},
{
closed = 1;
nodes = (
(616,-180,o),
(666,-121,o),
(681,-15,cs),
(753,492,l),
(729,492,l),
(658,-12,l),
(645,-105,o),
(607,-162,o),
(513,-203,c),
(522,-220,l)
);
},
{
closed = 1;
nodes = (
(769,612,l),
(782,700,l),
(758,700,l),
(745,612,l)
);
}
);
width = 807;
},
{
anchors = (
{
name = bottom;
pos = (697,-250);
},
{
name = part.hook;
pos = (54,0);
},
{
name = top;
pos = (846,700);
}
);
layerId = "DF61F520-A841-4152-8991-D5A31692CC39";
shapes = (
{
closed = 1;
nodes = (
(162,0,l),
(210,348,l),
(215,461,ls),
(215,476,o),
(227,480,o),
(232,467,cs),
(419,0,l),
(519,0,l),
(618,700,l),
(510,700,l),
(458,327,l),
(456,219,ls),
(456,203,o),
(444,202,o),
(440,212,cs),
(245,700,l),
(152,700,l),
(54,0,l)
);
},
{
closed = 1;
nodes = (
(689,-200,o),
(778,-135,o),
(798,6,cs),
(869,504,l),
(760,504,l),
(691,9,l),
(680,-69,o),
(629,-112,o),
(566,-128,c),
(589,-223,l)
);
},
{
closed = 1;
nodes = (
(885,592,l),
(900,700,l),
(792,700,l),
(777,592,l)
);
}
);
width = 912;
},
{
anchors = (
{
name = bottom;
pos = (761,-250);
},
{
name = part.hook;
pos = (32,0);
},
{
name = top;
pos = (896,700);
}
);
layerId = "0E062E17-1137-409C-98D3-1192050A59FC";
shapes = (
{
closed = 1;
nodes = (
(241,0,l),
(267,176,l),
(263,337,ls),
(263,348,o),
(276,351,o),
(280,341,cs),
(411,0,l),
(570,0,l),
(670,700,l),
(473,700,l),
(449,525,l),
(448,377,ls),
(448,369,o),
(436,366,o),
(432,376,cs),
(298,700,l),
(132,700,l),
(32,0,l)
);
},
{
closed = 1;
nodes = (
(741,-222,o),
(875,-164,o),
(902,28,cs),
(970,517,l),
(774,517,l),
(705,28,l),
(699,-16,o),
(671,-43,o),
(634,-49,c),
(652,-222,l)
);
},
{
closed = 1;
nodes = (
(975,567,l),
(994,700,l),
(798,700,l),
(779,567,l)
);
}
);
width = 990;
}
);
},
{
glyphname = Eng;
kernLeft = KO_H;
kernRight = KO_H;
lastChange = "2025-01-19 17:48:57 +0000";
layers = (
{
anchors = (
{
name = bottom;
pos = (271,0);
},
{
name = top;
pos = (369,675);
}
);
layerId = "3FAB31A8-66C0-4840-B78B-D12B5ED553F3";
shapes = (
{
closed = 1;
nodes = (
(94,0,l),
(177,586,l),
(178,640,ls),
(178,648,o),
(187,650,o),
(190,643,cs),
(443,5,l),
(433,-67,ls),
(422,-146,o),
(374,-178,o),
(310,-178,cs),
(264,-178,o),
(222,-157,o),
(206,-137,c),
(198,-158,l),
(215,-177,o),
(258,-200,o),
(307,-200,cs),
(384,-200,o),
(444,-163,o),
(457,-70,cs),
(566,700,l),
(542,700,l),
(460,120,l),
(460,60,ls),
(460,51,o),
(451,49,o),
(448,56,cs),
(193,700,l),
(169,700,l),
(70,0,l)
);
}
);
width = 607;
},
{
anchors = (
{
name = bottom;
pos = (287,0);
},
{
name = top;
pos = (383,687);
}
);
layerId = "DF61F520-A841-4152-8991-D5A31692CC39";
shapes = (
{
closed = 1;
nodes = (
(162,0,l),
(210,348,l),
(215,461,ls),
(215,476,o),
(227,480,o),
(232,467,cs),
(409,26,l),
(403,-13,ls),
(395,-69,o),
(361,-100,o),
(311,-100,cs),
(275,-100,o),
(238,-89,o),
(210,-60,c),
(172,-150,l),
(207,-184,o),
(261,-203,o),
(314,-203,cs),
(424,-203,o),
(498,-141,o),
(514,-31,cs),
(618,700,l),
(510,700,l),
(458,327,l),
(456,219,ls),
(456,203,o),
(444,202,o),
(440,212,cs),
(245,700,l),
(152,700,l),
(54,0,l)
);
}
);
width = 644;
},
{
anchors = (
{
name = bottom;
pos = (301,0);
},
{
name = top;
pos = (400,700);
}
);
layerId = "0E062E17-1137-409C-98D3-1192050A59FC";
shapes = (
{
closed = 1;
nodes = (
(229,0,l),
(255,176,l),
(263,337,ls),
(264,348,o),
(276,351,o),
(280,341,cs),
(384,69,l),
(379,33,ls),
(375,4,o),
(353,-17,o),
(326,-17,cs),
(297,-17,o),
(280,-10,o),
(261,6,c),
(176,-155,l),
(217,-184,o),
(260,-200,o),
(336,-200,cs),
(464,-200,o),
(553,-124,o),
(570,0,cs),
(670,700,l),
(473,700,l),
(449,525,l),
(448,377,ls),
(448,369,o),
(436,366,o),
(432,376,cs),
(298,700,l),
(132,700,l),
(32,0,l)
);
}
);
width = 676;
}
);
metricLeft = N;
metricRight = N;
unicode = 330;
},
{
glyphname = O;
kernLeft = KO_O;
kernRight = KO_O;
lastChange = "2025-01-20 07:45:44 +0000";
layers = (
{
anchors = (
{
name = bottom;
pos = (266,0);
},
{
name = center;
pos = (315,350);
},
{
name = ogonek;
pos = (380,10);
},
{
name = top;
pos = (356,675);
},
{
name = topleft;
pos = (86,700);
},
{
name = topright;
pos = (448,700);
}
);
layerId = "3FAB31A8-66C0-4840-B78B-D12B5ED553F3";
shapes = (
{
closed = 1;
nodes = (
(392,-12,o),
(465,50,o),
(501,176,cs),
(529,275,o),
(552,404,o),
(552,497,cs),
(552,629,o),
(475,712,o),
(353,712,cs),
(239,712,o),
(166,650,o),
(130,524,cs),
(102,425,o),
(79,296,o),
(79,203,cs),
(79,71,o),
(156,-12,o),
(278,-12,cs)
);
},
{
closed = 1;
nodes = (
(171,10,o),
(102,80,o),
(102,203,cs),
(102,284,o),
(123,419,o),
(152,516,cs),
(188,637,o),
(246,690,o),
(351,690,cs),
(460,690,o),
(531,620,o),
(529,497,cs),
(528,408,o),
(506,273,o),
(479,184,cs),
(443,63,o),
(385,10,o),
(280,10,cs)
);
}
);
width = 601;
},
{
anchors = (
{
name = bottom;
pos = (270,0);
},
{
name = center;
pos = (319,350);
},
{
name = ogonek;
pos = (379,10);
},
{
name = top;
pos = (367,687);
},
{
name = topleft;
pos = (83,700);
},
{
name = topright;
pos = (440,700);
}
);
layerId = "DF61F520-A841-4152-8991-D5A31692CC39";
shapes = (
{
closed = 1;
nodes = (
(420,-12,o),
(500,63,o),
(532,170,cs),
(563,266,o),
(582,392,o),
(582,486,cs),
(582,601,o),
(509,712,o),
(358,712,cs),
(219,712,o),
(140,637,o),
(108,530,cs),
(77,436,o),
(58,310,o),
(58,214,cs),
(58,99,o),
(130,-12,o),
(281,-12,cs)
);
},
{
closed = 1;
nodes = (
(211,90,o),
(168,138,o),
(168,219,cs),
(168,292,o),
(188,432,o),
(212,504,cs),
(236,578,o),
(288,610,o),
(350,610,cs),
(428,610,o),
(472,562,o),
(472,481,cs),
(472,404,o),
(452,269,o),
(427,196,cs),
(403,122,o),
(351,90,o),
(289,90,cs)
);
}
);
width = 611.6;
},
{
anchors = (
{
name = bottom;
pos = (278,0);
},
{
name = center;
pos = (327,350);
},
{
name = ogonek;
pos = (407,10);
},
{
name = top;
pos = (377,700);
},
{
name = topleft;
pos = (83,700);
},
{
name = topright;
pos = (490,700);
}
);
layerId = "0E062E17-1137-409C-98D3-1192050A59FC";
shapes = (
{
closed = 1;
nodes = (
(450,-12,o),
(536,71,o),
(572,183,cs),
(599,273,o),
(616,385,o),
(616,484,cs),
(616,593,o),
(531,712,o),
(354,712,cs),
(205,712,o),
(119,629,o),
(83,517,cs),
(56,427,o),
(39,315,o),
(39,216,cs),
(39,107,o),
(124,-12,o),
(301,-12,cs)
);
},
{
closed = 1;
nodes = (
(263,171,o),
(248,199,o),
(248,232,cs),
(248,263,o),
(259,381,o),
(281,468,cs),
(290,503,o),
(313,529,o),
(349,529,cs),
(392,529,o),
(407,501,o),
(407,468,cs),
(407,437,o),
(396,319,o),
(374,232,cs),
(365,197,o),
(342,171,o),
(306,171,cs)
);
}
);
width = 629.33333;
}
);
unicode = 79;
userData = {
KernOnName = O;
com.schriftgestaltung.Glyphs.ColorIndex = 3;
};
},
{
glyphname = Ocircumflexdotbelow;
kernLeft = KO_O;
kernRight = KO_O;
lastChange = "2026-02-06 13:20:43 +0000";
layers = (
{
anchors = (
{
name = bottom;
pos = (242,-167);
},
{
name = center;
pos = (315,350);
},
{
name = ogonek;
pos = (380,10);
},
{
name = top;
pos = (381,848);
},
{
name = topleft;
pos = (86,700);
},
{
name = topright;
pos = (448,700);
}
);
layerId = "3FAB31A8-66C0-4840-B78B-D12B5ED553F3";
shapes = (
{
closed = 1;
nodes = (
(253,-173,l),
(266,-85,l),
(242,-85,l),
(229,-173,l)
);
},
{
closed = 1;
nodes = (
(295,795,l),
(369,888,l),
(385,911,ls),
(390,918,o),
(396,918,o),
(399,911,cs),
(407,888,l),
(453,795,l),
(478,795,l),
(406,933,l),
(380,933,l),
(268,795,l)
);
},
{
ref = O;
}
);
width = 601;
},
{
anchors = (
{
name = bottom;
pos = (243,-194);
},
{
name = center;
pos = (319,350);
},
{
name = ogonek;
pos = (379,10);
},
{
name = top;
pos = (396,893);
},
{
name = topleft;
pos = (83,700);
},
{
name = topright;
pos = (440,700);
}
);
layerId = "DF61F520-A841-4152-8991-D5A31692CC39";
shapes = (
{
closed = 1;
nodes = (
(297,-193,l),
(312,-85,l),
(204,-85,l),
(189,-193,l)
);
},
{
closed = 1;
nodes = (
(329,775,l),
(371,837,l),
(386,871,ls),
(390,880,o),
(396,880,o),
(398,871,cs),
(405,837,l),
(431,775,l),
(520,775,l),
(450,933,l),
(342,933,l),
(229,775,l)
);
},
{
ref = O;
}
);
width = 612;
},
{
anchors = (
{
name = bottom;
pos = (250,-200);
},
{
name = center;
pos = (327,350);
},
{
name = ogonek;
pos = (407,10);
},
{
name = top;
pos = (410,933);
},
{
name = topleft;
pos = (83,700);
},
{
name = topright;
pos = (490,700);
}
);
layerId = "0E062E17-1137-409C-98D3-1192050A59FC";
shapes = (
{
closed = 1;
nodes = (
(348,-196,l),
(367,-63,l),
(171,-63,l),
(152,-196,l)
);
},
{
closed = 1;
nodes = (
(347,750,l),
(376,795,l),
(391,829,ls),
(395,838,o),
(402,837,o),
(403,829,cs),
(408,795,l),
(426,750,l),
(570,750,l),
(508,933,l),
(312,933,l),
(197,750,l)
);
},
{
ref = O;
}
);
width = 629;
}
);
unicode = 7896;
},
{
glyphname = Ohorn;
kernLeft = KO_O;
kernRight = KO_O;
lastChange = "2026-02-06 13:20:53 +0000";
layers = (
{
anchors = (
{
name = bottom;
pos = (266,0);
},
{
name = center;
pos = (315,350);
},
{
name = ogonek;
pos = (380,10);
},
{
name = top;
pos = (356,675);
},
{
name = topleft;
pos = (86,700);
},
{
name = topright;
pos = (547,784);
}
);
layerId = "3FAB31A8-66C0-4840-B78B-D12B5ED553F3";
shapes = (
{
closed = 1;
nodes = (
(392,-12,o),
(465,50,o),
(501,176,cs),
(529,275,o),
(552,404,o),
(552,497,cs),
(552,629,o),
(475,712,o),
(353,712,cs),
(239,712,o),
(166,650,o),
(130,524,cs),
(102,425,o),
(79,296,o),
(79,203,cs),
(79,71,o),
(156,-12,o),
(278,-12,cs)
);
},
{
closed = 1;
nodes = (
(171,10,o),
(102,80,o),
(102,203,cs),
(102,284,o),
(123,419,o),
(152,516,cs),
(188,637,o),
(246,690,o),
(351,690,cs),
(460,690,o),
(531,620,o),
(529,497,cs),
(528,408,o),
(506,273,o),
(479,184,cs),
(443,63,o),
(385,10,o),
(280,10,cs)
);
},
{
closed = 1;
nodes = (
(489,680,o),
(537,710,o),
(547,784,c),
(525,784,l),
(517,722,o),
(484,700,o),
(448,700,c),
(428,700,l),
(425,680,l),
(445,680,l)
);
}
);
width = 601;
},
{
anchors = (
{
name = bottom;
pos = (270,0);
},
{
name = center;
pos = (319,350);
},
{
name = ogonek;
pos = (379,10);
},
{
name = top;
pos = (367,687);
},
{
name = topleft;
pos = (83,700);
},
{
name = topright;
pos = (580,790);
}
);
layerId = "DF61F520-A841-4152-8991-D5A31692CC39";
shapes = (
{
closed = 1;
nodes = (
(420,-12,o),
(500,63,o),
(532,170,cs),
(563,266,o),
(582,392,o),
(582,486,cs),
(582,601,o),
(509,712,o),
(358,712,cs),
(219,712,o),
(140,637,o),
(108,530,cs),
(77,436,o),
(58,310,o),
(58,214,cs),
(58,99,o),
(130,-12,o),
(281,-12,cs)
);
},
{
closed = 1;
nodes = (
(211,90,o),
(168,138,o),
(168,219,cs),
(168,292,o),
(188,432,o),
(212,504,cs),
(236,578,o),
(288,610,o),
(350,610,cs),
(428,610,o),
(472,562,o),
(472,481,cs),
(472,404,o),
(452,269,o),
(427,196,cs),
(403,122,o),
(351,90,o),
(289,90,cs)
);
},
{
closed = 1;
nodes = (
(495,640,o),
(564,673,o),
(580,790,c),
(505,790,l),
(494,714,o),
(469,700,o),
(440,700,c),
(392,700,l),
(384,640,l),
(432,640,l)
);
}
);
width = 612;
},
{
anchors = (
{
name = bottom;
pos = (278,0);
},
{
name = center;
pos = (327,350);
},
{
name = ogonek;
pos = (407,10);
},
{
name = top;
pos = (377,700);
},
{
name = topleft;
pos = (83,700);
},
{
name = topright;
pos = (666,794);
}
);
layerId = "0E062E17-1137-409C-98D3-1192050A59FC";
shapes = (
{
closed = 1;
nodes = (
(450,-12,o),
(536,71,o),
(572,183,cs),
(599,273,o),
(616,385,o),
(616,484,cs),
(616,593,o),
(531,712,o),
(354,712,cs),
(205,712,o),
(119,629,o),
(83,517,cs),
(56,427,o),
(39,315,o),
(39,216,cs),
(39,107,o),
(124,-12,o),
(301,-12,cs)
);
},
{
closed = 1;
nodes = (
(263,171,o),
(248,199,o),
(248,232,cs),
(248,263,o),
(259,381,o),
(281,468,cs),
(290,503,o),
(313,529,o),
(349,529,cs),
(392,529,o),
(407,501,o),
(407,468,cs),
(407,437,o),
(396,319,o),
(374,232,cs),
(365,197,o),
(342,171,o),
(306,171,cs)
);
},
{
closed = 1;
nodes = (
(559,612,o),
(646,652,o),
(666,794,c),
(536,794,l),
(524,714,o),
(508,700,o),
(490,700,c),
(410,700,l),
(398,612,l),
(478,612,l)
);
}
);
width = 629;
}
);
unicode = 416;
},
{
glyphname = Ohorntilde;
kernLeft = KO_O;
lastChange = "2025-01-19 17:48:57 +0000";
layers = (
{
anchors = (
{
name = bottom;
pos = (263,0);
},
{
name = center;
pos = (312,350);
},
{
name = ogonek;
pos = (377,10);
},
{
name = top;
pos = (376,838);
},
{
name = topleft;
pos = (83,700);
},
{
name = topright;
pos = (544,784);
}
);
layerId = "3FAB31A8-66C0-4840-B78B-D12B5ED553F3";
shapes = (
{
closed = 1;
nodes = (
(389,-12,o),
(462,50,o),
(498,176,cs),
(526,275,o),
(549,404,o),
(549,497,cs),
(549,582,o),
(517,647,o),
(462,682,c),
(499,690,o),
(535,721,o),
(544,784,c),
(522,784,l),
(514,722,o),
(481,700,o),
(445,700,cs),
(425,700,l),
(402,708,o),
(377,712,o),
(350,712,cs),
(236,712,o),
(163,650,o),
(127,524,cs),
(99,425,o),
(76,296,o),
(76,203,cs),
(76,71,o),
(153,-12,o),
(275,-12,cs)
);
},
{
closed = 1;
nodes = (
(168,10,o),
(99,80,o),
(99,203,cs),
(99,284,o),
(120,419,o),
(149,516,cs),
(185,637,o),
(243,690,o),
(348,690,cs),
(457,690,o),
(528,620,o),
(526,497,cs),
(525,408,o),
(503,273,o),
(476,184,cs),
(440,63,o),
(382,10,o),
(277,10,cs)
);
},
{
closed = 1;
nodes = (
(282,843,o),
(298,854,o),
(325,854,cs),
(366,854,o),
(375,802,o),
(426,802,cs),
(456,802,o),
(485,816,o),
(506,855,c),
(497,865,l),
(471,834,o),
(456,822,o),
(428,822,cs),
(388,822,o),
(377,874,o),
(327,874,cs),
(297,874,o),
(268,860,o),
(247,821,c),
(256,811,l)
);
}
);
width = 595;
},
{
anchors = (
{
name = bottom;
pos = (270,0);
},
{
name = center;
pos = (319,350);
},
{
name = ogonek;
pos = (379,10);
},
{
name = top;
pos = (372,863);
},
{
name = topleft;
pos = (83,700);
},
{
name = topright;
pos = (621,790);
}
);
layerId = "DF61F520-A841-4152-8991-D5A31692CC39";
shapes = (
{
closed = 1;
nodes = (
(420,-12,o),
(500,63,o),
(532,170,cs),
(563,266,o),
(582,392,o),
(582,486,cs),
(582,546,o),
(562,605,o),
(522,647,c),
(568,663,o),
(609,703,o),
(621,790,c),
(546,790,l),
(535,714,o),
(510,700,o),
(481,700,cs),
(438,700,l),
(414,708,o),
(388,712,o),
(358,712,cs),
(219,712,o),
(140,637,o),
(108,530,cs),
(77,436,o),
(58,310,o),
(58,214,cs),
(58,99,o),
(130,-12,o),
(281,-12,cs)
);
},
{
closed = 1;
nodes = (
(211,90,o),
(168,138,o),
(168,219,cs),
(168,292,o),
(188,432,o),
(212,504,cs),
(236,578,o),
(288,610,o),
(350,610,cs),
(428,610,o),
(472,562,o),
(472,481,cs),
(472,404,o),
(452,269,o),
(427,196,cs),
(403,122,o),
(351,90,o),
(289,90,cs)
);
},
{
closed = 1;
nodes = (
(247,790,o),
(269,803,o),
(297,803,cs),
(342,803,o),
(357,766,o),
(426,766,cs),
(464,766,o),
(497,780,o),
(527,813,c),
(510,882,l),
(484,856,o),
(462,843,o),
(435,843,cs),
(389,843,o),
(376,880,o),
(307,880,cs),
(269,880,o),
(235,866,o),
(205,833,c),
(222,764,l)
);
}
);
width = 612;
},
{
anchors = (
{
name = bottom;
pos = (278,0);
},
{
name = center;
pos = (327,350);
},
{
name = ogonek;
pos = (407,10);
},
{
name = top;
pos = (336,896);
},
{
name = topleft;
pos = (83,700);
},
{
name = topright;
pos = (678,794);
}
);
layerId = "0E062E17-1137-409C-98D3-1192050A59FC";
shapes = (
{
closed = 1;
nodes = (
(450,-12,o),
(536,71,o),
(572,183,cs),
(599,273,o),
(616,385,o),
(616,484,cs),
(616,533,o),
(599,584,o),
(564,625,c),
(618,646,o),
(664,696,o),
(678,794,c),
(548,794,l),
(536,714,o),
(520,700,o),
(502,700,cs),
(445,700,l),
(418,708,o),
(388,712,o),
(354,712,cs),
(205,712,o),
(119,629,o),
(83,517,cs),
(56,427,o),
(39,315,o),
(39,216,cs),
(39,107,o),
(124,-12,o),
(301,-12,cs)
);
},
{
closed = 1;
nodes = (
(263,171,o),
(248,199,o),
(248,232,cs),
(248,263,o),
(259,381,o),
(281,468,cs),
(290,503,o),
(313,529,o),
(349,529,cs),
(392,529,o),
(407,501,o),
(407,468,cs),
(407,437,o),
(396,319,o),
(374,232,cs),
(365,197,o),
(342,171,o),
(306,171,cs)
);
},
{
closed = 1;
nodes = (
(187,754,o),
(215,769,o),
(248,769,cs),
(299,769,o),
(313,738,o),
(392,738,cs),
(438,738,o),
(474,752,o),
(510,789,c),
(481,896,l),
(462,880,o),
(434,866,o),
(401,866,cs),
(351,866,o),
(336,896,o),
(258,896,cs),
(211,896,o),
(175,882,o),
(139,846,c),
(169,738,l)
);
}
);
width = 629;
}
);
unicode = 7904;
},
{
glyphname = Oslash;
lastChange = "2026-03-11 15:47:28 +0000";
layers = (
{
anchors = (
{
name = bottom;
pos = (343,0);
},
{
name = top;
pos = (442,675);
}
);
layerId = "3FAB31A8-66C0-4840-B78B-D12B5ED553F3";
shapes = (
{
closed = 1;
nodes = (
(469,-12,o),
(542,50,o),
(578,176,cs),
(606,275,o),
(629,404,o),
(629,497,cs),
(629,629,o),
(552,712,o),
(430,712,cs),
(316,712,o),
(243,650,o),
(207,524,cs),
(179,425,o),
(156,296,o),
(156,203,cs),
(156,71,o),
(233,-12,o),
(355,-12,cs)
);
},
{
closed = 1;
nodes = (
(248,10,o),
(179,80,o),
(179,203,cs),
(179,284,o),
(200,419,o),
(229,516,cs),
(265,637,o),
(323,690,o),
(428,690,cs),
(537,690,o),
(608,620,o),
(606,497,cs),
(605,408,o),
(583,273,o),
(556,184,cs),
(520,63,o),
(462,10,o),
(357,10,cs)
);
},
{
closed = 1;
nodes = (
(69,0,l),
(739,700,l),
(712,700,l),
(42,0,l)
);
}
);
width = 752;
},
{
anchors = (
{
name = bottom;
pos = (340,0);
},
{
name = top;
pos = (436,687);
}
);
layerId = "DF61F520-A841-4152-8991-D5A31692CC39";
shapes = (
{
closed = 1;
nodes = (
(489,-12,o),
(569,63,o),
(601,170,cs),
(632,266,o),
(651,392,o),
(651,486,cs),
(651,601,o),
(578,712,o),
(427,712,cs),
(288,712,o),
(209,637,o),
(177,530,cs),
(146,436,o),
(127,310,o),
(127,214,cs),
(127,99,o),
(199,-12,o),
(350,-12,cs)
);
},
{
closed = 1;
nodes = (
(280,90,o),
(237,138,o),
(237,219,cs),
(237,292,o),
(257,432,o),
(281,504,cs),
(305,578,o),
(357,610,o),
(419,610,cs),
(497,610,o),
(541,562,o),
(541,481,cs),
(541,404,o),
(521,269,o),
(496,196,cs),
(472,122,o),
(420,90,o),
(358,90,cs)
);
},
{
closed = 1;
nodes = (
(119,0,l),
(756,700,l),
(657,700,l),
(19,0,l)
);
}
);
width = 747;
},
{
anchors = (
{
name = bottom;
pos = (333,0);
},
{
name = top;
pos = (431,700);
}
);
layerId = "0E062E17-1137-409C-98D3-1192050A59FC";
shapes = (
{
closed = 1;
nodes = (
(487,-12,o),
(576,60,o),
(613,178,cs),
(641,268,o),
(659,389,o),
(659,485,cs),
(659,596,o),
(579,712,o),
(412,712,cs),
(268,712,o),
(184,632,o),
(150,523,cs),
(121,431,o),
(103,311,o),
(103,215,cs),
(103,104,o),
(183,-12,o),
(350,-12,cs)
);
},
{
closed = 1;
nodes = (
(299,139,o),
(273,175,o),
(273,227,cs),
(273,276,o),
(288,405,o),
(310,481,cs),
(325,533,o),
(359,561,o),
(406,561,cs),
(463,561,o),
(490,525,o),
(490,473,cs),
(490,421,o),
(475,299,o),
(452,218,cs),
(437,167,o),
(403,139,o),
(356,139,cs)
);
},
{
closed = 1;
nodes = (
(159,0,l),
(779,700,l),
(619,700,l),
(-1,0,l)
);
}
);
width = 752;
}
);
metricLeft = O;
metricRight = O;
unicode = 216;
},
{
glyphname = OE;
kernLeft = KO_O;
kernRight = KO_E;
lastChange = "2025-01-19 17:48:57 +0000";
layers = (
{
anchors = (
{
name = bottom;
pos = (543,0);
},
{
name = top;
pos = (642,675);
}
);
layerId = "3FAB31A8-66C0-4840-B78B-D12B5ED553F3";
shapes = (
{
closed = 1;
nodes = (
(363,-12,o),
(425,22,o),
(466,91,c),
(473,111,ls),
(476,119,o),
(484,118,o),
(483,109,cs),
(467,0,l),
(848,0,l),
(852,22,l),
(495,22,l),
(539,339,l),
(879,339,l),
(882,361,l),
(542,361,l),
(587,678,l),
(944,678,l),
(947,700,l),
(566,700,l),
(548,571,ls),
(547,562,o),
(538,562,o),
(537,571,cs),
(533,598,l),
(503,670,o),
(440,712,o),
(353,712,cs),
(239,712,o),
(166,650,o),
(130,524,cs),
(102,425,o),
(79,296,o),
(79,203,cs),
(79,71,o),
(156,-12,o),
(278,-12,cs)
);
},
{
closed = 1;
nodes = (
(171,10,o),
(102,80,o),
(102,203,cs),
(102,284,o),
(123,419,o),
(152,516,cs),
(188,637,o),
(246,690,o),
(351,690,cs),
(460,690,o),
(531,620,o),
(529,497,cs),
(528,408,o),
(506,273,o),
(479,184,cs),
(443,63,o),
(385,10,o),
(280,10,cs)
);
}
);
width = 952;
},
{
anchors = (
{
name = bottom;
pos = (427,0);
},
{
name = top;
pos = (523,687);
}
);
layerId = "DF61F520-A841-4152-8991-D5A31692CC39";
shapes = (
{
closed = 1;
nodes = (
(323,-12,o),
(345,-2,o),
(356,2,c),
(407,35,ls),
(419,43,o),
(424,36,o),
(423,30,cs),
(420,0,l),
(833,0,l),
(847,103,l),
(538,103,l),
(566,301,l),
(858,301,l),
(872,399,l),
(580,399,l),
(607,597,l),
(916,597,l),
(931,700,l),
(520,700,l),
(513,659,ls),
(512,650,o),
(503,647,o),
(496,653,cs),
(459,690,l),
(441,700,o),
(404,712,o),
(358,712,cs),
(219,712,o),
(140,637,o),
(108,530,c),
(77,436,o),
(58,310,o),
(58,214,cs),
(58,99,o),
(130,-12,o),
(281,-12,cs)
);
},
{
closed = 1;
nodes = (
(211,90,o),
(168,138,o),
(168,219,cs),
(168,292,o),
(188,432,o),
(212,504,cs),
(236,578,o),
(288,610,o),
(350,610,cs),
(428,610,o),
(472,562,o),
(472,481,cs),
(472,404,o),
(452,269,o),
(427,196,cs),
(403,122,o),
(351,90,o),
(289,90,cs)
);
}
);
width = 924;
},
{
anchors = (
{
name = bottom;
pos = (425,0);
},
{
name = top;
pos = (523,700);
}
);
layerId = "0E062E17-1137-409C-98D3-1192050A59FC";
shapes = (
{
closed = 1;
nodes = (
(302,-12,o),
(309,-11,o),
(322,-9,c),
(376,16,ls),
(385,20,o),
(389,18,o),
(388,11,cs),
(386,0,l),
(814,0,l),
(839,180,l),
(569,180,l),
(582,270,l),
(835,270,l),
(857,430,l),
(604,430,l),
(617,520,l),
(887,520,l),
(912,700,l),
(491,700,l),
(489,689,ls),
(487,680,o),
(480,678,o),
(471,684,cs),
(445,702,l),
(429,708,o),
(387,712,o),
(354,712,cs),
(205,712,o),
(119,629,o),
(83,517,cs),
(56,427,o),
(39,315,o),
(39,216,cs),
(39,107,o),
(121,-12,o),
(291,-12,cs)
);
},
{
closed = 1;
nodes = (
(263,171,o),
(248,199,o),
(248,232,cs),
(248,263,o),
(259,381,o),
(281,468,cs),
(290,503,o),
(313,529,o),
(349,529,cs),
(392,529,o),
(407,501,o),
(407,468,cs),
(407,437,o),
(396,319,o),
(374,232,cs),
(365,197,o),
(342,171,o),
(306,171,cs)
);
}
);
width = 894;
}
);
metricLeft = O;
metricRight = E;
unicode = 338;
userData = {
com.schriftgestaltung.Glyphs.leftMetricsKey = O;
com.schriftgestaltung.Glyphs.rightMetricsKey = E;
};
},
{
glyphname = P;
kernLeft = KO_H;
kernRight = KO_P;
lastChange = "2025-01-20 07:45:44 +0000";
layers = (
{
anchors = (
{
name = bottom;
pos = (204,0);
},
{
name = top;
pos = (373,675);
}
);
layerId = "3FAB31A8-66C0-4840-B78B-D12B5ED553F3";
shapes = (
{
closed = 1;
nodes = (
(96,0,l),
(143,339,l),
(335,339,ls),
(474,339,o),
(545,430,o),
(545,537,cs),
(545,620,o),
(499,700,o),
(377,700,cs),
(169,700,l),
(72,0,l)
);
},
{
closed = 1;
nodes = (
(190,678,l),
(377,678,ls),
(468,678,o),
(521,622,o),
(521,537,cs),
(521,440,o),
(464,361,o),
(335,361,cs),
(146,361,l)
);
}
);
width = 541;
},
{
anchors = (
{
name = bottom;
pos = (268,0);
},
{
name = top;
pos = (326,687);
}
);
layerId = "DF61F520-A841-4152-8991-D5A31692CC39";
shapes = (
{
closed = 1;
nodes = (
(165,0,l),
(207,299,l),
(348,299,ls),
(488,299,o),
(577,389,o),
(577,525,cs),
(577,623,o),
(509,700,o),
(395,700,cs),
(152,700,l),
(54,0,l)
);
},
{
closed = 1;
nodes = (
(250,606,l),
(381,606,ls),
(441,606,o),
(474,573,o),
(474,521,cs),
(474,435,o),
(427,394,o),
(350,394,cs),
(221,394,l)
);
}
);
width = 571;
},
{
anchors = (
{
name = bottom;
pos = (334,0);
},
{
name = top;
pos = (268,700);
}
);
background = {
shapes = (
{
closed = 1;
nodes = (
(243,0,l),
(276,239,l),
(356,239,ls),
(499,239,o),
(600,336,o),
(619,470,cs),
(639,616,o),
(564,700,o),
(421,700,cs),
(131,700,l),
(33,0,l)
);
},
{
closed = 1;
nodes = (
(316,520,l),
(390,520,ls),
(427,520,o),
(445,499,o),
(439,460,cs),
(434,424,o),
(410,403,o),
(373,403,cs),
(299,403,l)
);
}
);
};
layerId = "0E062E17-1137-409C-98D3-1192050A59FC";
shapes = (
{
closed = 1;
nodes = (
(242,0,l),
(276,239,l),
(352,239,ls),
(514,239,o),
(627,331,o),
(627,486,cs),
(627,643,o),
(519,700,o),
(390,700,cs),
(132,700,l),
(32,0,l)
);
},
{
closed = 1;
nodes = (
(316,520,l),
(379,520,ls),
(413,520,o),
(438,508,o),
(438,465,cs),
(438,416,o),
(401,403,o),
(371,403,cs),
(300,403,l)
);
}
);
width = 610;
}
);
metricLeft = H;
unicode = 80;
userData = {
KernOnName = P;
com.schriftgestaltung.Glyphs.ColorIndex = 3;
com.schriftgestaltung.Glyphs.layer.leftMetricsKey = "==H";
com.schriftgestaltung.Glyphs.leftMetricsKey = H;
};
},
{
glyphname = Thorn;
kernLeft = KO_H;
lastChange = "2026-03-11 15:47:28 +0000";
layers = (
{
anchors = (
{
name = bottom;
pos = (177,0);
},
{
name = top;
pos = (267,675);
}
);
layerId = "3FAB31A8-66C0-4840-B78B-D12B5ED553F3";
shapes = (
{
closed = 1;
nodes = (
(42,0,l),
(67,180,l),
(280,180,ls),
(419,180,o),
(490,271,o),
(490,378,cs),
(490,461,o),
(444,541,o),
(322,541,cs),
(116,541,l),
(138,700,l),
(114,700,l),
(17,0,l)
);
},
{
closed = 1;
nodes = (
(113,519,l),
(322,519,ls),
(413,519,o),
(466,463,o),
(466,378,cs),
(466,281,o),
(409,202,o),
(280,202,cs),
(70,202,l)
);
}
);
width = 500;
},
{
anchors = (
{
name = bottom;
pos = (215,0);
},
{
name = top;
pos = (312,687);
}
);
layerId = "DF61F520-A841-4152-8991-D5A31692CC39";
shapes = (
{
closed = 1;
nodes = (
(126,0,l),
(148,159,l),
(289,159,ls),
(429,159,o),
(519,250,o),
(519,384,cs),
(519,484,o),
(450,560,o),
(336,560,cs),
(204,560,l),
(224,700,l),
(113,700,l),
(15,0,l)
);
},
{
closed = 1;
nodes = (
(191,466,l),
(322,466,ls),
(383,466,o),
(415,433,o),
(415,375,cs),
(415,298,o),
(370,255,o),
(291,255,cs),
(162,255,l)
);
}
);
width = 528;
},
{
anchors = (
{
name = bottom;
pos = (255,0);
},
{
name = top;
pos = (354,700);
}
);
layerId = "0E062E17-1137-409C-98D3-1192050A59FC";
shapes = (
{
closed = 1;
nodes = (
(225,0,l),
(245,139,l),
(322,139,ls),
(484,139,o),
(597,231,o),
(597,386,cs),
(597,543,o),
(489,600,o),
(360,600,cs),
(311,600,l),
(325,700,l),
(113,700,l),
(13,0,l)
);
},
{
closed = 1;
nodes = (
(285,420,l),
(349,420,ls),
(383,420,o),
(408,408,o),
(408,365,cs),
(408,316,o),
(371,303,o),
(341,303,cs),
(268,303,l)
);
}
);
width = 607;
}
);
metricLeft = I;
metricRight = "=I/2";
unicode = 222;
userData = {
com.schriftgestaltung.Glyphs.leftMetricsKey = H;
};
},
{
glyphname = Q;
kernLeft = KO_O;
kernRight = KO_O;
lastChange = "2025-01-20 07:45:44 +0000";
layers = (
{
anchors = (
{
name = bottom;
pos = (266,0);
},
{
name = top;
pos = (356,675);
}
);
background = {
shapes = (
{
closed = 1;
nodes = (
(447,-109,l),
(396,16,l),
(444,44,o),
(478,96,o),
(501,176,cs),
(529,275,o),
(552,404,o),
(552,497,cs),
(552,629,o),
(475,712,o),
(353,712,cs),
(239,712,o),
(168,659,o),
(130,524,cs),
(102,425,o),
(79,296,o),
(79,203,cs),
(79,71,o),
(156,-12,o),
(278,-12,cs),
(315,-12,o),
(348,-6,o),
(376,6,c),
(427,-118,l)
);
},
{
closed = 1;
nodes = (
(171,10,o),
(102,80,o),
(102,203,cs),
(102,284,o),
(123,419,o),
(152,516,cs),
(190,646,o),
(246,690,o),
(351,690,cs),
(460,690,o),
(531,620,o),
(529,497,cs),
(528,408,o),
(506,273,o),
(479,184,cs),
(457,108,o),
(428,61,o),
(388,36,c),
(308,230,l),
(288,221,l),
(354,64,l),
(368,41,ls),
(372,34,o),
(372,28,o),
(365,25,cs),
(341,15,o),
(314,10,o),
(280,10,cs)
);
}
);
};
layerId = "3FAB31A8-66C0-4840-B78B-D12B5ED553F3";
shapes = (
{
closed = 1;
nodes = (
(447,-109,l),
(396,16,l),
(444,44,o),
(478,96,o),
(501,176,cs),
(529,275,o),
(552,404,o),
(552,497,cs),
(552,629,o),
(475,712,o),
(353,712,cs),
(239,712,o),
(168,659,o),
(130,524,cs),
(102,425,o),
(79,296,o),
(79,203,cs),
(79,71,o),
(156,-12,o),
(278,-12,cs),
(315,-12,o),
(348,-6,o),
(376,6,c),
(427,-118,l)
);
},
{
closed = 1;
nodes = (
(171,10,o),
(102,80,o),
(102,203,cs),
(102,284,o),
(123,419,o),
(152,516,cs),
(190,646,o),
(246,690,o),
(351,690,cs),
(460,690,o),
(531,620,o),
(529,497,cs),
(528,408,o),
(506,273,o),
(479,184,cs),
(457,108,o),
(428,61,o),
(388,36,c),
(308,230,l),
(288,221,l),
(354,64,l),
(368,41,ls),
(372,34,o),
(372,28,o),
(365,25,cs),
(341,15,o),
(314,10,o),
(280,10,cs)
);
}
);
width = 601;
},
{
anchors = (
{
name = bottom;
pos = (270,0);
},
{
name = top;
pos = (367,687);
}
);
layerId = "DF61F520-A841-4152-8991-D5A31692CC39";
shapes = (
{
closed = 1;
nodes = (
(459,-77,l),
(423,25,l),
(479,55,o),
(512,107,o),
(532,170,cs),
(563,265,o),
(582,390,o),
(582,488,cs),
(582,598,o),
(506,712,o),
(360,712,cs),
(220,712,o),
(140,637,o),
(108,530,cs),
(80,434,o),
(57,315,o),
(57,223,cs),
(57,104,o),
(132,-12,o),
(278,-12,cs),
(296,-12,o),
(312,-11,o),
(326,-9,c),
(364,-118,l)
);
},
{
closed = 1;
nodes = (
(213,87,o),
(164,137,o),
(164,222,cs),
(164,292,o),
(188,436,o),
(209,504,cs),
(235,583,o),
(291,611,o),
(351,611,cs),
(428,611,o),
(476,563,o),
(476,482,cs),
(476,405,o),
(455,264,o),
(432,192,cs),
(422,161,o),
(408,140,o),
(389,124,c),
(339,268,l),
(247,227,l),
(277,140,l),
(309,113,ls),
(317,106,o),
(318,98,o),
(311,93,cs),
(306,89,o),
(297,87,o),
(285,87,cs)
);
}
);
width = 611.6;
},
{
anchors = (
{
name = bottom;
pos = (278,0);
},
{
name = top;
pos = (377,700);
}
);
background = {
shapes = (
{
closed = 1;
nodes = (
(474,-48,l),
(444,36,l),
(511,65,o),
(552,117,o),
(572,183,cs),
(597,267,o),
(616,375,o),
(616,482,cs),
(616,585,o),
(527,712,o),
(362,712,cs),
(210,712,o),
(117,631,o),
(83,517,cs),
(53,420,o),
(40,324,o),
(40,206,cs),
(40,113,o),
(127,-12,o),
(293,-12,cs),
(294,-12,o),
(288,-13,o),
(283,-15,c),
(312,-118,l)
);
},
{
closed = 1;
nodes = (
(264,161,o),
(231,194,o),
(231,224,cs),
(231,260,o),
(269,468,o),
(270,475,cs),
(277,502,o),
(320,531,o),
(351,531,cs),
(392,531,o),
(424,508,o),
(424,472,cs),
(424,434,o),
(390,243,o),
(380,209,cs),
(382,220,o),
(387,222,o),
(391,221,c),
(368,304,l),
(218,238,l),
(220,207,l),
(289,168,ls),
(293,166,o),
(291,167,o),
(291,165,cs),
(291,164,o),
(295,161,o),
(295,161,cs)
);
}
);
};
layerId = "0E062E17-1137-409C-98D3-1192050A59FC";
shapes = (
{
closed = 1;
nodes = (
(470,-92,l),
(448,15,l),
(521,49,o),
(568,110,o),
(592,183,cs),
(619,273,o),
(636,385,o),
(636,484,cs),
(636,593,o),
(548,712,o),
(364,712,cs),
(210,712,o),
(119,629,o),
(83,517,cs),
(56,427,o),
(39,315,o),
(39,216,cs),
(39,109,o),
(124,-8,o),
(302,-12,cs),
(305,-12,o),
(308,-12,o),
(311,-12,c),
(332,-118,l)
);
},
{
closed = 1;
nodes = (
(257,164,o),
(235,190,o),
(235,230,cs),
(235,280,o),
(250,373,o),
(271,458,cs),
(282,499,o),
(312,529,o),
(359,529,cs),
(417,529,o),
(437,496,o),
(437,458,cs),
(437,431,o),
(425,336,o),
(407,255,cs),
(406,250,o),
(404,244,o),
(403,239,c),
(391,300,l),
(253,274,l),
(265,213,l),
(284,175,ls),
(286,171,o),
(286,167,o),
(282,165,cs),
(280,164,o),
(279,164,o),
(278,164,cs)
);
}
);
width = 649;
}
);
metricLeft = O;
metricRight = O;
unicode = 81;
userData = {
KernOnName = Q;
com.schriftgestaltung.Glyphs.ColorIndex = 3;
com.schriftgestaltung.Glyphs.layer.leftMetricsKey = "==O";
com.schriftgestaltung.Glyphs.layer.rightMetricsKey = "==O";
com.schriftgestaltung.Glyphs.leftMetricsKey = O;
com.schriftgestaltung.Glyphs.rightMetricsKey = O;
};
},
{
glyphname = R;
kernLeft = KO_H;
kernRight = KO_R;
lastChange = "2025-01-20 07:45:44 +0000";
layers = (
{
anchors = (
{
name = bottom;
pos = (233,0);
},
{
name = top;
pos = (323,675);
}
);
background = {
shapes = (
{
closed = 1;
nodes = (
(375,700,l),
(169,700,l),
(72,0,l),
(92,0,l),
(187,678,l),
(375,678,l)
);
},
{
closed = 1;
nodes = (
(337,361,l),
(136,361,l),
(130,339,l),
(335,339,l),
(408,0,l),
(441,0,l),
(393,227,l),
(361,324,ls),
(358,332,o),
(360,340,o),
(371,342,c)
);
},
{
closed = 1;
nodes = (
(371,342,l),
(480,363,o),
(530,445,o),
(530,544,cs),
(530,622,o),
(484,700,o),
(375,700,c),
(375,678,l),
(445,678,o),
(505,640,o),
(505,544,cs),
(505,405,o),
(412,361,o),
(337,361,c)
);
}
);
};
layerId = "3FAB31A8-66C0-4840-B78B-D12B5ED553F3";
shapes = (
{
closed = 1;
nodes = (
(94,0,l),
(142,339,l),
(356,339,l),
(430,0,l),
(455,0,l),
(392,274,l),
(375,323,ls),
(372,333,o),
(376,340,o),
(385,341,cs),
(495,362,o),
(546,440,o),
(546,535,cs),
(546,618,o),
(497,700,o),
(381,700,cs),
(169,700,l),
(70,0,l)
);
},
{
closed = 1;
nodes = (
(190,678,l),
(381,678,ls),
(456,678,o),
(521,637,o),
(521,535,cs),
(521,403,o),
(426,361,o),
(349,361,cs),
(145,361,l)
);
}
);
width = 553;
},
{
anchors = (
{
name = bottom;
pos = (261,0);
},
{
name = top;
pos = (358,687);
}
);
layerId = "DF61F520-A841-4152-8991-D5A31692CC39";
shapes = (
{
closed = 1;
nodes = (
(166,0,l),
(207,299,l),
(315,299,l),
(382,0,l),
(497,0,l),
(447,227,l),
(417,289,ls),
(413,299,o),
(417,305,o),
(428,308,cs),
(526,338,o),
(585,418,o),
(585,516,cs),
(585,622,o),
(516,700,o),
(394,700,cs),
(152,700,l),
(54,0,l)
);
},
{
closed = 1;
nodes = (
(250,606,l),
(382,606,ls),
(443,606,o),
(482,575,o),
(482,512,cs),
(482,432,o),
(435,394,o),
(359,394,cs),
(221,394,l)
);
}
);
width = 585;
},
{
anchors = (
{
name = bottom;
pos = (287,0);
},
{
name = top;
pos = (387,700);
}
);
layerId = "0E062E17-1137-409C-98D3-1192050A59FC";
shapes = (
{
closed = 1;
nodes = (
(242,0,l),
(279,259,l),
(308,259,l),
(351,0,l),
(554,0,l),
(500,227,l),
(473,256,ls),
(466,264,o),
(470,270,o),
(479,272,cs),
(584,292,o),
(647,370,o),
(647,486,cs),
(647,643,o),
(539,700,o),
(410,700,cs),
(132,700,l),
(32,0,l)
);
},
{
closed = 1;
nodes = (
(316,520,l),
(399,520,ls),
(433,520,o),
(458,508,o),
(458,465,cs),
(458,416,o),
(421,403,o),
(391,403,cs),
(300,403,l)
);
}
);
width = 637;
}
);
metricLeft = H;
unicode = 82;
userData = {
KernOnName = R;
com.schriftgestaltung.Glyphs.ColorIndex = 3;
com.schriftgestaltung.Glyphs.layer.leftMetricsKey = "==H";
com.schriftgestaltung.Glyphs.leftMetricsKey = H;
};
},
{
glyphname = S;
kernLeft = KO_S;
kernRight = KO_S;
lastChange = "2025-01-20 07:45:44 +0000";
layers = (
{
anchors = (
{
name = bottom;
pos = (179,0);
},
{
name = top;
pos = (269,675);
}
);
layerId = "3FAB31A8-66C0-4840-B78B-D12B5ED553F3";
shapes = (
{
closed = 1;
nodes = (
(326,-10,o),
(397,106,o),
(399,204,cs),
(400,288,o),
(359,341,o),
(263,379,cs),
(222,395,ls),
(158,420,o),
(120,455,o),
(120,517,cs),
(120,630,o),
(208,686,o),
(308,686,cs),
(355,686,o),
(415,672,o),
(462,644,c),
(472,664,l),
(425,692,o),
(359,708,o),
(308,708,cs),
(197,708,o),
(96,639,o),
(96,517,cs),
(96,446,o),
(141,403,o),
(211,375,cs),
(254,358,ls),
(341,324,o),
(375,276,o),
(375,204,cs),
(375,103,o),
(296,12,o),
(174,12,cs),
(118,12,o),
(55,37,o),
(12,77,c),
(4,56,l),
(50,13,o),
(115,-10,o),
(174,-10,cs)
);
}
);
width = 453.4;
},
{
anchors = (
{
name = bottom;
pos = (207,0);
},
{
name = top;
pos = (304,687);
}
);
layerId = "DF61F520-A841-4152-8991-D5A31692CC39";
shapes = (
{
closed = 1;
nodes = (
(353,-10,o),
(461,86,o),
(460,218,cs),
(459,319,o),
(403,382,o),
(296,415,cs),
(264,425,ls),
(220,439,o),
(197,466,o),
(197,504,cs),
(197,554,o),
(239,611,o),
(339,611,cs),
(381,611,o),
(433,599,o),
(480,568,c),
(512,658,l),
(466,689,o),
(404,711,o),
(335,711,cs),
(179,711,o),
(88,614,o),
(88,502,cs),
(88,403,o),
(158,345,o),
(241,320,cs),
(277,308,ls),
(328,292,o),
(352,259,o),
(352,218,cs),
(352,153,o),
(294,91,o),
(208,91,cs),
(147,91,o),
(90,110,o),
(41,149,c),
(4,56,l),
(51,19,o),
(122,-10,o),
(207,-10,cs)
);
}
);
width = 505;
},
{
anchors = (
{
name = bottom;
pos = (245,0);
},
{
name = top;
pos = (343,700);
}
);
layerId = "0E062E17-1137-409C-98D3-1192050A59FC";
shapes = (
{
closed = 1;
nodes = (
(392,-10,o),
(533,62,o),
(529,246,cs),
(526,353,o),
(455,419,o),
(328,451,cs),
(304,457,ls),
(283,462,o),
(274,473,o),
(274,488,cs),
(274,508,o),
(290,533,o),
(353,533,cs),
(422,533,o),
(468,519,o),
(513,500,c),
(570,661,l),
(524,691,o),
(443,713,o),
(337,713,cs),
(188,713,o),
(69,624,o),
(69,462,cs),
(69,350,o),
(145,291,o),
(250,265,cs),
(282,257,ls),
(312,250,o),
(323,238,o),
(323,220,cs),
(323,193,o),
(295,169,o),
(239,169,cs),
(172,169,o),
(140,178,o),
(64,215,c),
(8,51,l),
(73,12,o),
(148,-10,o),
(247,-10,cs)
);
}
);
width = 570;
}
);
unicode = 83;
userData = {
KernOnName = S;
com.schriftgestaltung.Glyphs.ColorIndex = 3;
com.typemytype.robofont.layerData = {
background = {
anchors = (
);
components = (
);
contours = (
{
points = (
{
smooth = 0;
x = 389;
y = 562;
},
{
smooth = 0;
x = 346;
y = 574;
},
{
segmentType = curve;
smooth = 1;
x = 290;
y = 574;
},
{
smooth = 0;
x = 204;
y = 574;
},
{
smooth = 0;
x = 174;
y = 537;
},
{
segmentType = curve;
smooth = 1;
x = 174;
y = 499;
},
{
smooth = 0;
x = 174;
y = 463;
},
{
smooth = 0;
x = 196;
y = 444;
},
{
segmentType = curve;
smooth = 1;
x = 238;
y = 441;
},
{
segmentType = line;
smooth = 1;
x = 311;
y = 435;
},
{
smooth = 0;
x = 434;
y = 425;
},
{
smooth = 0;
x = 509;
y = 341;
},
{
segmentType = curve;
smooth = 1;
x = 509;
y = 224;
},
{
smooth = 0;
x = 509;
y = 82;
},
{
smooth = 0;
x = 419;
y = -10;
},
{
segmentType = curve;
smooth = 1;
x = 249;
y = -10;
},
{
smooth = 0;
x = 154;
y = -10;
},
{
smooth = 0;
x = 93;
y = 11;
},
{
segmentType = curve;
smooth = 0;
x = 23;
y = 64;
},
{
segmentType = line;
smooth = 0;
x = 69;
y = 190;
},
{
smooth = 0;
x = 135;
y = 143;
},
{
smooth = 0;
x = 175;
y = 128;
},
{
segmentType = curve;
smooth = 1;
x = 245;
y = 128;
},
{
smooth = 0;
x = 318;
y = 128;
},
{
smooth = 0;
x = 359;
y = 160;
},
{
segmentType = curve;
smooth = 1;
x = 359;
y = 218;
},
{
smooth = 0;
x = 359;
y = 259;
},
{
smooth = 0;
x = 335;
y = 287;
},
{
segmentType = curve;
smooth = 1;
x = 280;
y = 292;
},
{
segmentType = line;
smooth = 1;
x = 210;
y = 298;
},
{
smooth = 0;
x = 103;
y = 307;
},
{
smooth = 0;
x = 24;
y = 377;
},
{
segmentType = curve;
smooth = 1;
x = 24;
y = 489;
},
{
smooth = 0;
x = 24;
y = 615;
},
{
smooth = 0;
x = 112;
y = 712;
},
{
segmentType = curve;
smooth = 1;
x = 285;
y = 712;
},
{
smooth = 0;
x = 378;
y = 712;
},
{
smooth = 0;
x = 435;
y = 686;
},
{
segmentType = curve;
smooth = 0;
x = 483;
y = 655;
},
{
segmentType = line;
smooth = 0;
x = 439;
y = 537;
}
);
}
);
lib = {
};
name = S;
unicodes = (
);
width = 503;
};
};
};
},
{
glyphname = Sdotbelowdotaccent;
lastChange = "2026-02-06 13:22:02 +0000";
layers = (
{
anchors = (
{
name = bottom;
pos = (155,-167);
},
{
name = top;
pos = (292,838);
}
);
layerId = "3FAB31A8-66C0-4840-B78B-D12B5ED553F3";
shapes = (
{
closed = 1;
nodes = (
(166,-173,l),
(179,-85,l),
(155,-85,l),
(142,-173,l)
);
},
{
closed = 1;
nodes = (
(298,795,l),
(311,883,l),
(287,883,l),
(274,795,l)
);
},
{
ref = S;
}
);
width = 453;
},
{
anchors = (
{
name = bottom;
pos = (180,-194);
},
{
name = top;
pos = (332,883);
}
);
layerId = "DF61F520-A841-4152-8991-D5A31692CC39";
shapes = (
{
closed = 1;
nodes = (
(234,-193,l),
(249,-85,l),
(141,-85,l),
(126,-193,l)
);
},
{
closed = 1;
nodes = (
(371,775,l),
(386,883,l),
(278,883,l),
(263,775,l)
);
},
{
ref = S;
}
);
width = 505;
},
{
anchors = (
{
name = bottom;
pos = (217,-200);
},
{
name = top;
pos = (369,883);
}
);
layerId = "0E062E17-1137-409C-98D3-1192050A59FC";
shapes = (
{
closed = 1;
nodes = (
(315,-196,l),
(334,-63,l),
(138,-63,l),
(119,-196,l)
);
},
{
closed = 1;
nodes = (
(448,750,l),
(467,883,l),
(271,883,l),
(252,750,l)
);
},
{
ref = S;
}
);
width = 570;
}
);
unicode = 7784;
},
{
glyphname = Germandbls;
lastChange = "2026-03-11 15:47:28 +0000";
layers = (
{
anchors = (
{
name = bottom;
pos = (246,0);
},
{
name = top;
pos = (345,675);
}
);
layerId = "3FAB31A8-66C0-4840-B78B-D12B5ED553F3";
shapes = (
{
closed = 1;
nodes = (
(36,0,l),
(135,700,l),
(114,700,l),
(15,0,l)
);
},
{
closed = 1;
nodes = (
(429,-8,o),
(523,67,o),
(539,177,cs),
(558,314,o),
(476,395,o),
(290,389,c),
(296,380,l),
(603,692,l),
(604,700,l),
(125,700,l),
(122,678,l),
(553,678,ls),
(559,678,o),
(560,673,o),
(553,667,cs),
(513,633,l),
(269,380,l),
(267,369,l),
(313,369,ls),
(463,369,o),
(533,298,o),
(517,182,cs),
(503,80,o),
(418,14,o),
(313,14,cs),
(266,14,o),
(218,30,o),
(189,56,c),
(177,39,l),
(213,10,o),
(261,-8,o),
(311,-8,cs)
);
}
);
width = 620;
},
{
anchors = (
{
name = bottom;
pos = (305,0);
},
{
name = top;
pos = (401,687);
}
);
layerId = "DF61F520-A841-4152-8991-D5A31692CC39";
shapes = (
{
closed = 1;
nodes = (
(129,0,l),
(227,700,l),
(113,700,l),
(15,0,l)
);
},
{
closed = 1;
nodes = (
(520,-8,o),
(631,38,o),
(654,197,cs),
(673,330,o),
(586,415,o),
(414,418,c),
(442,381,l),
(683,632,l),
(693,700,l),
(175,700,l),
(162,606,l),
(519,606,ls),
(528,606,o),
(530,600,o),
(522,593,cs),
(483,561,l),
(335,385,l),
(326,321,l),
(404,321,ls),
(517,321,o),
(557,277,o),
(547,207,cs),
(537,139,o),
(486,93,o),
(398,93,cs),
(349,93,o),
(311,109,o),
(281,139,c),
(232,47,l),
(277,15,o),
(335,-8,o),
(408,-8,cs)
);
}
);
width = 709;
},
{
anchors = (
{
name = bottom;
pos = (347,0);
},
{
name = top;
pos = (445,700);
}
);
layerId = "0E062E17-1137-409C-98D3-1192050A59FC";
shapes = (
{
closed = 1;
nodes = (
(224,0,l),
(322,700,l),
(111,700,l),
(13,0,l)
);
},
{
closed = 1;
nodes = (
(559,-11,o),
(712,58,o),
(732,204,cs),
(748,315,o),
(676,403,o),
(570,420,c),
(557,377,l),
(743,559,l),
(763,700,l),
(256,700,l),
(232,530,l),
(475,530,ls),
(489,530,o),
(493,517,o),
(480,507,cs),
(451,485,l),
(382,410,l),
(365,292,l),
(458,292,ls),
(520,292,o),
(560,273,o),
(553,223,cs),
(547,183,o),
(504,166,o),
(443,166,cs),
(412,166,o),
(386,170,o),
(348,193,c),
(265,27,l),
(318,-4,o),
(375,-11,o),
(442,-11,cs)
);
}
);
width = 775;
}
);
metricLeft = I;
metricRight = B;
unicode = 7838;
},
{
glyphname = T;
kernLeft = KO_T;
kernRight = KO_T;
lastChange = "2025-01-20 07:45:44 +0000";
layers = (
{
anchors = (
{
name = bottom;
pos = (187,0);
},
{
name = bottomright;
pos = (200,0);
},
{
name = center;
pos = (236,350);
},
{
name = top;
pos = (277,675);
}
);
layerId = "3FAB31A8-66C0-4840-B78B-D12B5ED553F3";
shapes = (
{
closed = 1;
nodes = (
(200,0,l),
(296,678,l),
(485,678,l),
(488,700,l),
(86,700,l),
(83,678,l),
(272,678,l),
(176,0,l)
);
}
);
width = 446;
},
{
anchors = (
{
name = bottom;
pos = (213,0);
},
{
name = bottomright;
pos = (270,0);
},
{
name = center;
pos = (262,350);
},
{
name = top;
pos = (310,687);
}
);
layerId = "DF61F520-A841-4152-8991-D5A31692CC39";
shapes = (
{
closed = 1;
nodes = (
(270,0,l),
(353,597,l),
(519,597,l),
(534,700,l),
(89,700,l),
(74,597,l),
(240,597,l),
(156,0,l)
);
}
);
width = 496.8;
},
{
anchors = (
{
name = bottom;
pos = (226,0);
},
{
name = bottomright;
pos = (331,0);
},
{
name = center;
pos = (275,350);
},
{
name = top;
pos = (325,700);
}
);
layerId = "0E062E17-1137-409C-98D3-1192050A59FC";
shapes = (
{
closed = 1;
nodes = (
(331,0,l),
(405,520,l),
(548,520,l),
(574,700,l),
(76,700,l),
(50,520,l),
(195,520,l),
(121,0,l)
);
}
);
width = 524.66667;
}
);
unicode = 84;
userData = {
KernOnName = T;
com.schriftgestaltung.Glyphs.ColorIndex = 3;
};
},
{
glyphname = U;
kernLeft = KO_U;
kernRight = KO_U;
lastChange = "2025-01-20 07:45:44 +0000";
layers = (
{
anchors = (
{
name = bottom;
pos = (274,0);
},
{
name = ogonek;
pos = (350,0);
},
{
name = top;
pos = (364,675);
},
{
name = topright;
pos = (572,700);
}
);
background = {
shapes = (
{
closed = 1;
nodes = (
(392,-10,o),
(486,71,o),
(503,189,cs),
(574,700,l),
(550,700,l),
(478,189,ls),
(463,85,o),
(382,12,o),
(274,12,cs),
(167,12,o),
(104,85,o),
(119,189,cs),
(193,700,l),
(169,700,l),
(97,189,ls),
(80,71,o),
(151,-10,o),
(271,-10,cs)
);
}
);
};
layerId = "3FAB31A8-66C0-4840-B78B-D12B5ED553F3";
shapes = (
{
closed = 1;
nodes = (
(399,-10,o),
(486,66,o),
(501,179,cs),
(572,700,l),
(548,700,l),
(477,182,ls),
(463,83,o),
(389,12,o),
(291,12,cs),
(178,12,o),
(106,78,o),
(125,213,cs),
(193,700,l),
(169,700,l),
(101,217,ls),
(80,70,o),
(163,-10,o),
(291,-10,cs)
);
}
);
width = 615;
},
{
anchors = (
{
name = bottom;
pos = (282,0);
},
{
name = ogonek;
pos = (361,0);
},
{
name = top;
pos = (379,687);
},
{
name = topright;
pos = (609,700);
}
);
layerId = "DF61F520-A841-4152-8991-D5A31692CC39";
shapes = (
{
closed = 1;
nodes = (
(424,-10,o),
(519,73,o),
(538,204,cs),
(609,700,l),
(495,700,l),
(426,213,ls),
(416,140,o),
(371,92,o),
(307,92,cs),
(234,92,o),
(186,135,o),
(200,233,cs),
(266,700,l),
(152,700,l),
(87,241,ls),
(65,83,o),
(160,-10,o),
(297,-10,cs)
);
}
);
width = 635;
},
{
anchors = (
{
name = bottom;
pos = (287,0);
},
{
name = ogonek;
pos = (385,0);
},
{
name = top;
pos = (387,700);
},
{
name = topright;
pos = (644,700);
}
);
layerId = "0E062E17-1137-409C-98D3-1192050A59FC";
shapes = (
{
closed = 1;
nodes = (
(451,-10,o),
(551,81,o),
(572,221,cs),
(644,700,l),
(435,700,l),
(362,217,ls),
(359,198,o),
(346,174,o),
(316,174,cs),
(285,174,o),
(268,195,o),
(273,230,cs),
(339,700,l),
(130,700,l),
(66,245,ls),
(44,91,o),
(152,-10,o),
(306,-10,cs)
);
}
);
width = 650;
}
);
metricLeft = H;
metricRight = H;
unicode = 85;
userData = {
com.schriftgestaltung.Glyphs.ColorIndex = 3;
};
},
{
glyphname = Uhorn;
kernLeft = KO_U;
lastChange = "2026-02-06 13:22:15 +0000";
layers = (
{
anchors = (
{
name = bottom;
pos = (274,0);
},
{
name = ogonek;
pos = (350,0);
},
{
name = top;
pos = (364,675);
},
{
name = topright;
pos = (671,784);
}
);
layerId = "3FAB31A8-66C0-4840-B78B-D12B5ED553F3";
shapes = (
{
closed = 1;
nodes = (
(399,-10,o),
(486,66,o),
(501,179,cs),
(572,700,l),
(548,700,l),
(477,182,ls),
(463,83,o),
(389,12,o),
(291,12,cs),
(178,12,o),
(106,78,o),
(125,213,cs),
(193,700,l),
(169,700,l),
(101,217,ls),
(80,70,o),
(163,-10,o),
(291,-10,cs)
);
},
{
closed = 1;
nodes = (
(613,680,o),
(661,710,o),
(671,784,c),
(649,784,l),
(641,722,o),
(608,700,o),
(572,700,c),
(552,700,l),
(549,680,l),
(569,680,l)
);
}
);
width = 615;
},
{
anchors = (
{
name = bottom;
pos = (282,0);
},
{
name = ogonek;
pos = (361,0);
},
{
name = top;
pos = (379,687);
},
{
name = topright;
pos = (749,790);
}
);
layerId = "DF61F520-A841-4152-8991-D5A31692CC39";
shapes = (
{
closed = 1;
nodes = (
(424,-10,o),
(519,73,o),
(538,204,cs),
(609,700,l),
(495,700,l),
(426,213,ls),
(416,140,o),
(371,92,o),
(307,92,cs),
(234,92,o),
(186,135,o),
(200,233,cs),
(266,700,l),
(152,700,l),
(87,241,ls),
(65,83,o),
(160,-10,o),
(297,-10,cs)
);
},
{
closed = 1;
nodes = (
(664,640,o),
(733,673,o),
(749,790,c),
(674,790,l),
(663,714,o),
(638,700,o),
(609,700,c),
(561,700,l),
(553,640,l),
(601,640,l)
);
}
);
width = 635;
},
{
anchors = (
{
name = bottom;
pos = (287,0);
},
{
name = ogonek;
pos = (385,0);
},
{
name = top;
pos = (387,700);
},
{
name = topright;
pos = (820,794);
}
);
layerId = "0E062E17-1137-409C-98D3-1192050A59FC";
shapes = (
{
closed = 1;
nodes = (
(451,-10,o),
(551,81,o),
(572,221,cs),
(644,700,l),
(435,700,l),
(362,217,ls),
(359,198,o),
(346,174,o),
(316,174,cs),
(285,174,o),
(268,195,o),
(273,230,cs),
(339,700,l),
(130,700,l),
(66,245,ls),
(44,91,o),
(152,-10,o),
(306,-10,cs)
);
},
{
closed = 1;
nodes = (
(713,612,o),
(800,652,o),
(820,794,c),
(690,794,l),
(678,714,o),
(662,700,o),
(644,700,c),
(564,700,l),
(552,612,l),
(632,612,l)
);
}
);
width = 650;
}
);
unicode = 431;
},
{
glyphname = V;
kernLeft = KO_V;
kernRight = KO_V;
lastChange = "2025-01-20 07:45:44 +0000";
layers = (
{
anchors = (
{
name = bottom;
pos = (238,0);
},
{
name = top;
pos = (328,675);
}
);
layerId = "3FAB31A8-66C0-4840-B78B-D12B5ED553F3";
shapes = (
{
closed = 1;
nodes = (
(232,0,l),
(574,700,l),
(547,700,l),
(232,50,ls),
(228,41,o),
(219,43,o),
(219,53,cs),
(218,96,l),
(122,700,l),
(98,700,l),
(208,0,l)
);
}
);
width = 544;
},
{
anchors = (
{
name = bottom;
pos = (238,0);
},
{
name = top;
pos = (335,687);
}
);
layerId = "DF61F520-A841-4152-8991-D5A31692CC39";
shapes = (
{
closed = 1;
nodes = (
(323,0,l),
(589,700,l),
(473,700,l),
(255,101,ls),
(251,90,o),
(239,92,o),
(240,103,cs),
(242,219,l),
(195,700,l),
(83,700,l),
(156,0,l)
);
}
);
width = 546;
},
{
anchors = (
{
name = bottom;
pos = (252,0);
},
{
name = top;
pos = (351,700);
}
);
layerId = "0E062E17-1137-409C-98D3-1192050A59FC";
shapes = (
{
closed = 1;
nodes = (
(409,0,l),
(620,700,l),
(409,700,l),
(290,185,ls),
(286,171,o),
(267,173,o),
(269,187,cs),
(290,363,l),
(284,700,l),
(82,700,l),
(115,0,l)
);
}
);
width = 578;
}
);
unicode = 86;
userData = {
KernOnName = V;
com.schriftgestaltung.Glyphs.ColorIndex = 3;
};
},
{
glyphname = W;
kernLeft = KO_W;
kernRight = KO_W;
lastChange = "2025-01-19 17:48:57 +0000";
layers = (
{
anchors = (
{
name = bottom;
pos = (284,0);
},
{
name = top;
pos = (374,675);
}
);
layerId = "3FAB31A8-66C0-4840-B78B-D12B5ED553F3";
shapes = (
{
closed = 1;
nodes = (
(184,0,l),
(339,439,ls),
(343,450,o),
(355,449,o),
(356,437,cs),
(397,0,l),
(434,0,l),
(668,700,l),
(643,700,l),
(426,50,ls),
(422,39,o),
(413,40,o),
(412,51,cs),
(372,492,l),
(335,492,l),
(176,49,ls),
(173,42,o),
(163,43,o),
(164,52,cs),
(168,92,l),
(135,700,l),
(111,700,l),
(148,0,l)
);
}
);
width = 635;
},
{
anchors = (
{
name = bottom;
pos = (277,0);
},
{
name = top;
pos = (374,687);
}
);
layerId = "DF61F520-A841-4152-8991-D5A31692CC39";
shapes = (
{
closed = 1;
nodes = (
(196,0,l),
(301,274,ls),
(306,287,o),
(319,286,o),
(321,273,cs),
(352,0,l),
(463,0,l),
(657,700,l),
(549,700,l),
(421,203,ls),
(418,192,o),
(407,192,o),
(405,205,cs),
(375,504,l),
(312,504,l),
(191,205,ls),
(187,194,o),
(175,197,o),
(176,208,cs),
(192,313,l),
(192,700,l),
(86,700,l),
(85,0,l)
);
}
);
width = 625;
},
{
anchors = (
{
name = bottom;
pos = (292,0);
},
{
name = top;
pos = (392,700);
}
);
background = {
shapes = (
{
closed = 1;
nodes = (
(258,0,l),
(311,177,ls),
(312,182,o),
(324,182,o),
(325,177,cs),
(328,0,l),
(543,0,l),
(696,700,l),
(496,700,l),
(473,534,l),
(442,308,ls),
(439,289,o),
(423,294,o),
(422,303,cs),
(426,517,l),
(304,517,l),
(249,303,ls),
(247,294,o),
(229,291,o),
(231,308,cs),
(264,534,l),
(286,700,l),
(86,700,l),
(43,0,l)
);
}
);
};
layerId = "0E062E17-1137-409C-98D3-1192050A59FC";
shapes = (
{
closed = 1;
nodes = (
(241,0,l),
(297,171,ls),
(301,184,o),
(315,181,o),
(316,168,cs),
(334,0,l),
(564,0,l),
(698,700,l),
(491,700,l),
(433,296,ls),
(431,283,o),
(412,282,o),
(412,297,cs),
(405,517,l),
(323,517,l),
(242,298,ls),
(236,282,o),
(217,285,o),
(220,301,cs),
(271,562,l),
(285,700,l),
(78,700,l),
(25,0,l)
);
}
);
width = 652;
}
);
unicode = 87;
userData = {
com.schriftgestaltung.Glyphs.ColorIndex = 3;
};
},
{
glyphname = X;
kernLeft = KO_X;
kernRight = KO_X;
lastChange = "2026-03-11 15:47:28 +0000";
layers = (
{
anchors = (
{
name = bottom;
pos = (234,0);
},
{
name = bottomright;
pos = (463,0);
},
{
name = top;
pos = (324,675);
}
);
background = {
shapes = (
{
closed = 1;
nodes = (
(447,0,l),
(473,0,l),
(124,700,l),
(98,700,l)
);
}
);
};
layerId = "3FAB31A8-66C0-4840-B78B-D12B5ED553F3";
shapes = (
{
closed = 1;
nodes = (
(32,0,l),
(280,325,ls),
(284,330,o),
(290,329,o),
(292,323,cs),
(312,272,l),
(447,0,l),
(473,0,l),
(299,351,l),
(569,700,l),
(539,700,l),
(290,378,ls),
(286,373,o),
(280,374,o),
(278,380,cs),
(257,431,l),
(124,700,l),
(98,700,l),
(271,352,l),
(2,0,l)
);
}
);
width = 542;
},
{
anchors = (
{
name = bottom;
pos = (236,0);
},
{
name = bottomright;
pos = (439,0);
},
{
name = top;
pos = (333,687);
}
);
layerId = "DF61F520-A841-4152-8991-D5A31692CC39";
shapes = (
{
closed = 1;
nodes = (
(111,0,l),
(280,292,ls),
(286,302,o),
(294,302,o),
(295,292,cs),
(302,218,l),
(367,0,l),
(479,0,l),
(365,366,l),
(578,700,l),
(450,700,l),
(284,418,ls),
(279,409,o),
(271,409,o),
(270,419,cs),
(263,498,l),
(208,700,l),
(93,700,l),
(202,350,l),
(-15,0,l)
);
}
);
width = 535;
},
{
anchors = (
{
name = bottom;
pos = (265,0);
},
{
name = bottomright;
pos = (500,0);
},
{
name = top;
pos = (365,700);
}
);
background = {
shapes = (
{
closed = 1;
nodes = (
(199,0,l),
(267,187,l),
(291,289,ls),
(296,306,o),
(311,306,o),
(310,289,cs),
(307,187,l),
(323,0,l),
(542,0,l),
(474,358,l),
(640,700,l),
(421,700,l),
(355,530,l),
(330,427,ls),
(326,412,o),
(310,412,o),
(311,427,cs),
(315,530,l),
(297,700,l),
(78,700,l),
(144,358,l),
(-20,0,l)
);
}
);
};
layerId = "0E062E17-1137-409C-98D3-1192050A59FC";
shapes = (
{
closed = 1;
nodes = (
(204,0,l),
(314,283,ls),
(319,295,o),
(331,290,o),
(330,279,cs),
(323,179,l),
(335,0,l),
(540,0,l),
(490,364,l),
(656,700,l),
(433,700,l),
(304,407,ls),
(298,394,o),
(287,399,o),
(289,412,cs),
(307,515,l),
(288,700,l),
(82,700,l),
(137,360,l),
(-16,0,l)
);
}
);
width = 614;
}
);
metricLeft = V;
metricRight = V;
unicode = 88;
userData = {
KernOnName = X;
com.schriftgestaltung.Glyphs.ColorIndex = 3;
com.schriftgestaltung.Glyphs.layer.leftMetricsKey = "==V";
com.schriftgestaltung.Glyphs.layer.rightMetricsKey = "==V";
com.schriftgestaltung.Glyphs.leftMetricsKey = T;
com.schriftgestaltung.Glyphs.rightMetricsKey = T;
};
},
{
glyphname = Y;
kernLeft = KO_Y;
kernRight = KO_Y;
lastChange = "2025-01-20 07:45:44 +0000";
layers = (
{
anchors = (
{
name = bottom;
pos = (196,0);
},
{
name = top;
pos = (286,675);
},
{
name = topleft;
pos = (83,700);
}
);
background = {
anchors = (
{
name = bottom;
pos = (206,0);
},
{
name = top;
pos = (300,670);
},
{
name = topleft;
pos = (83,700);
}
);
shapes = (
{
closed = 1;
nodes = (
(246,0,l),
(293,330,l),
(546,700,l),
(449,700,l),
(264,412,ls),
(259,404,o),
(251,405,o),
(250,412,cs),
(235,489,l),
(151,700,l),
(64,700,l),
(213,330,l),
(166,0,l)
);
}
);
};
layerId = "3FAB31A8-66C0-4840-B78B-D12B5ED553F3";
shapes = (
{
closed = 1;
nodes = (
(216,0,l),
(262,329,l),
(515,700,l),
(486,700,l),
(256,359,ls),
(253,354,o),
(246,355,o),
(244,361,cs),
(234,396,l),
(100,700,l),
(74,700,l),
(238,330,l),
(192,0,l)
);
}
);
width = 461.2;
},
{
anchors = (
{
name = bottom;
pos = (211,0);
},
{
name = top;
pos = (308,687);
},
{
name = topleft;
pos = (83,700);
}
);
layerId = "DF61F520-A841-4152-8991-D5A31692CC39";
shapes = (
{
closed = 1;
nodes = (
(266,0,l),
(309,300,l),
(556,700,l),
(431,700,l),
(266,414,ls),
(260,403,o),
(251,404,o),
(250,414,cs),
(239,513,l),
(177,700,l),
(64,700,l),
(197,300,l),
(154,0,l)
);
}
);
width = 492.4;
},
{
anchors = (
{
name = bottom;
pos = (226,0);
},
{
name = top;
pos = (325,700);
},
{
name = topleft;
pos = (83,700);
}
);
background = {
shapes = (
{
closed = 1;
nodes = (
(326,0,l),
(357,225,l),
(587,700,l),
(375,700,l),
(278,424,ls),
(272,408,o),
(257,409,o),
(259,424,cs),
(273,537,l),
(257,700,l),
(62,700,l),
(147,225,l),
(116,0,l)
);
}
);
};
layerId = "0E062E17-1137-409C-98D3-1192050A59FC";
shapes = (
{
closed = 1;
nodes = (
(326,0,l),
(357,225,l),
(587,700,l),
(375,700,l),
(278,415,ls),
(273,399,o),
(257,400,o),
(259,415,cs),
(273,537,l),
(257,700,l),
(62,700,l),
(147,225,l),
(116,0,l)
);
}
);
width = 525.33333;
}
);
unicode = 89;
userData = {
KernOnName = Y;
com.schriftgestaltung.Glyphs.ColorIndex = 3;
};
},
{
glyphname = Z;
kernLeft = KO_Z;
kernRight = KO_Z;
lastChange = "2026-03-11 15:47:28 +0000";
layers = (
{
anchors = (
{
name = bottom;
pos = (185,0);
},
{
name = top;
pos = (275,675);
}
);
layerId = "3FAB31A8-66C0-4840-B78B-D12B5ED553F3";
shapes = (
{
closed = 1;
nodes = (
(370,0,l),
(373,22,l),
(30,22,ls),
(27,22,o),
(25,28,o),
(29,33,cs),
(67,86,l),
(465,682,l),
(467,700,l),
(108,700,l),
(93,581,l),
(117,581,l),
(130,678,l),
(430,678,ls),
(437,678,o),
(436,671,o),
(434,668,cs),
(408,639,l),
(-7,18,l),
(-7,0,l)
);
}
);
width = 431;
},
{
anchors = (
{
name = bottom;
pos = (207,0);
},
{
name = top;
pos = (304,687);
}
);
layerId = "DF61F520-A841-4152-8991-D5A31692CC39";
shapes = (
{
closed = 1;
nodes = (
(427,0,l),
(441,103,l),
(147,103,ls),
(139,103,o),
(137,111,o),
(144,118,cs),
(193,172,l),
(515,632,l),
(524,700,l),
(95,700,l),
(71,530,l),
(173,530,l),
(183,606,l),
(372,606,ls),
(381,606,o),
(382,597,o),
(376,592,cs),
(330,543,l),
(-1,68,l),
(-10,0,l)
);
}
);
width = 487;
},
{
anchors = (
{
name = bottom;
pos = (238,0);
},
{
name = top;
pos = (336,700);
}
);
layerId = "0E062E17-1137-409C-98D3-1192050A59FC";
shapes = (
{
closed = 1;
nodes = (
(496,0,l),
(521,180,l),
(262,180,ls),
(240,180,o),
(242,197,o),
(261,205,cs),
(318,230,l),
(571,539,l),
(594,700,l),
(87,700,l),
(54,465,l),
(225,465,l),
(233,520,l),
(326,520,ls),
(345,520,o),
(346,506,o),
(328,494,cs),
(268,455,l),
(17,161,l),
(-5,0,l)
);
}
);
width = 556;
}
);
metricLeft = "=I/2";
metricRight = "=I/2";
unicode = 90;
userData = {
com.schriftgestaltung.Glyphs.ColorIndex = 3;
com.schriftgestaltung.Glyphs.layer.leftMetricsKey = "==H/2";
com.schriftgestaltung.Glyphs.layer.rightMetricsKey = "==H/2";
};
},
{
color = 9;
glyphname = Z.ss01;
kernRight = KO_Z;
lastChange = "2025-01-19 15:33:47 +0000";
layers = (
{
anchors = (
{
name = bottom;
pos = (207,0);
},
{
name = center;
pos = (256,350);
},
{
name = top;
pos = (304,675);
}
);
layerId = "3FAB31A8-66C0-4840-B78B-D12B5ED553F3";
shapes = (
{
closed = 1;
nodes = (
(397,0,l),
(400,22,l),
(57,22,ls),
(54,22,o),
(52,28,o),
(56,33,cs),
(94,86,l),
(492,682,l),
(494,700,l),
(135,700,l),
(133,678,l),
(457,678,ls),
(464,678,o),
(463,671,o),
(461,668,cs),
(435,639,l),
(20,18,l),
(20,0,l)
);
}
);
width = 483;
},
{
anchors = (
{
name = bottom;
pos = (225,0);
},
{
name = center;
pos = (274,350);
},
{
name = top;
pos = (324,687);
}
);
layerId = "DF61F520-A841-4152-8991-D5A31692CC39";
shapes = (
{
closed = 1;
nodes = (
(443,0,l),
(457,103,l),
(163,103,ls),
(155,103,o),
(153,111,o),
(160,118,cs),
(209,172,l),
(531,632,l),
(540,700,l),
(111,700,l),
(97,606,l),
(388,606,l),
(397,606,o),
(398,597,o),
(392,592,cs),
(346,543,l),
(15,68,l),
(6,0,l)
);
}
);
width = 519;
},
{
anchors = (
{
name = bottom;
pos = (245,0);
},
{
name = center;
pos = (294,350);
},
{
name = top;
pos = (342,700);
}
);
layerId = "0E062E17-1137-409C-98D3-1192050A59FC";
shapes = (
{
closed = 1;
nodes = (
(497,0,l),
(522,180,l),
(263,180,ls),
(241,180,o),
(243,197,o),
(262,205,cs),
(319,230,l),
(572,539,l),
(595,700,l),
(88,700,l),
(63,520,l),
(327,520,ls),
(346,520,o),
(347,506,o),
(329,494,cs),
(269,455,l),
(18,161,l),
(-4,0,l)
);
}
);
width = 557;
}
);
},
{
glyphname = Saltillo;
lastChange = "2025-01-19 17:48:57 +0000";
layers = (
{
layerId = "3FAB31A8-66C0-4840-B78B-D12B5ED553F3";
shapes = (
{
closed = 1;
nodes = (
(79,370,l),
(126,700,l),
(104,700,l),
(57,370,l)
);
}
);
width = 102;
},
{
layerId = "DF61F520-A841-4152-8991-D5A31692CC39";
shapes = (
{
closed = 1;
nodes = (
(164,312,l),
(219,700,l),
(129,700,l),
(74,312,l)
);
}
);
width = 222;
},
{
layerId = "0E062E17-1137-409C-98D3-1192050A59FC";
shapes = (
{
closed = 1;
nodes = (
(204,257,l),
(266,700,l),
(112,700,l),
(50,257,l)
);
}
);
width = 254;
}
);
metricLeft = quotesingle;
metricRight = quotesingle;
unicode = 42891;
},
{
glyphname = a;
kernLeft = KO_a;
kernRight = KO_a;
lastChange = "2025-01-20 07:45:44 +0000";
layers = (
{
anchors = (
{
name = bottom;
pos = (211,0);
},
{
name = ogonek;
pos = (434,-8);
},
{
name = top;
pos = (301,500);
}
);
background = {
shapes = (
{
pos = (-13,0);
ref = q;
}
);
};
layerId = "3FAB31A8-66C0-4840-B78B-D12B5ED553F3";
shapes = (
{
closed = 1;
nodes = (
(255,-11,o),
(287,-3,o),
(324,24,c),
(333,35,l),
(338,40,o),
(343,40,o),
(348,37,cs),
(434,-8,l),
(444,13,l),
(365,55,l),
(425,494,l),
(406,489,ls),
(400,487,o),
(396,488,o),
(390,490,cs),
(376,496,l),
(356,500,o),
(328,504,o),
(294,504,cs),
(222,504,o),
(139,472,o),
(101,364,cs),
(83,314,o),
(65,220,o),
(65,159,cs),
(65,58,o),
(116,-11,o),
(210,-11,cs)
);
},
{
closed = 1;
nodes = (
(130,12,o),
(89,77,o),
(89,162,cs),
(89,218,o),
(106,301,o),
(123,354,cs),
(154,451,o),
(224,482,o),
(294,482,cs),
(339,482,o),
(378,474,o),
(398,466,c),
(343,66,l),
(293,23,o),
(260,12,o),
(212,12,cs)
);
}
);
width = 489;
},
{
anchors = (
{
name = bottom;
pos = (232,0);
},
{
name = ogonek;
pos = (440,-10);
},
{
name = top;
pos = (321,504);
}
);
layerId = "DF61F520-A841-4152-8991-D5A31692CC39";
shapes = (
{
closed = 1;
nodes = (
(236,-10,o),
(254,-4,o),
(306,22,c),
(322,39,ls),
(325,43,o),
(331,44,o),
(336,41,cs),
(440,-10,l),
(485,81,l),
(426,110,l),
(481,508,l),
(406,500,ls),
(399,499,o),
(395,499,o),
(390,500,cs),
(353,511,l),
(333,513,o),
(318,514,o),
(300,514,cs),
(205,514,o),
(128,464,o),
(85,380,cs),
(54,317,o),
(39,241,o),
(39,165,cs),
(39,25,o),
(132,-10,o),
(202,-10,cs)
);
},
{
closed = 1;
nodes = (
(176,86,o),
(140,108,o),
(140,168,cs),
(140,239,o),
(150,292,o),
(171,340,cs),
(194,390,o),
(242,423,o),
(304,423,cs),
(322,423,o),
(339,421,o),
(363,416,c),
(323,132,l),
(258,92,o),
(241,86,o),
(218,86,cs)
);
}
);
width = 535;
},
{
anchors = (
{
name = bottom;
pos = (251,0);
},
{
name = ogonek;
pos = (486,-12);
},
{
name = top;
pos = (323,510);
}
);
background = {
shapes = (
{
pos = (-1,0);
ref = o;
}
);
};
layerId = "0E062E17-1137-409C-98D3-1192050A59FC";
shapes = (
{
closed = 1;
nodes = (
(277,-13,o),
(314,-4,o),
(342,10,c),
(367,37,ls),
(374,44,o),
(381,46,o),
(389,41,cs),
(476,-12,l),
(559,161,l),
(495,194,l),
(543,529,l),
(396,505,ls),
(384,503,o),
(376,505,o),
(365,510,cs),
(331,525,l),
(316,528,o),
(304,529,o),
(290,529,cs),
(162,529,o),
(78,454,o),
(47,359,cs),
(28,301,o),
(20,236,o),
(20,183,cs),
(20,63,o),
(108,-13,o),
(225,-13,cs)
);
},
{
closed = 1;
nodes = (
(228,144,o),
(207,163,o),
(207,202,cs),
(207,237,o),
(211,281,o),
(223,314,cs),
(238,357,o),
(264,370,o),
(304,370,cs),
(317,370,o),
(328,366,o),
(337,360,c),
(308,161,l),
(288,149,o),
(276,144,o),
(258,144,cs)
);
}
);
width = 577;
}
);
unicode = 97;
userData = {
KernOnName = a;
com.schriftgestaltung.Glyphs.ColorIndex = 3;
com.typemytype.robofont.layerData = {
background = {
anchors = (
);
components = (
{
baseGlyph = n;
transformation = (
1,
0,
0,
1,
-5,
0
);
}
);
contours = (
);
lib = {
};
name = a;
unicodes = (
);
width = 491;
};
};
};
},
{
glyphname = abrevedotbelow;
kernLeft = KO_adieresis;
kernRight = KO_a;
lastChange = "2026-02-06 13:22:49 +0000";
layers = (
{
anchors = (
{
name = bottom;
pos = (187,-167);
},
{
name = ogonek;
pos = (434,-8);
},
{
name = top;
pos = (324,663);
}
);
layerId = "3FAB31A8-66C0-4840-B78B-D12B5ED553F3";
shapes = (
{
closed = 1;
nodes = (
(198,-173,l),
(211,-85,l),
(187,-85,l),
(174,-173,l)
);
},
{
closed = 1;
nodes = (
(376,610,o),
(425,645,o),
(450,714,c),
(432,721,l),
(408,667,o),
(377,631,o),
(320,631,cs),
(266,631,o),
(240,665,o),
(229,721,c),
(210,714,l),
(220,643,o),
(271,610,o),
(318,610,cs)
);
},
{
ref = a;
}
);
width = 489;
},
{
anchors = (
{
name = bottom;
pos = (205,-194);
},
{
name = ogonek;
pos = (440,-10);
},
{
name = top;
pos = (349,700);
}
);
layerId = "DF61F520-A841-4152-8991-D5A31692CC39";
shapes = (
{
closed = 1;
nodes = (
(259,-193,l),
(274,-85,l),
(166,-85,l),
(151,-193,l)
);
},
{
closed = 1;
nodes = (
(417,582,o),
(477,624,o),
(507,701,c),
(429,721,l),
(411,679,o),
(382,655,o),
(341,655,cs),
(301,655,o),
(280,679,o),
(273,721,c),
(197,701,l),
(206,632,o),
(265,582,o),
(339,582,cs)
);
},
{
ref = a;
}
);
width = 535;
},
{
anchors = (
{
name = bottom;
pos = (223,-200);
},
{
name = ogonek;
pos = (486,-12);
},
{
name = top;
pos = (350,703);
}
);
layerId = "0E062E17-1137-409C-98D3-1192050A59FC";
shapes = (
{
closed = 1;
nodes = (
(321,-196,l),
(340,-63,l),
(144,-63,l),
(125,-196,l)
);
},
{
closed = 1;
nodes = (
(446,550,o),
(527,606,o),
(546,686,c),
(414,706,l),
(398,680,o),
(369,669,o),
(339,669,cs),
(306,669,o),
(282,680,o),
(272,706,c),
(148,686,l),
(170,610,o),
(234,550,o),
(350,550,cs)
);
},
{
ref = a;
}
);
width = 577;
}
);
unicode = 7863;
},
{
glyphname = acircumflexdotbelow;
kernLeft = KO_adieresis;
kernRight = KO_a;
lastChange = "2026-02-06 13:23:31 +0000";
layers = (
{
anchors = (
{
name = bottom;
pos = (187,-167);
},
{
name = ogonek;
pos = (434,-8);
},
{
name = top;
pos = (326,673);
}
);
layerId = "3FAB31A8-66C0-4840-B78B-D12B5ED553F3";
shapes = (
{
closed = 1;
nodes = (
(198,-173,l),
(211,-85,l),
(187,-85,l),
(174,-173,l)
);
},
{
closed = 1;
nodes = (
(240,620,l),
(314,713,l),
(330,736,ls),
(335,743,o),
(341,743,o),
(344,736,cs),
(352,713,l),
(398,620,l),
(423,620,l),
(351,758,l),
(325,758,l),
(213,620,l)
);
},
{
ref = a;
}
);
width = 489;
},
{
anchors = (
{
name = bottom;
pos = (205,-194);
},
{
name = ogonek;
pos = (440,-10);
},
{
name = top;
pos = (350,710);
}
);
layerId = "DF61F520-A841-4152-8991-D5A31692CC39";
shapes = (
{
closed = 1;
nodes = (
(259,-193,l),
(274,-85,l),
(166,-85,l),
(151,-193,l)
);
},
{
closed = 1;
nodes = (
(283,592,l),
(325,654,l),
(340,688,ls),
(344,697,o),
(350,697,o),
(352,688,cs),
(359,654,l),
(385,592,l),
(474,592,l),
(404,750,l),
(296,750,l),
(183,592,l)
);
},
{
ref = a;
}
);
width = 535;
},
{
anchors = (
{
name = bottom;
pos = (223,-200);
},
{
name = ogonek;
pos = (486,-12);
},
{
name = top;
pos = (356,743);
}
);
layerId = "0E062E17-1137-409C-98D3-1192050A59FC";
shapes = (
{
closed = 1;
nodes = (
(321,-196,l),
(340,-63,l),
(144,-63,l),
(125,-196,l)
);
},
{
closed = 1;
nodes = (
(293,560,l),
(322,605,l),
(337,639,ls),
(341,648,o),
(348,647,o),
(349,639,cs),
(354,605,l),
(372,560,l),
(516,560,l),
(454,743,l),
(258,743,l),
(143,560,l)
);
},
{
ref = a;
}
);
width = 577;
}
);
unicode = 7853;
},
{
glyphname = ae;
kernLeft = KO_ae;
kernRight = KO_e;
lastChange = "2025-01-19 17:48:57 +0000";
layers = (
{
anchors = (
{
name = bottom;
pos = (337,0);
},
{
name = top;
pos = (406,492);
}
);
layerId = "3FAB31A8-66C0-4840-B78B-D12B5ED553F3";
shapes = (
{
closed = 1;
nodes = (
(234,-13,o),
(273,-1,o),
(326,31,cs),
(351,46,ls),
(357,50,o),
(361,48,o),
(364,44,cs),
(387,12,o),
(431,-11,o),
(503,-11,cs),
(567,-11,o),
(617,26,o),
(650,77,c),
(629,86,l),
(601,46,o),
(559,10,o),
(503,10,cs),
(413,10,o),
(374,53,o),
(374,111,cs),
(374,164,o),
(380,198,o),
(394,276,cs),
(424,429,o),
(514,480,o),
(582,480,cs),
(697,480,o),
(707,394,o),
(675,280,c),
(219,243,ls),
(124,235,o),
(66,200,o),
(56,122,cs),
(45,43,o),
(100,-13,o),
(176,-13,cs)
);
},
{
closed = 1;
nodes = (
(111,9,o),
(72,56,o),
(80,118,cs),
(89,189,o),
(141,214,o),
(221,221,cs),
(674,258,l),
(698,279,l),
(733,391,o),
(718,502,o),
(582,502,cs),
(530,502,o),
(477,478,o),
(440,434,c),
(410,379,ls),
(405,370,o),
(400,371,o),
(398,381,cs),
(389,431,l),
(376,465,o),
(342,504,o),
(256,504,cs),
(197,504,o),
(148,484,o),
(104,453,c),
(111,433,l),
(165,468,o),
(201,482,o),
(256,482,cs),
(332,482,o),
(392,442,o),
(374,326,cs),
(334,61,l),
(260,20,o),
(233,9,o),
(176,9,cs)
);
}
);
width = 737;
},
{
anchors = (
{
name = bottom;
pos = (345,0);
},
{
name = top;
pos = (416,504);
}
);
layerId = "DF61F520-A841-4152-8991-D5A31692CC39";
shapes = (
{
closed = 1;
nodes = (
(228,-10,o),
(241,-6,o),
(316,28,c),
(337,48,ls),
(344,56,o),
(351,57,o),
(358,49,cs),
(391,14,o),
(437,-10,o),
(499,-10,cs),
(571,-10,o),
(635,21,o),
(692,98,c),
(613,137,l),
(570,93,o),
(548,79,o),
(506,79,cs),
(449,79,o),
(414,118,o),
(417,196,cs),
(419,220,o),
(423,246,o),
(429,285,cs),
(444,375,o),
(496,425,o),
(558,425,cs),
(627,425,o),
(643,371,o),
(631,307,c),
(212,278,ls),
(114,271,o),
(42,231,o),
(30,141,cs),
(17,53,o),
(76,-10,o),
(178,-10,cs)
);
},
{
closed = 1;
nodes = (
(151,74,o),
(124,101,o),
(130,137,cs),
(135,174,o),
(165,196,o),
(213,199,cs),
(696,233,l),
(724,276,l),
(747,408,o),
(707,514,o),
(556,514,cs),
(520,514,o),
(479,501,o),
(441,479,c),
(418,453,ls),
(411,444,o),
(403,445,o),
(398,454,cs),
(382,480,l),
(352,503,o),
(307,516,o),
(253,516,cs),
(195,516,o),
(140,501,o),
(84,466,c),
(108,376,l),
(154,406,o),
(195,424,o),
(244,424,cs),
(315,424,o),
(342,389,o),
(334,329,cs),
(305,116,l),
(253,91,o),
(227,74,o),
(186,74,cs)
);
}
);
width = 760;
},
{
anchors = (
{
name = bottom;
pos = (395,0);
},
{
name = top;
pos = (468,517);
}
);
background = {
shapes = (
{
pos = (279,0);
ref = e;
}
);
};
layerId = "0E062E17-1137-409C-98D3-1192050A59FC";
shapes = (
{
closed = 1;
nodes = (
(256,-8,o),
(278,-4,o),
(337,20,c),
(359,47,ls),
(365,55,o),
(373,55,o),
(379,48,cs),
(405,22,o),
(467,-8,o),
(538,-8,cs),
(671,-8,o),
(765,48,o),
(798,119,c),
(663,187,l),
(629,153,o),
(603,140,o),
(553,140,cs),
(528,140,o),
(484,153,o),
(489,211,cs),
(492,245,o),
(495,276,o),
(499,294,cs),
(511,353,o),
(528,383,o),
(587,383,cs),
(645,383,o),
(656,354,o),
(656,329,c),
(217,314,ls),
(111,310,o),
(30,268,o),
(15,172,cs),
(0,68,o),
(78,-8,o),
(193,-8,cs)
);
},
{
closed = 1;
nodes = (
(193,125,o),
(176,138,o),
(180,162,cs),
(183,179,o),
(196,189,o),
(222,190,cs),
(765,211,l),
(812,298,l),
(824,450,o),
(751,527,o),
(587,527,cs),
(531,527,o),
(499,517,o),
(469,504,c),
(450,480,ls),
(444,473,o),
(438,470,o),
(432,478,cs),
(411,503,l),
(369,520,o),
(318,529,o),
(261,529,cs),
(178,529,o),
(110,512,o),
(57,485,c),
(98,340,l),
(133,363,o),
(178,376,o),
(242,376,cs),
(309,376,o),
(336,357,o),
(333,331,cs),
(314,156,l),
(287,136,o),
(243,125,o),
(214,125,cs)
);
}
);
width = 857;
}
);
metricLeft = a;
metricRight = e;
unicode = 230;
userData = {
com.schriftgestaltung.Glyphs.leftMetricsKey = a;
com.schriftgestaltung.Glyphs.rightMetricsKey = e;
};
},
{
glyphname = b;
kernLeft = KO_h;
kernRight = KO_p;
lastChange = "2025-01-20 07:45:44 +0000";
layers = (
{
anchors = (
{
name = bottom;
pos = (195,0);
},
{
name = center;
pos = (152,608);
},
{
name = top;
pos = (264,492);
}
);
layerId = "3FAB31A8-66C0-4840-B78B-D12B5ED553F3";
shapes = (
{
closed = 1;
nodes = (
(256,-10,o),
(345,19,o),
(382,123,cs),
(401,175,o),
(416,271,o),
(416,333,cs),
(416,434,o),
(368,503,o),
(281,503,cs),
(255,503,o),
(235,498,o),
(223,494,c),
(153,460,ls),
(148,457,o),
(143,460,o),
(144,466,cs),
(185,750,l),
(160,750,l),
(54,0,l),
(71,8,ls),
(77,11,o),
(83,10,o),
(90,8,cs),
(117,0,l),
(138,-6,o),
(162,-10,o),
(182,-10,cs)
);
},
{
closed = 1;
nodes = (
(150,12,o),
(120,19,o),
(84,33,c),
(140,432,l),
(222,472,o),
(241,480,o),
(279,480,cs),
(354,480,o),
(392,415,o),
(392,330,cs),
(392,273,o),
(378,187,o),
(360,133,cs),
(329,37,o),
(254,12,o),
(182,12,cs)
);
}
);
width = 482;
},
{
anchors = (
{
name = bottom;
pos = (227,0);
},
{
name = center;
pos = (183,621);
},
{
name = top;
pos = (298,504);
}
);
layerId = "DF61F520-A841-4152-8991-D5A31692CC39";
shapes = (
{
closed = 1;
nodes = (
(322,-11,o),
(397,40,o),
(440,124,cs),
(471,187,o),
(486,263,o),
(486,342,cs),
(486,466,o),
(410,514,o),
(325,514,cs),
(314,514,o),
(303,512,o),
(293,509,c),
(231,475,ls),
(221,470,o),
(214,474,o),
(216,485,cs),
(251,750,l),
(148,750,l),
(44,-6,l),
(119,4,ls),
(126,5,o),
(130,5,o),
(137,3,cs),
(172,-7,l),
(191,-10,o),
(206,-11,o),
(227,-11,cs)
);
},
{
closed = 1;
nodes = (
(200,80,o),
(184,83,o),
(162,88,c),
(201,374,l),
(249,406,o),
(279,417,o),
(310,417,cs),
(344,417,o),
(385,399,o),
(385,332,cs),
(385,265,o),
(374,212,o),
(353,164,cs),
(329,111,o),
(281,80,o),
(221,80,cs)
);
}
);
width = 526;
},
{
anchors = (
{
name = bottom;
pos = (236,0);
},
{
name = center;
pos = (222,633);
},
{
name = top;
pos = (310,517);
}
);
background = {
shapes = (
{
closed = 1;
nodes = (
(174,12,ls),
(186,14,o),
(194,12,o),
(205,7,cs),
(239,-8,l),
(254,-11,o),
(266,-12,o),
(280,-12,cs),
(408,-12,o),
(492,63,o),
(523,158,cs),
(542,216,o),
(550,281,o),
(550,334,cs),
(550,453,o),
(464,529,o),
(350,529,cs),
(345,529,o),
(343,529,o),
(337,528,c),
(291,502,ls),
(286,499,o),
(282,504,o),
(283,508,cs),
(317,750,l),
(125,750,l),
(18,-12,l)
);
},
{
closed = 1;
nodes = (
(255,147,o),
(244,151,o),
(233,156,c),
(261,356,l),
(281,368,o),
(294,373,o),
(312,373,cs),
(342,373,o),
(363,354,o),
(363,315,cs),
(363,280,o),
(359,236,o),
(347,203,cs),
(332,160,o),
(305,147,o),
(269,147,cs)
);
}
);
};
layerId = "0E062E17-1137-409C-98D3-1192050A59FC";
shapes = (
{
closed = 1;
nodes = (
(408,-12,o),
(492,63,o),
(523,158,cs),
(542,216,o),
(550,281,o),
(550,334,cs),
(550,453,o),
(464,529,o),
(350,529,cs),
(345,529,o),
(343,529,o),
(337,528,c),
(291,502,ls),
(286,499,o),
(282,504,o),
(283,508,cs),
(317,750,l),
(125,750,l),
(18,-11,l),
(174,12,ls),
(186,14,o),
(194,12,o),
(205,7,cs),
(239,-8,l),
(254,-11,o),
(266,-12,o),
(280,-12,cs)
);
},
{
closed = 1;
nodes = (
(255,147,o),
(244,151,o),
(233,156,c),
(261,356,l),
(281,368,o),
(294,373,o),
(312,373,cs),
(342,373,o),
(363,354,o),
(363,315,cs),
(363,280,o),
(359,236,o),
(347,203,cs),
(332,160,o),
(305,147,o),
(269,147,cs)
);
}
);
width = 570;
}
);
metricRight = o;
unicode = 98;
userData = {
com.schriftgestaltung.Glyphs.ColorIndex = 3;
com.schriftgestaltung.Glyphs.layer.leftMetricsKey = "==h-45";
com.schriftgestaltung.Glyphs.layer.rightMetricsKey = "==o";
com.schriftgestaltung.Glyphs.leftMetricsKey = "=h-45";
com.typemytype.robofont.layerData = {
background = {
anchors = (
);
components = (
{
baseGlyph = a;
transformation = (
-1,
0,
0,
1,
491,
0
);
}
);
contours = (
);
lib = {
};
name = b;
unicodes = (
);
width = 527;
};
};
};
},
{
glyphname = c;
kernLeft = KO_o;
kernRight = KO_c;
lastChange = "2025-01-20 07:45:44 +0000";
layers = (
{
anchors = (
{
name = bottom;
pos = (233,0);
},
{
name = top;
pos = (303,500);
}
);
background = {
anchors = (
{
name = bottom;
pos = (211,0);
},
{
name = center;
pos = (245,246);
},
{
name = ogonek;
pos = (403,10);
},
{
name = top;
pos = (279,492);
},
{
name = topright;
pos = (499,492);
}
);
shapes = (
{
closed = 1;
nodes = (
(290,-12,o),
(362,18,o),
(397,117,cs),
(416,170,o),
(434,269,o),
(434,333,cs),
(434,425,o),
(380,504,o),
(274,504,cs),
(210,504,o),
(138,474,o),
(103,375,cs),
(84,322,o),
(66,223,o),
(66,159,cs),
(66,67,o),
(120,-12,o),
(226,-12,cs)
);
},
{
closed = 1;
nodes = (
(129,10,o),
(90,86,o),
(90,162,cs),
(90,221,o),
(107,309,o),
(125,365,cs),
(153,453,o),
(213,482,o),
(274,482,cs),
(371,482,o),
(410,406,o),
(410,330,cs),
(410,271,o),
(393,183,o),
(375,127,cs),
(347,39,o),
(287,10,o),
(226,10,cs)
);
}
);
};
layerId = "3FAB31A8-66C0-4840-B78B-D12B5ED553F3";
shapes = (
{
closed = 1;
nodes = (
(282,-12,o),
(331,1,o),
(382,67,c),
(364,77,l),
(319,21,o),
(278,10,o),
(226,10,cs),
(129,10,o),
(90,86,o),
(90,162,cs),
(90,221,o),
(107,309,o),
(125,365,cs),
(153,453,o),
(209,482,o),
(280,482,cs),
(331,482,o),
(377,464,o),
(412,431,c),
(422,450,l),
(386,484,o),
(334,504,o),
(280,504,cs),
(206,504,o),
(138,474,o),
(103,375,cs),
(84,322,o),
(66,223,o),
(66,159,cs),
(66,67,o),
(120,-12,o),
(226,-12,cs)
);
}
);
width = 446;
},
{
anchors = (
{
name = bottom;
pos = (214,0);
},
{
name = top;
pos = (284,500);
}
);
layerId = "DF61F520-A841-4152-8991-D5A31692CC39";
shapes = (
{
closed = 1;
nodes = (
(285,-10,o),
(348,12,o),
(408,98,c),
(332,137,l),
(290,92,o),
(264,79,o),
(234,79,cs),
(172,79,o),
(140,127,o),
(141,188,cs),
(142,228,o),
(147,262,o),
(157,301,cs),
(177,373,o),
(221,423,o),
(295,423,cs),
(337,423,o),
(371,410,o),
(404,390,c),
(438,471,l),
(395,498,o),
(351,514,o),
(287,514,cs),
(175,514,o),
(93,440,o),
(62,326,cs),
(48,275,o),
(41,227,o),
(41,178,cs),
(39,75,o),
(106,-10,o),
(226,-10,cs)
);
}
);
width = 454;
},
{
anchors = (
{
name = bottom;
pos = (211,0);
},
{
name = top;
pos = (281,500);
}
);
background = {
anchors = (
{
name = bottom;
pos = (230,0);
},
{
name = center;
pos = (266,255);
},
{
name = ogonek;
pos = (451,10);
},
{
name = top;
pos = (302,510);
},
{
name = topright;
pos = (556,510);
}
);
shapes = (
{
closed = 1;
nodes = (
(384,-12,o),
(479,60,o),
(505,155,cs),
(521,213,o),
(529,283,o),
(529,338,cs),
(529,446,o),
(451,529,o),
(294,529,cs),
(166,529,o),
(71,457,o),
(45,362,cs),
(29,304,o),
(21,234,o),
(21,179,cs),
(21,71,o),
(99,-12,o),
(256,-12,cs)
);
},
{
closed = 1;
nodes = (
(225,144,o),
(210,169,o),
(210,199,cs),
(210,240,o),
(215,283,o),
(226,323,cs),
(234,351,o),
(253,373,o),
(289,373,cs),
(325,373,o),
(341,348,o),
(341,318,cs),
(341,277,o),
(335,234,o),
(324,194,cs),
(316,166,o),
(297,144,o),
(261,144,cs)
);
}
);
};
layerId = "0E062E17-1137-409C-98D3-1192050A59FC";
shapes = (
{
closed = 1;
nodes = (
(320,-11,o),
(419,23,o),
(454,137,c),
(320,200,l),
(309,167,o),
(286,150,o),
(260,150,cs),
(229,150,o),
(206,177,o),
(208,222,cs),
(208,253,o),
(212,275,o),
(220,302,cs),
(233,348,o),
(263,372,o),
(315,372,cs),
(350,372,o),
(378,363,o),
(413,341,c),
(475,472,l),
(436,507,o),
(375,529,o),
(313,529,cs),
(169,529,o),
(75,455,o),
(44,351,cs),
(28,292,o),
(19,230,o),
(19,170,cs),
(18,67,o),
(104,-11,o),
(227,-11,cs)
);
}
);
width = 476;
}
);
metricLeft = o;
unicode = 99;
userData = {
KernOnName = c;
com.schriftgestaltung.Glyphs.ColorIndex = 3;
com.schriftgestaltung.Glyphs.layer.leftMetricsKey = "==o";
com.schriftgestaltung.Glyphs.leftMetricsKey = o;
};
},
{
color = 4;
glyphname = d;
kernLeft = KO_d;
kernRight = KO_d;
lastChange = "2026-03-11 15:47:28 +0000";
layers = (
{
anchors = (
{
name = bottom;
pos = (230,0);
},
{
name = center;
pos = (429,608);
},
{
name = ogonek;
pos = (434,-8);
},
{
name = top;
pos = (300,500);
},
{
name = topright;
pos = (554,750);
}
);
layerId = "3FAB31A8-66C0-4840-B78B-D12B5ED553F3";
shapes = (
{
closed = 1;
nodes = (
(423,480,l),
(461,750,l),
(437,750,l),
(399,469,l)
);
},
{
closed = 1;
nodes = (
(255,-11,o),
(287,-3,o),
(324,24,c),
(333,35,l),
(338,40,o),
(343,40,o),
(348,37,cs),
(434,-8,l),
(444,13,l),
(365,55,l),
(425,494,l),
(406,489,ls),
(400,487,o),
(396,488,o),
(390,490,cs),
(376,496,l),
(356,500,o),
(328,504,o),
(294,504,cs),
(222,504,o),
(139,472,o),
(101,364,cs),
(83,314,o),
(65,220,o),
(65,159,cs),
(65,58,o),
(116,-11,o),
(210,-11,cs)
);
},
{
closed = 1;
nodes = (
(130,12,o),
(89,77,o),
(89,162,cs),
(89,218,o),
(106,301,o),
(123,354,cs),
(154,451,o),
(224,482,o),
(294,482,cs),
(339,482,o),
(378,474,o),
(398,466,c),
(343,66,l),
(293,23,o),
(260,12,o),
(212,12,cs)
);
}
);
width = 489;
},
{
anchors = (
{
name = bottom;
pos = (236,0);
},
{
name = center;
pos = (445,621);
},
{
name = ogonek;
pos = (440,-10);
},
{
name = top;
pos = (307,504);
},
{
name = topright;
pos = (578,750);
}
);
layerId = "DF61F520-A841-4152-8991-D5A31692CC39";
shapes = (
{
closed = 1;
nodes = (
(477,476,l),
(516,750,l),
(410,750,l),
(367,455,l)
);
},
{
closed = 1;
nodes = (
(236,-10,o),
(254,-4,o),
(306,22,c),
(322,39,ls),
(325,43,o),
(331,44,o),
(336,41,cs),
(440,-10,l),
(485,81,l),
(426,110,l),
(481,508,l),
(406,500,ls),
(399,499,o),
(395,499,o),
(390,500,cs),
(353,511,l),
(333,513,o),
(318,514,o),
(300,514,cs),
(205,514,o),
(128,464,o),
(85,380,cs),
(54,317,o),
(39,241,o),
(39,165,cs),
(39,25,o),
(132,-10,o),
(202,-10,cs)
);
},
{
closed = 1;
nodes = (
(176,86,o),
(140,108,o),
(140,168,cs),
(140,239,o),
(150,292,o),
(171,340,cs),
(194,390,o),
(242,423,o),
(304,423,cs),
(322,423,o),
(339,421,o),
(363,416,c),
(323,132,l),
(258,92,o),
(241,86,o),
(218,86,cs)
);
}
);
width = 535;
},
{
anchors = (
{
name = bottom;
pos = (242,0);
},
{
name = center;
pos = (452,633);
},
{
name = ogonek;
pos = (486,-12);
},
{
name = top;
pos = (314,510);
},
{
name = topright;
pos = (637,750);
}
);
layerId = "0E062E17-1137-409C-98D3-1192050A59FC";
shapes = (
{
closed = 1;
nodes = (
(539,433,l),
(585,750,l),
(393,750,l),
(347,433,l)
);
},
{
closed = 1;
nodes = (
(277,-13,o),
(314,-4,o),
(342,10,c),
(367,37,ls),
(374,44,o),
(381,45,o),
(389,41,cs),
(486,-12,l),
(569,161,l),
(505,194,l),
(553,529,l),
(396,505,ls),
(384,503,o),
(376,505,o),
(365,510,cs),
(331,525,l),
(316,528,o),
(304,529,o),
(290,529,cs),
(162,529,o),
(78,454,o),
(47,359,cs),
(28,301,o),
(20,236,o),
(20,183,cs),
(20,63,o),
(108,-13,o),
(225,-13,cs)
);
},
{
closed = 1;
nodes = (
(228,144,o),
(207,163,o),
(207,202,cs),
(207,237,o),
(211,281,o),
(223,314,cs),
(238,357,o),
(264,370,o),
(304,370,cs),
(317,370,o),
(328,366,o),
(337,360,c),
(308,161,l),
(288,149,o),
(276,144,o),
(258,144,cs)
);
}
);
width = 587;
}
);
metricLeft = o;
unicode = 100;
userData = {
KernOnName = d;
com.schriftgestaltung.Glyphs.ColorIndex = 3;
com.schriftgestaltung.Glyphs.layer.leftMetricsKey = "==o";
com.schriftgestaltung.Glyphs.layer.rightMetricsKey = "==i";
com.schriftgestaltung.Glyphs.rightMetricsKey = l;
};
},
{
glyphname = dzcaron;
lastChange = "2026-02-06 13:23:57 +0000";
layers = (
{
anchors = (
{
name = bottom;
pos = (694,0);
},
{
name = center;
pos = (423,608);
},
{
name = ogonek;
pos = (428,-8);
},
{
name = top;
pos = (785,655);
},
{
name = topright;
pos = (548,750);
}
);
layerId = "3FAB31A8-66C0-4840-B78B-D12B5ED553F3";
shapes = (
{
closed = 1;
nodes = (
(417,480,l),
(455,750,l),
(431,750,l),
(393,469,l)
);
},
{
closed = 1;
nodes = (
(249,-11,o),
(281,-3,o),
(318,24,c),
(327,35,l),
(332,40,o),
(337,40,o),
(342,37,cs),
(428,-8,l),
(438,13,l),
(359,55,l),
(419,494,l),
(400,489,ls),
(394,487,o),
(390,488,o),
(384,490,cs),
(370,496,l),
(350,500,o),
(322,504,o),
(288,504,cs),
(216,504,o),
(133,472,o),
(95,364,cs),
(77,314,o),
(59,220,o),
(59,159,cs),
(59,58,o),
(110,-11,o),
(204,-11,cs)
);
},
{
closed = 1;
nodes = (
(124,12,o),
(83,77,o),
(83,162,cs),
(83,218,o),
(100,301,o),
(117,354,cs),
(148,451,o),
(218,482,o),
(288,482,cs),
(333,482,o),
(372,474,o),
(392,466,c),
(337,66,l),
(287,23,o),
(254,12,o),
(206,12,cs)
);
},
{
closed = 1;
nodes = (
(848,0,l),
(852,23,l),
(581,23,ls),
(576,23,o),
(572,27,o),
(577,32,cs),
(606,65,l),
(916,476,l),
(917,492,l),
(607,492,l),
(604,470,l),
(878,470,ls),
(884,470,o),
(887,467,o),
(881,461,cs),
(846,423,l),
(538,15,l),
(539,0,l)
);
},
{
closed = 1;
nodes = (
(878,750,l),
(804,657,l),
(788,634,ls),
(783,627,o),
(777,627,o),
(774,634,cs),
(766,657,l),
(720,750,l),
(695,750,l),
(767,612,l),
(793,612,l),
(905,750,l)
);
}
);
width = 956;
},
{
anchors = (
{
name = bottom;
pos = (753,0);
},
{
name = center;
pos = (445,621);
},
{
name = ogonek;
pos = (440,-10);
},
{
name = top;
pos = (855,720);
},
{
name = topright;
pos = (578,750);
}
);
layerId = "DF61F520-A841-4152-8991-D5A31692CC39";
shapes = (
{
closed = 1;
nodes = (
(477,476,l),
(516,750,l),
(410,750,l),
(367,455,l)
);
},
{
closed = 1;
nodes = (
(236,-10,o),
(254,-4,o),
(306,22,c),
(322,39,ls),
(325,43,o),
(331,44,o),
(336,41,cs),
(440,-10,l),
(485,81,l),
(426,110,l),
(481,508,l),
(406,500,ls),
(399,499,o),
(395,499,o),
(390,500,cs),
(353,511,l),
(333,513,o),
(318,514,o),
(300,514,cs),
(205,514,o),
(128,464,o),
(85,380,cs),
(54,317,o),
(39,241,o),
(39,165,cs),
(39,25,o),
(132,-10,o),
(202,-10,cs)
);
},
{
closed = 1;
nodes = (
(176,86,o),
(140,108,o),
(140,168,cs),
(140,239,o),
(150,292,o),
(171,340,cs),
(194,390,o),
(242,423,o),
(304,423,cs),
(322,423,o),
(339,421,o),
(363,416,c),
(323,132,l),
(258,92,o),
(241,86,o),
(218,86,cs)
);
},
{
closed = 1;
nodes = (
(934,0,l),
(947,90,l),
(718,90,ls),
(712,90,o),
(709,97,o),
(714,102,cs),
(760,143,l),
(996,430,l),
(1005,504,l),
(642,504,l),
(629,414,l),
(858,414,ls),
(865,414,o),
(867,408,o),
(861,402,cs),
(818,364,l),
(580,74,l),
(571,0,l)
);
},
{
closed = 1;
nodes = (
(908,750,l),
(866,688,l),
(851,654,ls),
(847,645,o),
(841,645,o),
(839,654,cs),
(832,688,l),
(806,750,l),
(717,750,l),
(787,592,l),
(895,592,l),
(1008,750,l)
);
}
);
width = 1024;
},
{
anchors = (
{
name = bottom;
pos = (814,0);
},
{
name = center;
pos = (452,633);
},
{
name = ogonek;
pos = (486,-12);
},
{
name = top;
pos = (921,750);
},
{
name = topright;
pos = (637,750);
}
);
layerId = "0E062E17-1137-409C-98D3-1192050A59FC";
shapes = (
{
closed = 1;
nodes = (
(539,433,l),
(585,750,l),
(393,750,l),
(347,433,l)
);
},
{
closed = 1;
nodes = (
(277,-13,o),
(314,-4,o),
(342,10,c),
(367,37,ls),
(374,44,o),
(381,45,o),
(389,41,cs),
(486,-12,l),
(569,161,l),
(505,194,l),
(553,529,l),
(396,505,ls),
(384,503,o),
(376,505,o),
(365,510,cs),
(331,525,l),
(316,528,o),
(304,529,o),
(290,529,cs),
(162,529,o),
(78,454,o),
(47,359,cs),
(28,301,o),
(20,236,o),
(20,183,cs),
(20,63,o),
(108,-13,o),
(225,-13,cs)
);
},
{
closed = 1;
nodes = (
(228,144,o),
(207,163,o),
(207,202,cs),
(207,237,o),
(211,281,o),
(223,314,cs),
(238,357,o),
(264,370,o),
(304,370,cs),
(317,370,o),
(328,366,o),
(337,360,c),
(308,161,l),
(288,149,o),
(276,144,o),
(258,144,cs)
);
},
{
closed = 1;
nodes = (
(1023,0,l),
(1045,153,l),
(851,153,ls),
(843,153,o),
(841,164,o),
(847,168,cs),
(897,201,l),
(1079,360,l),
(1096,517,l),
(678,517,l),
(656,363,l),
(848,363,ls),
(857,363,o),
(857,353,o),
(851,349,cs),
(801,317,l),
(624,158,l),
(605,0,l)
);
},
{
closed = 1;
nodes = (
(962,750,l),
(933,705,l),
(918,671,ls),
(914,662,o),
(907,663,o),
(906,671,cs),
(901,705,l),
(883,750,l),
(739,750,l),
(801,567,l),
(997,567,l),
(1112,750,l)
);
}
);
width = 1094;
}
);
unicode = 454;
},
{
glyphname = eth;
lastChange = "2025-01-19 17:48:57 +0000";
layers = (
{
background = {
shapes = (
{
pos = (-2,0);
ref = o;
}
);
};
layerId = "3FAB31A8-66C0-4840-B78B-D12B5ED553F3";
shapes = (
{
closed = 1;
nodes = (
(290,-12,o),
(362,18,o),
(397,117,cs),
(416,170,o),
(434,269,o),
(434,333,cs),
(434,480,o),
(425,561,o),
(387,641,cs),
(363,685,o),
(329,723,o),
(295,750,c),
(257,750,l),
(311,710,o),
(340,672,o),
(362,631,cs),
(394,572,o),
(402,511,o),
(406,441,cs),
(406,432,o),
(399,430,o),
(394,438,cs),
(375,472,l),
(349,492,o),
(316,504,o),
(274,504,cs),
(210,504,o),
(138,474,o),
(103,375,cs),
(84,322,o),
(66,223,o),
(66,159,cs),
(66,67,o),
(120,-12,o),
(226,-12,cs)
);
},
{
closed = 1;
nodes = (
(129,10,o),
(90,86,o),
(90,162,cs),
(90,221,o),
(107,309,o),
(125,365,cs),
(153,453,o),
(213,482,o),
(274,482,cs),
(371,482,o),
(410,406,o),
(410,330,cs),
(410,271,o),
(393,183,o),
(375,127,cs),
(347,39,o),
(287,10,o),
(226,10,cs)
);
},
{
closed = 1;
nodes = (
(546,684,l),
(539,705,l),
(187,593,l),
(194,572,l)
);
}
);
width = 557;
},
{
layerId = "DF61F520-A841-4152-8991-D5A31692CC39";
shapes = (
{
closed = 1;
nodes = (
(332,-11,o),
(409,47,o),
(441,140,cs),
(470,220,o),
(484,323,o),
(484,412,cs),
(484,510,o),
(462,581,o),
(430,634,cs),
(398,685,o),
(360,721,o),
(322,750,c),
(186,750,l),
(242,711,o),
(292,662,o),
(329,612,cs),
(363,566,o),
(384,514,o),
(384,476,cs),
(384,465,o),
(375,462,o),
(369,469,cs),
(340,505,l),
(325,512,o),
(305,515,o),
(280,515,cs),
(180,515,o),
(104,457,o),
(72,365,cs),
(53,313,o),
(41,235,o),
(41,179,cs),
(41,83,o),
(100,-11,o),
(226,-11,cs)
);
},
{
closed = 1;
nodes = (
(170,80,o),
(143,127,o),
(143,185,cs),
(143,234,o),
(154,303,o),
(168,339,cs),
(188,392,o),
(223,424,o),
(279,424,cs),
(343,424,o),
(372,377,o),
(372,320,cs),
(372,274,o),
(361,200,o),
(346,166,cs),
(324,113,o),
(290,80,o),
(233,80,cs)
);
},
{
closed = 1;
nodes = (
(535,647,l),
(514,724,l),
(144,623,l),
(165,548,l)
);
}
);
width = 526;
},
{
background = {
shapes = (
{
closed = 1;
nodes = (
(363,-12,o),
(441,57,o),
(470,153,cs),
(503,256,o),
(508,342,o),
(508,416,cs),
(508,493,o),
(488,557,o),
(455,608,cs),
(418,666,o),
(375,711,o),
(330,750,c),
(156,750,l),
(225,695,o),
(283,640,o),
(320,593,cs),
(347,558,o),
(374,523,o),
(374,503,cs),
(374,489,o),
(365,485,o),
(353,493,cs),
(336,505,l),
(322,515,o),
(298,522,o),
(285,522,cs),
(167,522,o),
(91,453,o),
(62,358,cs),
(46,307,o),
(35,240,o),
(35,187,cs),
(35,89,o),
(99,-12,o),
(237,-12,cs)
);
},
{
closed = 1;
nodes = (
(199,109,o),
(175,143,o),
(175,196,cs),
(175,241,o),
(186,302,o),
(196,329,cs),
(210,370,o),
(240,401,o),
(283,401,cs),
(331,401,o),
(358,366,o),
(358,315,cs),
(358,275,o),
(347,210,o),
(336,182,cs),
(321,139,o),
(290,109,o),
(247,109,cs)
);
},
{
closed = 1;
nodes = (
(532,632,l),
(507,734,l),
(129,638,l),
(154,544,l)
);
}
);
};
layerId = "0E062E17-1137-409C-98D3-1192050A59FC";
shapes = (
{
closed = 1;
nodes = (
(390,-13,o),
(469,68,o),
(494,168,cs),
(517,245,o),
(524,304,o),
(524,399,cs),
(524,460,o),
(507,526,o),
(475,579,cs),
(434,646,o),
(387,703,o),
(331,750,c),
(115,750,l),
(206,683,o),
(270,628,o),
(313,582,cs),
(342,551,o),
(365,519,o),
(365,508,cs),
(365,501,o),
(360,498,o),
(353,502,cs),
(321,522,l),
(310,526,o),
(296,529,o),
(278,529,cs),
(144,529,o),
(68,448,o),
(43,351,cs),
(30,300,o),
(20,245,o),
(20,196,cs),
(20,96,o),
(90,-13,o),
(242,-13,cs)
);
},
{
closed = 1;
nodes = (
(224,142,o),
(203,161,o),
(203,209,cs),
(203,248,o),
(214,301,o),
(219,318,cs),
(230,358,o),
(254,375,o),
(283,375,cs),
(316,375,o),
(335,354,o),
(335,310,cs),
(335,276,o),
(324,224,o),
(317,200,cs),
(305,156,o),
(283,142,o),
(255,142,cs)
);
},
{
closed = 1;
nodes = (
(521,615,l),
(498,740,l),
(107,653,l),
(134,540,l)
);
}
);
width = 540;
}
);
metricLeft = o;
metricRight = o;
unicode = 240;
userData = {
com.schriftgestaltung.Glyphs.leftMetricsKey = six;
com.schriftgestaltung.Glyphs.rightMetricsKey = six;
};
},
{
glyphname = e;
kernLeft = KO_e;
kernRight = KO_e;
lastChange = "2025-01-20 07:45:44 +0000";
layers = (
{
anchors = (
{
name = bottom;
pos = (205,0);
},
{
name = ogonek;
pos = (293,0);
},
{
name = top;
pos = (280,492);
}
);
layerId = "3FAB31A8-66C0-4840-B78B-D12B5ED553F3";
shapes = (
{
closed = 1;
nodes = (
(282,-12,o),
(331,1,o),
(382,67,c),
(364,77,l),
(319,21,o),
(278,10,o),
(226,10,cs),
(135,10,o),
(90,79,o),
(90,162,cs),
(90,211,o),
(102,289,o),
(116,334,cs),
(148,435,o),
(209,482,o),
(291,482,cs),
(402,482,o),
(427,387,o),
(408,279,c),
(95,279,l),
(90,257,l),
(417,257,l),
(430,277,l),
(451,382,o),
(428,504,o),
(291,504,cs),
(200,504,o),
(128,449,o),
(94,344,cs),
(78,295,o),
(66,211,o),
(66,159,cs),
(66,67,o),
(120,-12,o),
(226,-12,cs)
);
}
);
width = 464;
},
{
anchors = (
{
name = bottom;
pos = (210,0);
},
{
name = ogonek;
pos = (295,0);
},
{
name = top;
pos = (285,504);
}
);
layerId = "DF61F520-A841-4152-8991-D5A31692CC39";
shapes = (
{
closed = 1;
nodes = (
(297,-10,o),
(365,15,o),
(424,98,c),
(345,137,l),
(306,94,o),
(277,79,o),
(238,79,cs),
(177,79,o),
(138,119,o),
(141,191,cs),
(142,235,o),
(147,259,o),
(154,293,cs),
(174,384,o),
(222,426,o),
(290,426,cs),
(352,426,o),
(382,385,o),
(364,309,c),
(133,309,l),
(123,227,l),
(428,227,l),
(458,279,l),
(481,403,o),
(440,514,o),
(292,514,cs),
(175,514,o),
(93,451,o),
(61,326,cs),
(50,282,o),
(41,233,o),
(41,177,cs),
(41,74,o),
(106,-10,o),
(231,-10,cs)
);
}
);
width = 494;
},
{
anchors = (
{
name = bottom;
pos = (214,0);
},
{
name = ogonek;
pos = (331,0);
},
{
name = top;
pos = (312,517);
}
);
layerId = "0E062E17-1137-409C-98D3-1192050A59FC";
shapes = (
{
closed = 1;
nodes = (
(336,-11,o),
(441,18,o),
(482,106,c),
(344,176,l),
(331,150,o),
(303,136,o),
(270,136,cs),
(233,136,o),
(208,154,o),
(209,192,cs),
(210,245,o),
(218,293,o),
(230,332,cs),
(238,362,o),
(263,382,o),
(307,382,cs),
(363,382,o),
(383,360,o),
(373,326,c),
(171,326,l),
(157,208,l),
(488,208,l),
(532,298,l),
(553,438,o),
(472,529,o),
(305,529,cs),
(170,529,o),
(75,455,o),
(44,351,cs),
(28,292,o),
(19,230,o),
(19,170,cs),
(18,67,o),
(108,-11,o),
(237,-11,cs)
);
}
);
width = 565;
}
);
metricLeft = o;
unicode = 101;
userData = {
com.schriftgestaltung.Glyphs.ColorIndex = 3;
com.schriftgestaltung.Glyphs.layer.leftMetricsKey = "==o";
com.schriftgestaltung.Glyphs.leftMetricsKey = o;
};
},
{
glyphname = ecircumflexdotbelow;
kernLeft = "KO_io-cy";
kernRight = KO_e;
lastChange = "2026-02-06 13:24:18 +0000";
layers = (
{
anchors = (
{
name = bottom;
pos = (181,-167);
},
{
name = ogonek;
pos = (293,0);
},
{
name = top;
pos = (305,665);
}
);
layerId = "3FAB31A8-66C0-4840-B78B-D12B5ED553F3";
shapes = (
{
closed = 1;
nodes = (
(192,-173,l),
(205,-85,l),
(181,-85,l),
(168,-173,l)
);
},
{
closed = 1;
nodes = (
(219,612,l),
(293,705,l),
(309,728,ls),
(314,735,o),
(320,735,o),
(323,728,cs),
(331,705,l),
(377,612,l),
(402,612,l),
(330,750,l),
(304,750,l),
(192,612,l)
);
},
{
ref = e;
}
);
width = 464;
},
{
anchors = (
{
name = bottom;
pos = (183,-194);
},
{
name = ogonek;
pos = (295,0);
},
{
name = top;
pos = (314,710);
}
);
layerId = "DF61F520-A841-4152-8991-D5A31692CC39";
shapes = (
{
closed = 1;
nodes = (
(237,-193,l),
(252,-85,l),
(144,-85,l),
(129,-193,l)
);
},
{
closed = 1;
nodes = (
(247,592,l),
(289,654,l),
(304,688,ls),
(308,697,o),
(314,697,o),
(316,688,cs),
(323,654,l),
(349,592,l),
(438,592,l),
(368,750,l),
(260,750,l),
(147,592,l)
);
},
{
ref = e;
}
);
width = 494;
},
{
anchors = (
{
name = bottom;
pos = (186,-200);
},
{
name = ogonek;
pos = (331,0);
},
{
name = top;
pos = (345,750);
}
);
layerId = "0E062E17-1137-409C-98D3-1192050A59FC";
shapes = (
{
closed = 1;
nodes = (
(284,-196,l),
(303,-63,l),
(107,-63,l),
(88,-196,l)
);
},
{
closed = 1;
nodes = (
(282,567,l),
(311,612,l),
(326,646,ls),
(330,655,o),
(337,654,o),
(338,646,cs),
(343,612,l),
(361,567,l),
(505,567,l),
(443,750,l),
(247,750,l),
(132,567,l)
);
},
{
ref = e;
}
);
width = 565;
}
);
unicode = 7879;
},
{
glyphname = ezh;
lastChange = "2025-01-19 17:48:57 +0000";
layers = (
{
anchors = (
{
name = bottom;
pos = (162,0);
},
{
name = top;
pos = (231,492);
}
);
background = {
shapes = (
{
ref = g;
}
);
};
layerId = "3FAB31A8-66C0-4840-B78B-D12B5ED553F3";
shapes = (
{
closed = 1;
nodes = (
(259,-201,o),
(353,-127,o),
(353,-3,cs),
(353,117,o),
(258,179,o),
(104,173,c),
(106,164,l),
(414,476,l),
(416,492,l),
(49,492,l),
(46,470,l),
(367,470,ls),
(375,470,o),
(376,463,o),
(371,458,cs),
(333,425,l),
(79,168,l),
(77,152,l),
(124,152,ls),
(248,152,o),
(332,104,o),
(330,-3,cs),
(328,-98,o),
(267,-179,o),
(126,-179,cs),
(49,-179,o),
(-22,-144,o),
(-53,-109,c),
(-65,-129,l),
(-17,-170,o),
(43,-201,o),
(126,-201,cs)
);
}
);
width = 449.2;
},
{
anchors = (
{
name = bottom;
pos = (195,0);
},
{
name = top;
pos = (266,504);
}
);
background = {
shapes = (
{
ref = g;
}
);
};
layerId = "DF61F520-A841-4152-8991-D5A31692CC39";
shapes = (
{
closed = 1;
nodes = (
(318,-205,o),
(418,-107,o),
(418,24,cs),
(418,152,o),
(314,226,o),
(175,219,c),
(207,184,l),
(445,430,l),
(454,506,l),
(51,506,l),
(38,414,l),
(291,414,ls),
(301,414,o),
(303,402,o),
(294,397,cs),
(246,362,l),
(93,192,l),
(84,122,l),
(174,122,ls),
(261,122,o),
(305,84,o),
(304,18,cs),
(304,-48,o),
(248,-96,o),
(158,-96,cs),
(92,-96,o),
(28,-75,o),
(-14,-40,c),
(-62,-130,l),
(-7,-177,o),
(67,-205,o),
(157,-205,cs)
);
}
);
width = 492.4;
},
{
anchors = (
{
name = bottom;
pos = (233,0);
},
{
name = top;
pos = (305,517);
}
);
background = {
shapes = (
{
ref = g;
}
);
};
layerId = "0E062E17-1137-409C-98D3-1192050A59FC";
shapes = (
{
closed = 1;
nodes = (
(361,-210,o),
(474,-104,o),
(474,33,cs),
(474,151,o),
(376,235,o),
(233,235,c),
(252,183,l),
(470,385,l),
(487,517,l),
(52,517,l),
(28,357,l),
(241,357,ls),
(251,357,o),
(255,346,o),
(244,340,cs),
(202,321,l),
(104,217,l),
(89,97,l),
(187,97,ls),
(252,97,o),
(290,71,o),
(290,33,cs),
(290,-14,o),
(235,-42,o),
(171,-42,cs),
(112,-42,o),
(55,-26,o),
(15,10,c),
(-58,-131,l),
(-15,-177,o),
(66,-210,o),
(146,-210,cs)
);
}
);
width = 538;
}
);
unicode = 658;
},
{
glyphname = f;
kernLeft = KO_f;
kernRight = KO_f;
lastChange = "2025-01-20 07:45:44 +0000";
layers = (
{
anchors = (
{
name = bottom;
pos = (95,0);
},
{
name = top;
pos = (163,492);
}
);
layerId = "3FAB31A8-66C0-4840-B78B-D12B5ED553F3";
shapes = (
{
closed = 1;
nodes = (
(102,0,l),
(166,470,l),
(314,470,l),
(317,492,l),
(170,492,l),
(190,632,ls),
(199,693,o),
(236,731,o),
(302,731,cs),
(331,731,o),
(352,727,o),
(381,713,c),
(391,733,l),
(359,748,o),
(338,753,o),
(302,753,cs),
(224,753,o),
(176,706,o),
(166,635,cs),
(146,492,l),
(57,492,l),
(54,470,l),
(142,470,l),
(78,0,l)
);
}
);
width = 304;
},
{
anchors = (
{
name = bottom;
pos = (136,0);
},
{
name = top;
pos = (207,504);
}
);
layerId = "DF61F520-A841-4152-8991-D5A31692CC39";
shapes = (
{
closed = 1;
nodes = (
(174,0,l),
(232,412,l),
(352,412,l),
(366,504,l),
(245,504,l),
(255,577,ls),
(261,624,o),
(297,661,o),
(353,661,cs),
(383,661,o),
(409,656,o),
(431,642,c),
(463,724,l),
(429,744,o),
(395,753,o),
(353,753,cs),
(232,753,o),
(166,679,o),
(153,596,cs),
(139,504,l),
(44,504,l),
(30,412,l),
(126,412,l),
(68,0,l)
);
}
);
width = 348;
},
{
anchors = (
{
name = bottom;
pos = (189,0);
},
{
name = top;
pos = (263,517);
}
);
layerId = "0E062E17-1137-409C-98D3-1192050A59FC";
shapes = (
{
closed = 1;
nodes = (
(260,0,l),
(310,357,l),
(403,357,l),
(428,517,l),
(333,517,l),
(337,544,ls),
(341,570,o),
(361,599,o),
(403,599,cs),
(419,599,o),
(430,596,o),
(438,592,c),
(489,731,l),
(466,743,o),
(421,753,o),
(370,753,cs),
(249,753,o),
(167,703,o),
(150,583,cs),
(141,517,l),
(53,517,l),
(28,357,l),
(118,357,l),
(68,0,l)
);
}
);
width = 413;
}
);
metricLeft = "=t";
unicode = 102;
userData = {
KernOnName = f;
com.schriftgestaltung.Glyphs.ColorIndex = 3;
};
},
{
glyphname = g;
kernLeft = KO_d;
kernRight = KO_g;
lastChange = "2025-01-19 17:48:57 +0000";
layers = (
{
anchors = (
{
name = bottom;
pos = (215,0);
},
{
name = top;
pos = (284,492);
}
);
background = {
shapes = (
{
ref = a;
}
);
};
layerId = "3FAB31A8-66C0-4840-B78B-D12B5ED553F3";
shapes = (
{
closed = 1;
nodes = (
(264,-211,o),
(339,-147,o),
(354,-39,cs),
(428,494,l),
(408,489,ls),
(402,487,o),
(398,488,o),
(392,490,cs),
(378,496,l),
(358,500,o),
(330,504,o),
(296,504,cs),
(224,504,o),
(141,472,o),
(103,364,cs),
(85,314,o),
(67,220,o),
(67,159,cs),
(67,58,o),
(115,-11,o),
(202,-11,cs),
(228,-11,o),
(248,-6,o),
(260,-2,c),
(330,32,ls),
(335,35,o),
(340,32,o),
(339,26,cs),
(330,-38,ls),
(316,-134,o),
(249,-189,o),
(167,-189,cs),
(122,-189,o),
(70,-174,o),
(36,-135,c),
(28,-156,l),
(57,-189,o),
(113,-211,o),
(166,-211,cs)
);
},
{
closed = 1;
nodes = (
(129,12,o),
(91,77,o),
(91,162,cs),
(91,218,o),
(108,301,o),
(125,354,cs),
(156,451,o),
(226,482,o),
(296,482,cs),
(341,482,o),
(380,474,o),
(400,466,c),
(345,68,l),
(264,17,o),
(242,12,o),
(204,12,cs)
);
}
);
width = 478;
},
{
anchors = (
{
name = bottom;
pos = (230,0);
},
{
name = top;
pos = (301,504);
}
);
layerId = "DF61F520-A841-4152-8991-D5A31692CC39";
shapes = (
{
closed = 1;
nodes = (
(281,-206,o),
(385,-148,o),
(411,27,cs),
(482,508,l),
(407,500,ls),
(400,499,o),
(396,499,o),
(391,500,cs),
(354,511,l),
(336,513,o),
(320,514,o),
(301,514,cs),
(206,514,o),
(129,464,o),
(86,380,cs),
(55,319,o),
(40,239,o),
(40,165,cs),
(40,25,o),
(124,-8,o),
(195,-10,cs),
(205,-10,o),
(217,-8,o),
(227,-6,c),
(293,24,ls),
(303,29,o),
(311,24,o),
(309,12,cs),
(304,-14,ls),
(292,-77,o),
(236,-117,o),
(162,-117,cs),
(104,-117,o),
(61,-98,o),
(22,-64,c),
(-10,-149,l),
(29,-182,o),
(90,-206,o),
(161,-206,cs)
);
},
{
closed = 1;
nodes = (
(182,87,o),
(141,98,o),
(141,171,cs),
(141,239,o),
(150,291,o),
(172,340,cs),
(197,393,o),
(245,423,o),
(305,423,cs),
(326,423,o),
(342,421,o),
(364,416,c),
(326,133,l),
(265,97,o),
(236,87,o),
(213,87,cs)
);
}
);
width = 521;
},
{
anchors = (
{
name = bottom;
pos = (245,0);
},
{
name = top;
pos = (318,517);
}
);
layerId = "0E062E17-1137-409C-98D3-1192050A59FC";
shapes = (
{
closed = 1;
nodes = (
(299,-211,o),
(453,-176,o),
(475,-21,cs),
(552,529,l),
(396,505,ls),
(384,503,o),
(376,505,o),
(365,510,cs),
(331,525,l),
(316,528,o),
(304,529,o),
(290,529,cs),
(162,529,o),
(78,454,o),
(47,359,cs),
(28,301,o),
(20,236,o),
(20,183,cs),
(20,64,o),
(106,-12,o),
(220,-12,cs),
(225,-12,o),
(229,-12,o),
(235,-11,c),
(277,14,ls),
(283,17,o),
(288,14,o),
(287,8,cs),
(286,0,ls),
(282,-32,o),
(247,-54,o),
(190,-54,cs),
(134,-54,o),
(94,-46,o),
(38,-11,c),
(-22,-151,l),
(40,-192,o),
(113,-211,o),
(191,-211,cs)
);
},
{
closed = 1;
nodes = (
(228,144,o),
(207,163,o),
(207,202,cs),
(207,237,o),
(211,281,o),
(223,314,cs),
(238,357,o),
(265,370,o),
(301,370,cs),
(315,370,o),
(326,366,o),
(337,361,c),
(309,161,l),
(289,149,o),
(276,144,o),
(258,144,cs)
);
}
);
width = 567;
}
);
unicode = 103;
},
{
glyphname = gstroke;
lastChange = "2025-01-19 17:48:57 +0000";
layers = (
{
layerId = "3FAB31A8-66C0-4840-B78B-D12B5ED553F3";
shapes = (
{
closed = 1;
nodes = (
(264,-211,o),
(339,-147,o),
(354,-39,cs),
(428,494,l),
(408,489,ls),
(402,487,o),
(398,488,o),
(392,490,cs),
(378,496,l),
(358,500,o),
(330,504,o),
(296,504,cs),
(224,504,o),
(141,472,o),
(103,364,cs),
(88,323,o),
(72,248,o),
(72,198,cs),
(72,97,o),
(120,28,o),
(207,28,cs),
(233,28,o),
(253,33,o),
(265,37,c),
(335,71,ls),
(341,74,o),
(345,71,o),
(344,65,cs),
(330,-38,ls),
(317,-134,o),
(249,-189,o),
(167,-189,cs),
(122,-189,o),
(70,-174,o),
(36,-135,c),
(28,-156,l),
(57,-189,o),
(113,-211,o),
(166,-211,cs)
);
},
{
closed = 1;
nodes = (
(425,-69,l),
(428,-47,l),
(167,-47,l),
(164,-69,l)
);
},
{
closed = 1;
nodes = (
(134,51,o),
(96,116,o),
(96,201,cs),
(96,246,o),
(111,312,o),
(125,354,cs),
(156,451,o),
(226,482,o),
(296,482,cs),
(341,482,o),
(380,474,o),
(400,466,c),
(350,107,l),
(269,56,o),
(247,51,o),
(209,51,cs)
);
}
);
width = 488;
},
{
layerId = "DF61F520-A841-4152-8991-D5A31692CC39";
shapes = (
{
closed = 1;
nodes = (
(304,-208,o),
(392,-116,o),
(410,8,cs),
(481,508,l),
(407,500,ls),
(400,499,o),
(396,499,o),
(391,500,cs),
(353,511,l),
(335,513,o),
(320,514,o),
(301,514,cs),
(205,514,o),
(129,464,o),
(85,380,cs),
(54,319,o),
(48,263,o),
(48,214,cs),
(48,79,o),
(135,49,o),
(206,48,cs),
(216,48,o),
(226,49,o),
(235,52,c),
(300,81,ls),
(311,86,o),
(319,82,o),
(317,70,cs),
(307,6,ls),
(295,-62,o),
(259,-117,o),
(165,-117,cs),
(105,-117,o),
(61,-100,o),
(22,-66,c),
(-11,-151,l),
(28,-184,o),
(89,-208,o),
(161,-208,cs)
);
},
{
closed = 1;
nodes = (
(499,-67,l),
(511,12,l),
(162,12,l),
(150,-67,l)
);
},
{
closed = 1;
nodes = (
(189,144,o),
(149,155,o),
(149,221,cs),
(149,254,o),
(153,297,o),
(172,340,cs),
(197,393,o),
(245,423,o),
(304,423,cs),
(326,423,o),
(342,421,o),
(364,416,c),
(334,190,l),
(273,155,o),
(244,144,o),
(221,144,cs)
);
}
);
width = 542;
},
{
layerId = "0E062E17-1137-409C-98D3-1192050A59FC";
shapes = (
{
closed = 1;
nodes = (
(299,-211,o),
(453,-176,o),
(475,-21,cs),
(552,529,l),
(396,505,ls),
(384,503,o),
(376,505,o),
(365,510,cs),
(331,525,l),
(316,528,o),
(304,529,o),
(290,529,cs),
(176,529,o),
(104,482,o),
(65,413,cs),
(40,369,o),
(29,316,o),
(29,262,cs),
(29,143,o),
(83,67,o),
(229,67,cs),
(235,67,o),
(238,67,o),
(244,68,c),
(286,93,ls),
(292,96,o),
(297,93,o),
(296,87,cs),
(285,0,ls),
(280,-37,o),
(253,-78,o),
(190,-78,cs),
(131,-78,o),
(88,-70,o),
(29,-32,c),
(-22,-151,l),
(40,-192,o),
(113,-211,o),
(191,-211,cs)
);
},
{
closed = 1;
nodes = (
(533,-44,l),
(546,45,l),
(140,45,l),
(127,-44,l)
);
},
{
closed = 1;
nodes = (
(237,223,o),
(216,242,o),
(216,281,cs),
(216,300,o),
(221,322,o),
(233,339,cs),
(246,357,o),
(268,370,o),
(301,370,cs),
(315,370,o),
(326,366,o),
(337,361,c),
(318,240,l),
(298,228,o),
(285,223,o),
(267,223,cs)
);
}
);
width = 599;
}
);
unicode = 485;
},
{
glyphname = h;
kernLeft = KO_h;
kernRight = KO_n;
lastChange = "2025-01-20 07:45:44 +0000";
layers = (
{
anchors = (
{
name = bottom;
pos = (205,0);
},
{
name = bottomright;
pos = (353,0);
},
{
name = center;
pos = (153,608);
},
{
name = top;
pos = (301,675);
}
);
layerId = "3FAB31A8-66C0-4840-B78B-D12B5ED553F3";
shapes = (
{
closed = 1;
nodes = (
(353,0,l),
(406,372,ls),
(416,445,o),
(378,513,o),
(276,513,cs),
(227,513,o),
(189,494,o),
(136,456,c),
(136,433,l),
(189,471,o),
(228,491,o),
(275,491,cs),
(361,491,o),
(391,434,o),
(382,373,cs),
(329,0,l)
);
},
{
closed = 1;
nodes = (
(80,0,l),
(184,749,l),
(160,749,l),
(56,0,l)
);
}
);
width = 472;
},
{
anchors = (
{
name = bottom;
pos = (238,0);
},
{
name = bottomright;
pos = (435,0);
},
{
name = center;
pos = (182,621);
},
{
name = top;
pos = (363,682);
}
);
layerId = "DF61F520-A841-4152-8991-D5A31692CC39";
shapes = (
{
closed = 1;
nodes = (
(435,0,l),
(482,347,ls),
(497,453,o),
(438,514,o),
(348,514,cs),
(291,514,o),
(261,502,o),
(197,460,c),
(190,370,l),
(253,409,o),
(282,418,o),
(317,418,cs),
(359,418,o),
(381,394,o),
(375,343,cs),
(329,0,l)
);
},
{
closed = 1;
nodes = (
(149,0,l),
(255,750,l),
(148,750,l),
(43,0,l)
);
}
);
width = 545;
},
{
anchors = (
{
name = bottom;
pos = (261,0);
},
{
name = bottomright;
pos = (500,0);
},
{
name = center;
pos = (201,633);
},
{
name = top;
pos = (382,720);
}
);
background = {
shapes = (
{
pos = (16,0);
ref = n;
}
);
};
layerId = "0E062E17-1137-409C-98D3-1192050A59FC";
shapes = (
{
closed = 1;
nodes = (
(500,0,l),
(547,326,ls),
(566,456,o),
(484,527,o),
(403,527,cs),
(347,527,o),
(305,509,o),
(264,477,c),
(249,317,l),
(268,338,o),
(294,357,o),
(320,357,cs),
(347,357,o),
(357,339,o),
(354,317,cs),
(308,0,l)
);
},
{
closed = 1;
nodes = (
(212,0,l),
(318,750,l),
(126,750,l),
(20,0,l)
);
}
);
width = 591;
}
);
metricRight = n;
unicode = 104;
userData = {
KernOnName = h;
com.schriftgestaltung.Glyphs.ColorIndex = 3;
com.schriftgestaltung.Glyphs.layer.leftMetricsKey = "==n";
com.schriftgestaltung.Glyphs.layer.rightMetricsKey = "==n";
com.schriftgestaltung.Glyphs.leftMetricsKey = n;
com.schriftgestaltung.Glyphs.rightMetricsKey = n;
};
},
{
glyphname = hbar;
kernRight = KO_hbar;
lastChange = "2026-03-11 15:47:28 +0000";
layers = (
{
anchors = (
{
name = bottom;
pos = (251,0);
},
{
name = center;
pos = (199,608);
},
{
name = top;
pos = (347,675);
}
);
layerId = "3FAB31A8-66C0-4840-B78B-D12B5ED553F3";
shapes = (
{
closed = 1;
nodes = (
(399,0,l),
(452,372,ls),
(462,445,o),
(424,513,o),
(322,513,cs),
(276,513,o),
(239,496,o),
(190,462,c),
(209,597,l),
(322,597,l),
(326,619,l),
(212,619,l),
(230,749,l),
(206,749,l),
(188,619,l),
(75,619,l),
(71,597,l),
(185,597,l),
(102,0,l),
(126,0,l),
(187,436,l),
(237,472,o),
(275,491,o),
(321,491,cs),
(407,491,o),
(437,434,o),
(428,373,cs),
(375,0,l)
);
}
);
width = 518;
},
{
anchors = (
{
name = bottom;
pos = (272,0);
},
{
name = center;
pos = (216,621);
},
{
name = top;
pos = (397,682);
}
);
layerId = "DF61F520-A841-4152-8991-D5A31692CC39";
shapes = (
{
closed = 1;
nodes = (
(469,0,l),
(516,347,ls),
(531,453,o),
(472,514,o),
(382,514,cs),
(331,514,o),
(301,504,o),
(250,472,c),
(264,576,l),
(365,576,l),
(378,666,l),
(277,666,l),
(289,750,l),
(182,750,l),
(170,666,l),
(67,666,l),
(54,576,l),
(158,576,l),
(77,0,l),
(183,0,l),
(236,378,l),
(291,410,o),
(318,418,o),
(351,418,cs),
(393,418,o),
(415,394,o),
(409,343,cs),
(363,0,l)
);
}
);
width = 579;
},
{
anchors = (
{
name = bottom;
pos = (314,0);
},
{
name = center;
pos = (254,633);
},
{
name = top;
pos = (435,720);
}
);
layerId = "0E062E17-1137-409C-98D3-1192050A59FC";
shapes = (
{
closed = 1;
nodes = (
(553,0,l),
(600,326,ls),
(619,456,o),
(537,527,o),
(456,527,cs),
(408,527,o),
(370,514,o),
(334,490,c),
(344,556,l),
(429,556,l),
(451,710,l),
(365,710,l),
(371,750,l),
(179,750,l),
(173,710,l),
(78,710,l),
(56,556,l),
(152,556,l),
(73,0,l),
(265,0,l),
(311,326,l),
(329,343,o),
(351,357,o),
(373,357,cs),
(400,357,o),
(410,339,o),
(407,317,cs),
(361,0,l)
);
}
);
width = 644;
}
);
metricLeft = t;
metricRight = h;
unicode = 295;
},
{
glyphname = idotless;
kernLeft = KO_i;
kernRight = "KO_en-cy";
lastChange = "2026-03-11 15:47:28 +0000";
layers = (
{
anchors = (
{
name = bottom;
pos = (77,0);
},
{
name = center;
pos = (105,237);
},
{
name = ogonek;
pos = (84,0);
},
{
name = top;
pos = (144,492);
}
);
layerId = "3FAB31A8-66C0-4840-B78B-D12B5ED553F3";
shapes = (
{
closed = 1;
nodes = (
(84,0,l),
(154,492,l),
(75,492,l),
(72,470,l),
(127,470,l),
(60,0,l)
);
}
);
width = 141;
},
{
anchors = (
{
name = bottom;
pos = (96,0);
},
{
name = center;
pos = (147,237);
},
{
name = ogonek;
pos = (167,0);
},
{
name = top;
pos = (184,504);
}
);
layerId = "DF61F520-A841-4152-8991-D5A31692CC39";
shapes = (
{
closed = 1;
nodes = (
(167,0,l),
(237,504,l),
(51,504,l),
(38,412,l),
(116,412,l),
(59,0,l)
);
}
);
width = 225;
},
{
anchors = (
{
name = bottom;
pos = (151,0);
},
{
name = center;
pos = (178,237);
},
{
name = ogonek;
pos = (268,0);
},
{
name = top;
pos = (217,517);
}
);
layerId = "0E062E17-1137-409C-98D3-1192050A59FC";
shapes = (
{
closed = 1;
nodes = (
(245,0,l),
(317,517,l),
(52,517,l),
(30,357,l),
(103,357,l),
(53,0,l)
);
}
);
width = 289;
}
);
metricRight = "=|n";
unicode = 305;
userData = {
KernOnName = idotless;
};
},
{
color = 9;
glyphname = idotless.ss01;
lastChange = "2025-01-19 15:33:47 +0000";
layers = (
{
anchors = (
{
name = bottom;
pos = (64,0);
},
{
name = center;
pos = (94,237);
},
{
name = ogonek;
pos = (76,0);
},
{
name = top;
pos = (132,492);
}
);
layerId = "3FAB31A8-66C0-4840-B78B-D12B5ED553F3";
shapes = (
{
closed = 1;
nodes = (
(76,0,l),
(144,492,l),
(120,492,l),
(52,0,l)
);
}
);
width = 200;
},
{
anchors = (
{
name = bottom;
pos = (99,0);
},
{
name = center;
pos = (132,237);
},
{
name = ogonek;
pos = (153,0);
},
{
name = top;
pos = (169,504);
}
);
layerId = "DF61F520-A841-4152-8991-D5A31692CC39";
shapes = (
{
closed = 1;
nodes = (
(153,0,l),
(223,504,l),
(115,504,l),
(45,0,l)
);
}
);
width = 266;
},
{
anchors = (
{
name = bottom;
pos = (122,0);
},
{
name = center;
pos = (158,237);
},
{
name = ogonek;
pos = (221,0);
},
{
name = top;
pos = (196,517);
}
);
layerId = "0E062E17-1137-409C-98D3-1192050A59FC";
shapes = (
{
closed = 1;
nodes = (
(221,0,l),
(294,517,l),
(97,517,l),
(24,0,l)
);
}
);
width = 314;
}
);
},
{
color = 9;
glyphname = icaron.ss01;
lastChange = "2026-02-13 11:50:15 +0000";
layers = (
{
anchors = (
{
name = bottom;
pos = (64,0);
},
{
name = center;
pos = (94,237);
},
{
name = ogonek;
pos = (76,0);
},
{
name = top;
pos = (155,655);
}
);
layerId = "3FAB31A8-66C0-4840-B78B-D12B5ED553F3";
shapes = (
{
closed = 1;
nodes = (
(76,0,l),
(144,492,l),
(120,492,l),
(52,0,l)
);
},
{
closed = 1;
nodes = (
(248,750,l),
(174,657,l),
(158,634,ls),
(153,627,o),
(147,627,o),
(144,634,cs),
(136,657,l),
(90,750,l),
(65,750,l),
(137,612,l),
(163,612,l),
(275,750,l)
);
}
);
width = 200;
},
{
anchors = (
{
name = bottom;
pos = (99,0);
},
{
name = center;
pos = (132,237);
},
{
name = ogonek;
pos = (153,0);
},
{
name = top;
pos = (200,720);
}
);
layerId = "DF61F520-A841-4152-8991-D5A31692CC39";
shapes = (
{
closed = 1;
nodes = (
(153,0,l),
(223,504,l),
(115,504,l),
(45,0,l)
);
},
{
closed = 1;
nodes = (
(253,750,l),
(211,688,l),
(196,654,ls),
(192,645,o),
(186,645,o),
(184,654,cs),
(177,688,l),
(151,750,l),
(62,750,l),
(132,592,l),
(240,592,l),
(353,750,l)
);
}
);
width = 266;
},
{
anchors = (
{
name = bottom;
pos = (122,0);
},
{
name = center;
pos = (158,237);
},
{
name = ogonek;
pos = (221,0);
},
{
name = top;
pos = (229,750);
}
);
layerId = "0E062E17-1137-409C-98D3-1192050A59FC";
shapes = (
{
closed = 1;
nodes = (
(221,0,l),
(294,517,l),
(97,517,l),
(24,0,l)
);
},
{
closed = 1;
nodes = (
(270,750,l),
(241,705,l),
(226,671,ls),
(222,662,o),
(215,663,o),
(214,671,cs),
(209,705,l),
(191,750,l),
(47,750,l),
(109,567,l),
(305,567,l),
(420,750,l)
);
}
);
width = 314;
}
);
},
{
color = 4;
glyphname = idieresis;
lastChange = "2026-02-13 08:59:50 +0000";
layers = (
{
anchors = (
{
name = bottom;
pos = (77,0);
},
{
name = center;
pos = (105,237);
},
{
name = ogonek;
pos = (84,0);
},
{
name = top;
pos = (167,655);
}
);
layerId = "3FAB31A8-66C0-4840-B78B-D12B5ED553F3";
shapes = (
{
closed = 1;
nodes = (
(84,0,l),
(154,492,l),
(75,492,l),
(72,470,l),
(127,470,l),
(60,0,l)
);
},
{
closed = 1;
nodes = (
(232,612,l),
(244,700,l),
(220,700,l),
(208,612,l)
);
},
{
closed = 1;
nodes = (
(113,612,l),
(125,700,l),
(101,700,l),
(89,612,l)
);
}
);
width = 208;
},
{
anchors = (
{
name = bottom;
pos = (96,0);
},
{
name = center;
pos = (147,237);
},
{
name = ogonek;
pos = (167,0);
},
{
name = top;
pos = (209,687);
}
);
layerId = "DF61F520-A841-4152-8991-D5A31692CC39";
shapes = (
{
closed = 1;
nodes = (
(167,0,l),
(237,504,l),
(51,504,l),
(38,412,l),
(116,412,l),
(59,0,l)
);
},
{
closed = 1;
nodes = (
(319,592,l),
(334,700,l),
(232,700,l),
(217,592,l)
);
},
{
closed = 1;
nodes = (
(175,592,l),
(190,700,l),
(88,700,l),
(73,592,l)
);
}
);
width = 280;
},
{
anchors = (
{
name = bottom;
pos = (151,0);
},
{
name = center;
pos = (178,237);
},
{
name = ogonek;
pos = (268,0);
},
{
name = top;
pos = (243,700);
}
);
layerId = "0E062E17-1137-409C-98D3-1192050A59FC";
shapes = (
{
closed = 1;
nodes = (
(245,0,l),
(317,517,l),
(52,517,l),
(30,357,l),
(103,357,l),
(53,0,l)
);
},
{
closed = 1;
nodes = (
(398,567,l),
(417,700,l),
(268,700,l),
(249,567,l)
);
},
{
closed = 1;
nodes = (
(199,567,l),
(218,700,l),
(69,700,l),
(50,567,l)
);
}
);
width = 337;
}
);
unicode = 239;
},
{
color = 9;
glyphname = idieresis.ss01;
lastChange = "2025-01-19 15:33:47 +0000";
layers = (
{
anchors = (
{
name = bottom;
pos = (64,0);
},
{
name = center;
pos = (94,237);
},
{
name = ogonek;
pos = (76,0);
},
{
name = top;
pos = (132,492);
}
);
layerId = "3FAB31A8-66C0-4840-B78B-D12B5ED553F3";
shapes = (
{
closed = 1;
nodes = (
(105,618,l),
(118,700,l),
(98,700,l),
(86,618,l)
);
},
{
closed = 1;
nodes = (
(76,0,l),
(144,492,l),
(120,492,l),
(52,0,l)
);
},
{
closed = 1;
nodes = (
(218,618,l),
(230,700,l),
(210,700,l),
(199,618,l)
);
}
);
width = 258;
},
{
anchors = (
{
name = bottom;
pos = (99,0);
},
{
name = center;
pos = (132,237);
},
{
name = ogonek;
pos = (153,0);
},
{
name = top;
pos = (169,504);
}
);
layerId = "DF61F520-A841-4152-8991-D5A31692CC39";
shapes = (
{
closed = 1;
nodes = (
(303,591,l),
(318,700,l),
(222,700,l),
(207,591,l)
);
},
{
closed = 1;
nodes = (
(153,0,l),
(223,504,l),
(115,504,l),
(45,0,l)
);
},
{
closed = 1;
nodes = (
(152,591,l),
(168,700,l),
(71,700,l),
(56,591,l)
);
}
);
width = 306;
},
{
anchors = (
{
name = bottom;
pos = (122,0);
},
{
name = center;
pos = (158,237);
},
{
name = ogonek;
pos = (221,0);
},
{
name = top;
pos = (196,517);
}
);
layerId = "0E062E17-1137-409C-98D3-1192050A59FC";
shapes = (
{
closed = 1;
nodes = (
(365,563,l),
(384,700,l),
(238,700,l),
(219,563,l)
);
},
{
closed = 1;
nodes = (
(221,0,l),
(294,517,l),
(97,517,l),
(24,0,l)
);
},
{
closed = 1;
nodes = (
(195,563,l),
(214,700,l),
(68,700,l),
(49,563,l)
);
}
);
width = 356.66667;
}
);
},
{
glyphname = idotbelow;
kernLeft = KO_i;
kernRight = KO_i;
lastChange = "2026-02-06 13:25:18 +0000";
layers = (
{
anchors = (
{
name = bottom;
pos = (53,-167);
},
{
name = center;
pos = (105,237);
},
{
name = ogonek;
pos = (84,0);
},
{
name = top;
pos = (167,655);
}
);
layerId = "3FAB31A8-66C0-4840-B78B-D12B5ED553F3";
shapes = (
{
closed = 1;
nodes = (
(173,612,l),
(186,700,l),
(162,700,l),
(149,612,l)
);
},
{
closed = 1;
nodes = (
(60,-173,l),
(73,-85,l),
(49,-85,l),
(36,-173,l)
);
},
{
ref = idotless;
}
);
width = 208;
},
{
anchors = (
{
name = bottom;
pos = (69,-194);
},
{
name = center;
pos = (147,237);
},
{
name = ogonek;
pos = (167,0);
},
{
name = top;
pos = (212,700);
}
);
layerId = "DF61F520-A841-4152-8991-D5A31692CC39";
shapes = (
{
closed = 1;
nodes = (
(251,592,l),
(266,700,l),
(158,700,l),
(143,592,l)
);
},
{
closed = 1;
nodes = (
(140,-193,l),
(155,-85,l),
(47,-85,l),
(32,-193,l)
);
},
{
ref = idotless;
}
);
width = 280;
},
{
anchors = (
{
name = bottom;
pos = (123,-200);
},
{
name = center;
pos = (178,237);
},
{
name = ogonek;
pos = (268,0);
},
{
name = top;
pos = (243,700);
}
);
layerId = "0E062E17-1137-409C-98D3-1192050A59FC";
shapes = (
{
closed = 1;
nodes = (
(322,567,l),
(341,700,l),
(145,700,l),
(126,567,l)
);
},
{
closed = 1;
nodes = (
(221,-196,l),
(240,-63,l),
(44,-63,l),
(25,-196,l)
);
},
{
ref = idotless;
}
);
width = 337;
}
);
unicode = 7883;
},
{
color = 9;
glyphname = idotbelow.ss01;
kernLeft = KO_i.ss01;
lastChange = "2026-02-13 11:52:21 +0000";
layers = (
{
anchors = (
{
name = bottom;
pos = (40,-167);
},
{
name = center;
pos = (94,237);
},
{
name = ogonek;
pos = (76,0);
},
{
name = top;
pos = (155,655);
}
);
layerId = "3FAB31A8-66C0-4840-B78B-D12B5ED553F3";
shapes = (
{
closed = 1;
nodes = (
(161,612,l),
(174,700,l),
(150,700,l),
(137,612,l)
);
},
{
closed = 1;
nodes = (
(51,-173,l),
(64,-85,l),
(40,-85,l),
(27,-173,l)
);
},
{
ref = idotless.ss01;
}
);
width = 200;
},
{
anchors = (
{
name = bottom;
pos = (72,-194);
},
{
name = center;
pos = (132,237);
},
{
name = ogonek;
pos = (153,0);
},
{
name = top;
pos = (197,700);
}
);
layerId = "DF61F520-A841-4152-8991-D5A31692CC39";
shapes = (
{
closed = 1;
nodes = (
(236,592,l),
(251,700,l),
(143,700,l),
(128,592,l)
);
},
{
closed = 1;
nodes = (
(126,-193,l),
(141,-85,l),
(33,-85,l),
(18,-193,l)
);
},
{
ref = idotless.ss01;
}
);
width = 266;
},
{
anchors = (
{
name = bottom;
pos = (94,-200);
},
{
name = center;
pos = (158,237);
},
{
name = ogonek;
pos = (221,0);
},
{
name = top;
pos = (222,700);
}
);
layerId = "0E062E17-1137-409C-98D3-1192050A59FC";
shapes = (
{
closed = 1;
nodes = (
(301,567,l),
(320,700,l),
(124,700,l),
(105,567,l)
);
},
{
closed = 1;
nodes = (
(192,-196,l),
(211,-63,l),
(15,-63,l),
(-4,-196,l)
);
},
{
ref = idotless.ss01;
}
);
width = 314;
}
);
},
{
glyphname = ij;
kernLeft = KO_i;
lastChange = "2026-02-06 13:15:46 +0000";
layers = (
{
anchors = (
{
name = bottom;
pos = (233,-250);
},
{
name = center;
pos = (105,237);
},
{
name = ogonek;
pos = (84,0);
},
{
name = top;
pos = (374,655);
}
);
layerId = "3FAB31A8-66C0-4840-B78B-D12B5ED553F3";
shapes = (
{
closed = 1;
nodes = (
(84,0,l),
(154,492,l),
(75,492,l),
(72,470,l),
(127,470,l),
(60,0,l)
);
},
{
closed = 1;
nodes = (
(173,612,l),
(186,700,l),
(162,700,l),
(149,612,l)
);
},
{
closed = 1;
nodes = (
(227,-180,o),
(277,-121,o),
(292,-15,cs),
(364,492,l),
(284,492,l),
(281,470,l),
(337,470,l),
(269,-12,ls),
(256,-105,o),
(218,-162,o),
(124,-203,c),
(133,-220,l)
);
},
{
closed = 1;
nodes = (
(380,612,l),
(393,700,l),
(369,700,l),
(356,612,l)
);
}
);
width = 418;
},
{
anchors = (
{
name = bottom;
pos = (354,-250);
},
{
name = center;
pos = (147,237);
},
{
name = ogonek;
pos = (167,0);
},
{
name = top;
pos = (503,700);
}
);
layerId = "DF61F520-A841-4152-8991-D5A31692CC39";
shapes = (
{
closed = 1;
nodes = (
(167,0,l),
(237,504,l),
(51,504,l),
(38,412,l),
(116,412,l),
(59,0,l)
);
},
{
closed = 1;
nodes = (
(251,592,l),
(266,700,l),
(158,700,l),
(143,592,l)
);
},
{
closed = 1;
nodes = (
(352,-200,o),
(441,-135,o),
(461,6,cs),
(532,504,l),
(345,504,l),
(333,413,l),
(411,413,l),
(354,9,ls),
(343,-69,o),
(292,-112,o),
(229,-128,c),
(252,-223,l)
);
},
{
closed = 1;
nodes = (
(542,592,l),
(557,700,l),
(449,700,l),
(434,592,l)
);
}
);
width = 575;
},
{
anchors = (
{
name = bottom;
pos = (447,-250);
},
{
name = center;
pos = (178,237);
},
{
name = ogonek;
pos = (268,0);
},
{
name = top;
pos = (582,700);
}
);
layerId = "0E062E17-1137-409C-98D3-1192050A59FC";
shapes = (
{
closed = 1;
nodes = (
(245,0,l),
(317,517,l),
(52,517,l),
(30,357,l),
(103,357,l),
(53,0,l)
);
},
{
closed = 1;
nodes = (
(322,567,l),
(341,700,l),
(145,700,l),
(126,567,l)
);
},
{
closed = 1;
nodes = (
(421,-228,o),
(560,-167,o),
(582,-12,cs),
(657,517,l),
(392,517,l),
(370,357,l),
(443,357,l),
(394,15,ls),
(388,-27,o),
(349,-51,o),
(293,-48,c),
(316,-221,l)
);
},
{
closed = 1;
nodes = (
(661,567,l),
(680,700,l),
(484,700,l),
(465,567,l)
);
}
);
width = 677;
}
);
unicode = 307;
},
{
color = 9;
glyphname = ij.ss01;
kernLeft = KO_i.ss01;
kernRight = KO_i;
lastChange = "2026-02-06 12:58:23 +0000";
layers = (
{
anchors = (
{
name = bottom;
pos = (227,-250);
},
{
name = center;
pos = (94,237);
},
{
name = ogonek;
pos = (76,0);
},
{
name = top;
pos = (359,655);
}
);
layerId = "3FAB31A8-66C0-4840-B78B-D12B5ED553F3";
shapes = (
{
closed = 1;
nodes = (
(76,0,l),
(144,492,l),
(120,492,l),
(52,0,l)
);
},
{
closed = 1;
nodes = (
(161,612,l),
(174,700,l),
(150,700,l),
(137,612,l)
);
},
{
closed = 1;
nodes = (
(212,-180,o),
(262,-121,o),
(277,-15,cs),
(349,492,l),
(325,492,l),
(254,-12,l),
(241,-105,o),
(203,-162,o),
(109,-203,c),
(118,-220,l)
);
},
{
closed = 1;
nodes = (
(365,612,l),
(378,700,l),
(354,700,l),
(341,612,l)
);
}
);
width = 403;
},
{
anchors = (
{
name = bottom;
pos = (321,-250);
},
{
name = center;
pos = (132,237);
},
{
name = ogonek;
pos = (153,0);
},
{
name = top;
pos = (470,700);
}
);
layerId = "DF61F520-A841-4152-8991-D5A31692CC39";
shapes = (
{
closed = 1;
nodes = (
(153,0,l),
(223,504,l),
(115,504,l),
(45,0,l)
);
},
{
closed = 1;
nodes = (
(236,592,l),
(251,700,l),
(143,700,l),
(128,592,l)
);
},
{
closed = 1;
nodes = (
(313,-200,o),
(402,-135,o),
(422,6,cs),
(493,504,l),
(384,504,l),
(315,9,l),
(304,-69,o),
(253,-112,o),
(190,-128,c),
(213,-223,l)
);
},
{
closed = 1;
nodes = (
(509,592,l),
(524,700,l),
(416,700,l),
(401,592,l)
);
}
);
width = 536;
},
{
anchors = (
{
name = bottom;
pos = (399,-250);
},
{
name = center;
pos = (158,237);
},
{
name = ogonek;
pos = (221,0);
},
{
name = top;
pos = (534,700);
}
);
layerId = "0E062E17-1137-409C-98D3-1192050A59FC";
shapes = (
{
closed = 1;
nodes = (
(221,0,l),
(294,517,l),
(97,517,l),
(24,0,l)
);
},
{
closed = 1;
nodes = (
(301,567,l),
(320,700,l),
(124,700,l),
(105,567,l)
);
},
{
closed = 1;
nodes = (
(379,-222,o),
(513,-164,o),
(540,28,cs),
(608,517,l),
(412,517,l),
(343,28,l),
(337,-16,o),
(309,-43,o),
(272,-49,c),
(290,-222,l)
);
},
{
closed = 1;
nodes = (
(613,567,l),
(632,700,l),
(436,700,l),
(417,567,l)
);
}
);
width = 628;
}
);
},
{
glyphname = jdotless;
lastChange = "2026-03-11 15:47:28 +0000";
layers = (
{
anchors = (
{
name = bottom;
pos = (3,-250);
},
{
name = top;
pos = (121,492);
}
);
background = {
shapes = (
{
ref = i;
}
);
};
layerId = "3FAB31A8-66C0-4840-B78B-D12B5ED553F3";
shapes = (
{
closed = 1;
nodes = (
(-3,-180,o),
(47,-121,o),
(62,-15,cs),
(134,492,l),
(54,492,l),
(51,470,l),
(107,470,l),
(39,-12,ls),
(26,-105,o),
(-12,-162,o),
(-106,-203,c),
(-97,-220,l)
);
}
);
width = 121;
},
{
anchors = (
{
name = bottom;
pos = (58,-250);
},
{
name = top;
pos = (179,504);
}
);
background = {
shapes = (
{
ref = i;
}
);
};
layerId = "DF61F520-A841-4152-8991-D5A31692CC39";
shapes = (
{
closed = 1;
nodes = (
(56,-200,o),
(145,-135,o),
(165,6,cs),
(236,504,l),
(49,504,l),
(37,413,l),
(115,413,l),
(58,9,ls),
(47,-69,o),
(-4,-112,o),
(-67,-128,c),
(-44,-223,l)
);
}
);
width = 224;
},
{
anchors = (
{
name = bottom;
pos = (100,-250);
},
{
name = top;
pos = (209,517);
}
);
background = {
shapes = (
{
ref = i;
}
);
};
layerId = "0E062E17-1137-409C-98D3-1192050A59FC";
shapes = (
{
closed = 1;
nodes = (
(74,-228,o),
(213,-167,o),
(235,-12,cs),
(310,517,l),
(45,517,l),
(23,357,l),
(96,357,l),
(47,15,ls),
(41,-27,o),
(2,-51,o),
(-54,-48,c),
(-31,-221,l)
);
}
);
width = 282;
}
);
metricRight = idotless;
unicode = 567;
},
{
color = 9;
glyphname = jdotless.ss01;
lastChange = "2025-01-19 15:33:47 +0000";
layers = (
{
anchors = (
{
name = bottom;
pos = (24,-250);
},
{
name = top;
pos = (133,492);
}
);
background = {
shapes = (
{
ref = idotless.ss01;
}
);
};
layerId = "3FAB31A8-66C0-4840-B78B-D12B5ED553F3";
shapes = (
{
closed = 1;
nodes = (
(9,-180,o),
(59,-121,o),
(74,-15,cs),
(146,492,l),
(122,492,l),
(51,-12,l),
(38,-105,o),
(0,-162,o),
(-94,-203,c),
(-85,-220,l)
);
}
);
width = 200;
},
{
anchors = (
{
name = bottom;
pos = (53,-250);
},
{
name = top;
pos = (174,504);
}
);
background = {
shapes = (
{
ref = idotless.ss01;
}
);
};
layerId = "DF61F520-A841-4152-8991-D5A31692CC39";
shapes = (
{
closed = 1;
nodes = (
(45,-200,o),
(134,-135,o),
(154,6,cs),
(225,504,l),
(116,504,l),
(47,9,l),
(36,-69,o),
(-15,-112,o),
(-78,-128,c),
(-55,-223,l)
);
}
);
width = 268;
},
{
anchors = (
{
name = bottom;
pos = (85,-250);
},
{
name = top;
pos = (194,517);
}
);
background = {
shapes = (
{
ref = idotless.ss01;
}
);
};
layerId = "0E062E17-1137-409C-98D3-1192050A59FC";
shapes = (
{
closed = 1;
nodes = (
(65,-222,o),
(199,-164,o),
(226,28,cs),
(294,517,l),
(98,517,l),
(29,28,l),
(23,-16,o),
(-5,-43,o),
(-42,-49,c),
(-24,-222,l)
);
}
);
width = 314;
}
);
},
{
glyphname = k;
kernLeft = KO_h;
kernRight = KO_k;
lastChange = "2025-01-20 07:45:44 +0000";
layers = (
{
anchors = (
{
name = bottom;
pos = (176,0);
},
{
name = center;
pos = (153,608);
},
{
name = top;
pos = (276,675);
}
);
layerId = "3FAB31A8-66C0-4840-B78B-D12B5ED553F3";
shapes = (
{
closed = 1;
nodes = (
(80,0,l),
(115,252,l),
(215,252,l),
(334,0,l),
(360,0,l),
(237,261,l),
(393,492,l),
(364,492,l),
(217,274,l),
(118,274,l),
(184,750,l),
(160,750,l),
(56,0,l)
);
}
);
width = 447;
},
{
anchors = (
{
name = bottom;
pos = (214,0);
},
{
name = center;
pos = (182,611);
},
{
name = top;
pos = (331,682);
}
);
layerId = "DF61F520-A841-4152-8991-D5A31692CC39";
shapes = (
{
closed = 1;
nodes = (
(151,0,l),
(183,233,l),
(251,233,l),
(317,0,l),
(432,0,l),
(343,290,l),
(488,504,l),
(365,504,l),
(246,327,l),
(196,327,l),
(256,750,l),
(148,750,l),
(43,0,l)
);
}
);
width = 503;
},
{
anchors = (
{
name = bottom;
pos = (245,0);
},
{
name = center;
pos = (201,613);
},
{
name = top;
pos = (373,720);
}
);
layerId = "0E062E17-1137-409C-98D3-1192050A59FC";
shapes = (
{
closed = 1;
nodes = (
(212,0,l),
(242,212,l),
(285,212,l),
(304,0,l),
(502,0,l),
(460,294,l),
(582,517,l),
(372,517,l),
(300,382,l),
(266,382,l),
(318,750,l),
(126,750,l),
(20,0,l)
);
}
);
width = 552;
}
);
metricLeft = h;
unicode = 107;
userData = {
KernOnName = k;
com.schriftgestaltung.Glyphs.ColorIndex = 3;
com.schriftgestaltung.Glyphs.layer.leftMetricsKey = "==n";
com.schriftgestaltung.Glyphs.leftMetricsKey = n;
};
},
{
glyphname = kgreenlandic;
lastChange = "2026-03-11 15:47:28 +0000";
layers = (
{
anchors = (
{
name = bottom;
pos = (115,0);
},
{
name = top;
pos = (185,492);
}
);
layerId = "3FAB31A8-66C0-4840-B78B-D12B5ED553F3";
shapes = (
{
closed = 1;
nodes = (
(13,0,l),
(48,252,l),
(148,252,l),
(267,0,l),
(293,0,l),
(170,261,l),
(326,492,l),
(297,492,l),
(150,274,l),
(51,274,l),
(81,492,l),
(57,492,l),
(-11,0,l)
);
}
);
width = 380;
},
{
anchors = (
{
name = bottom;
pos = (162,0);
},
{
name = top;
pos = (232,504);
}
);
layerId = "DF61F520-A841-4152-8991-D5A31692CC39";
shapes = (
{
closed = 1;
nodes = (
(96,0,l),
(128,233,l),
(196,233,l),
(262,0,l),
(377,0,l),
(288,290,l),
(433,504,l),
(310,504,l),
(191,327,l),
(141,327,l),
(166,504,l),
(59,504,l),
(-12,0,l)
);
}
);
width = 448;
},
{
anchors = (
{
name = bottom;
pos = (200,0);
},
{
name = top;
pos = (272,517);
}
);
layerId = "0E062E17-1137-409C-98D3-1192050A59FC";
shapes = (
{
closed = 1;
nodes = (
(164,0,l),
(194,212,l),
(237,212,l),
(256,0,l),
(454,0,l),
(412,294,l),
(534,517,l),
(324,517,l),
(252,382,l),
(218,382,l),
(237,517,l),
(45,517,l),
(-28,0,l)
);
}
);
width = 504;
}
);
metricLeft = n;
metricRight = k;
unicode = 312;
},
{
glyphname = l;
kernLeft = KO_l;
kernRight = KO_l;
lastChange = "2026-03-11 15:47:28 +0000";
layers = (
{
anchors = (
{
name = bottom;
pos = (86,0);
},
{
name = center;
pos = (132,450);
},
{
name = top;
pos = (160,675);
},
{
name = topright;
pos = (277,750);
}
);
layerId = "3FAB31A8-66C0-4840-B78B-D12B5ED553F3";
shapes = (
{
closed = 1;
nodes = (
(161,0,l),
(164,22,l),
(132,22,ls),
(101,22,o),
(84,42,o),
(89,74,cs),
(184,750,l),
(160,750,l),
(65,75,ls),
(58,30,o),
(87,0,o),
(132,0,cs)
);
}
);
width = 227;
},
{
anchors = (
{
name = bottom;
pos = (142,0);
},
{
name = center;
pos = (162,444);
},
{
name = top;
pos = (187,682);
},
{
name = topright;
pos = (317,750);
}
);
layerId = "DF61F520-A841-4152-8991-D5A31692CC39";
shapes = (
{
closed = 1;
nodes = (
(222,0,l),
(236,94,l),
(190,94,ls),
(172,94,o),
(163,103,o),
(166,124,cs),
(255,750,l),
(149,750,l),
(59,116,ls),
(49,48,o),
(93,0,o),
(162,0,cs)
);
}
);
width = 293;
},
{
anchors = (
{
name = bottom;
pos = (142,0);
},
{
name = center;
pos = (170,435);
},
{
name = top;
pos = (216,720);
},
{
name = topright;
pos = (370,750);
}
);
layerId = "0E062E17-1137-409C-98D3-1192050A59FC";
shapes = (
{
closed = 1;
nodes = (
(278,2,l),
(302,170,l),
(258,170,ls),
(243,170,o),
(236,173,o),
(239,191,cs),
(317,750,l),
(125,750,l),
(39,134,ls),
(29,61,o),
(78,2,o),
(149,2,cs)
);
}
);
width = 337;
}
);
metricLeft = h;
unicode = 108;
userData = {
KernOnName = l;
com.schriftgestaltung.Glyphs.ColorIndex = 3;
com.schriftgestaltung.Glyphs.layer.leftMetricsKey = "==h";
com.schriftgestaltung.Glyphs.leftMetricsKey = n;
com.typemytype.robofont.layerData = {
background = {
anchors = (
{
name = bottom;
x = 108;
y = 0;
},
{
name = top;
x = 108;
y = 500;
},
{
name = topright;
x = 204;
y = 500;
},
{
name = center;
x = 148;
y = 250;
}
);
components = (
);
contours = (
{
points = (
{
segmentType = line;
smooth = 0;
x = 95;
y = 750;
},
{
segmentType = line;
smooth = 0;
x = 95;
y = 61;
},
{
segmentType = line;
smooth = 0;
x = 148;
y = -11;
},
{
segmentType = line;
smooth = 0;
x = 215;
y = 31;
},
{
segmentType = line;
smooth = 0;
x = 175;
y = 90;
},
{
segmentType = line;
smooth = 0;
x = 175;
y = 750;
}
);
}
);
lib = {
};
name = l;
unicodes = (
);
width = 275;
};
};
};
},
